SplineFontDB: 1.0
FontName: ScidbSymbolS1
FullName: Scidb Symbol S1
FamilyName: Scidb Symbol S1
Weight: Book
Copyright: 
Version: 1.0
ItalicAngle: 0
UnderlinePosition: 0
UnderlineWidth: 0
Ascent: 3276
Descent: 820
Order2: 1
XUID: [1021 973 2061925148 3987756]
FSType: 0
OS2Version: 0
OS2_WeightWidthSlopeOnly: 0
OS2_UseTypoMetrics: 0
CreationTime: 1236613799
ModificationTime: 1250956361
PfmFamily: 17
TTFWeight: 400
TTFWidth: 5
LineGap: -181
VLineGap: 0
Panose: 2 11 6 3 5 3 2 2 2 4
OS2TypoAscent: 3349
OS2TypoAOffset: 1
OS2TypoDescent: -928
OS2TypoDOffset: 1
OS2TypoLinegap: 0
OS2WinAscent: 0
OS2WinAOffset: 1
OS2WinDescent: 0
OS2WinDOffset: 1
HheadAscent: 0
HheadAOffset: 1
HheadDescent: 0
HheadDOffset: 1
OS2SubXSize: 0
OS2SubYSize: 0
OS2SubXOff: 0
OS2SubYOff: 0
OS2SupXSize: 0
OS2SupYSize: 0
OS2SupXOff: 0
OS2SupYOff: 0
OS2StrikeYSize: 0
OS2StrikeYPos: 0
OS2Vendor: 'PfEd'
ScriptLang: 1
 1 latn 1 dflt 
TableOrder: GSUB 1
	'liga'
TtfTable: prep 4
\,ZLZ
EndTtf
TtfTable: fpgm 354
\,ZL[9=Os-:fst'!KL<m!WRk`!(7j<!!iQ,?X>=o!!+Vn+@U!4YQ8,`\,ZR]\,ZOZ+YC2(""YQa
YQH1@;HP/H+Gq;!8S!]$7NcAQA?Z1_7NcAQA5ZMSAVsVD+KtiE=D8n^!*!&DYWu>1BcsV[<*1<J
5\4)$3\@iA"=tZbYQQ7A;HP0$=Wg0VC11YW"=6M[C11XN=<i]+0E!K4!!OoH+Ktqp:fpRsY^f+\
YWtTZ)^-@I7BjR(=KoS/)^/?e/[tcb/0H'(Bgf0+?m$R\I;'NdYQ8,`\,Zab\,Z^_/[tcd/5%+i
""$rKY^d[s5Zru%+Ktqp;ck7fYeZ-R)i>kC+Ktqp;ck7f\,cSeMAqEt=WjpN-<""k+h.P<MM`@1
,?Z/!!!=QH=KhlR7CWAK:fnqc\,h+)+WIWf,t0%%,9^2/+^%2b\,Zgd92eq]6lR9m=Y0UR
EndTtf
TtfTable: cvt  4
!/Lt+
EndTtf
TtfTable: maxp 32
!!*'"!2fnm!$M=B!!!!"!!!!1z!!!!Oz
EndTtf
LangName: 1033 "" "" "Regular" "Scidb Symbol S1" 
Encoding: UnicodeBmp
UnicodeInterp: none
NameList: Adobe Glyph List
DisplaySize: -24
AntiAlias: 1
FitToEm: 1
WinInfo: 9786 21 13
BeginChars: 65536 165
StartChar: .notdef
Encoding: 0 -1 0
AltUni: 0
Width: 1773
GlyphClass: 2
Flags: W
Fore
136 0 m 1,0,-1
 136 2730 l 1,1,-1
 1501 2730 l 1,2,-1
 1501 0 l 1,3,-1
 136 0 l 1,0,-1
272 136 m 1,4,-1
 1365 136 l 1,5,-1
 1365 2594 l 1,6,-1
 272 2594 l 1,7,-1
 272 136 l 1,4,-1
EndSplineSet
EndChar
StartChar: exclam
Encoding: 33 33 2
Width: 1135
GlyphClass: 2
Flags: W
Fore
384 0 m 1,0,-1
 384 415 l 1,1,-1
 768 415 l 1,2,-1
 768 0 l 1,3,-1
 384 0 l 1,0,-1
384 1951 m 1,4,-1
 384 2943 l 1,5,-1
 768 2943 l 1,6,-1
 768 1959 l 1,7,-1
 672 693 l 1,8,-1
 476 693 l 1,9,-1
 384 1951 l 1,4,-1
EndSplineSet
EndChar
StartChar: quotedbl
Encoding: 34 34 3
Width: 1454
GlyphClass: 2
Flags: W
Fore
576 1894 m 1,0,-1
 288 1894 l 1,1,-1
 288 2943 l 1,2,-1
 576 2943 l 1,3,-1
 576 1894 l 1,0,-1
864 2943 m 1,4,-1
 1152 2943 l 1,5,-1
 1152 1894 l 1,6,-1
 864 1894 l 1,7,-1
 864 2943 l 1,4,-1
EndSplineSet
EndChar
StartChar: numbersign
Encoding: 35 35 4
Width: 2281
GlyphClass: 2
Flags: W
Fore
552 863 m 1,0,-1
 128 863 l 1,1,-1
 169 1119 l 1,2,-1
 584 1119 l 1,3,-1
 662 1695 l 1,4,-1
 241 1695 l 1,5,-1
 278 1951 l 1,6,-1
 703 1951 l 1,7,-1
 821 2816 l 1,8,-1
 1094 2816 l 1,9,-1
 971 1951 l 1,10,-1
 1481 1951 l 1,11,-1
 1596 2816 l 1,12,-1
 1874 2816 l 1,13,-1
 1755 1951 l 1,14,-1
 2176 1951 l 1,15,-1
 2139 1695 l 1,16,-1
 1715 1695 l 1,17,-1
 1633 1119 l 1,18,-1
 2057 1119 l 1,19,-1
 2016 863 l 1,20,-1
 1604 863 l 1,21,-1
 1481 0 l 1,22,-1
 1213 0 l 1,23,-1
 1331 863 l 1,24,-1
 813 863 l 1,25,-1
 703 0 l 1,26,-1
 434 0 l 1,27,-1
 552 863 l 1,0,-1
936 1695 m 1,28,-1
 854 1119 l 1,29,-1
 1364 1119 l 1,30,-1
 1446 1695 l 1,31,-1
 936 1695 l 1,28,-1
EndSplineSet
EndChar
StartChar: dollar
Encoding: 36 36 5
Width: 2281
GlyphClass: 2
Flags: W
Fore
1024 1663 m 1,0,-1
 1024 2623 l 1,1,2
 879 2623 879 2623 768 2555 c 0,3,4
 659 2488 659 2488 601 2376 c 0,5,6
 544 2265 544 2265 544 2132 c 0,7,8
 544 1932 544 1932 682 1817 c 0,9,10
 751 1759 751 1759 837 1720 c 128,-1,11
 923 1681 923 1681 1024 1663 c 1,0,-1
1216 1244 m 1,12,-1
 1216 190 l 1,13,14
 1286 190 1286 190 1352.5 206.5 c 128,-1,15
 1419 223 1419 223 1481 255 c 0,16,17
 1544 286 1544 286 1595 331 c 128,-1,18
 1646 376 1646 376 1683 433 c 1,19,20
 1760 547 1760 547 1760 693 c 0,21,22
 1760 805 1760 805 1724 892.5 c 128,-1,23
 1688 980 1688 980 1616 1040 c 0,24,25
 1544 1099 1544 1099 1443.5 1151 c 128,-1,26
 1343 1203 1343 1203 1216 1244 c 1,12,-1
2040 2132 m 1,27,-1
 1703 2132 l 1,28,29
 1675 2330 1675 2330 1576 2451 c 0,30,31
 1477 2573 1477 2573 1216 2623 c 1,32,-1
 1216 1622 l 1,33,34
 2112 1367 2112 1367 2112 788 c 0,35,36
 2112 627 2112 627 2076 496.5 c 128,-1,37
 2040 366 2040 366 1968 267 c 128,-1,38
 1896 168 1896 168 1808.5 97 c 128,-1,39
 1721 26 1721 26 1619 -13 c 1,40,41
 1414 -96 1414 -96 1216 -96 c 1,42,-1
 1216 -485 l 1,43,-1
 1024 -485 l 1,44,-1
 1024 -96 l 1,45,46
 891 -87 891 -87 774.5 -59.5 c 128,-1,47
 658 -32 658 -32 560 11 c 1,48,49
 364 103 364 103 250 310 c 0,50,51
 193 412 193 412 164 548.5 c 128,-1,52
 135 685 135 685 135 854 c 1,53,-1
 487 854 l 1,54,55
 499 625 499 625 549 493 c 0,56,57
 574 427 574 427 614.5 376.5 c 128,-1,58
 655 326 655 326 709 292 c 0,59,60
 820 222 820 222 1024 190 c 1,61,-1
 1024 1291 l 1,62,63
 927 1315 927 1315 844.5 1340 c 128,-1,64
 762 1365 762 1365 696 1389 c 0,65,66
 562 1439 562 1439 446 1527 c 0,67,68
 330 1616 330 1616 261 1760 c 0,69,70
 227 1831 227 1831 209.5 1918 c 128,-1,71
 192 2005 192 2005 192 2107 c 0,72,73
 192 2216 192 2216 219.5 2316.5 c 128,-1,74
 247 2417 247 2417 301 2508 c 0,75,76
 355 2601 355 2601 430.5 2674.5 c 128,-1,77
 506 2748 506 2748 600 2802 c 0,78,79
 695 2856 695 2856 801 2883.5 c 128,-1,80
 907 2911 907 2911 1024 2911 c 1,81,-1
 1024 3173 l 1,82,-1
 1216 3173 l 1,83,-1
 1216 2911 l 1,84,85
 1525 2882 1525 2882 1774 2723 c 0,86,87
 1899 2643 1899 2643 1966 2495 c 128,-1,88
 2033 2347 2033 2347 2040 2132 c 1,27,-1
EndSplineSet
EndChar
StartChar: percent
Encoding: 37 37 6
Width: 3641
GlyphClass: 2
Flags: W
Fore
911 -89 m 1,0,-1
 2520 2879 l 1,1,-1
 2753 2879 l 1,2,-1
 1131 -89 l 1,3,-1
 911 -89 l 1,0,-1
856 2559 m 0,4,5
 762 2559 762 2559 688.5 2528 c 128,-1,6
 615 2497 615 2497 562 2438 c 1,7,8
 510 2377 510 2377 481 2303 c 128,-1,9
 452 2229 452 2229 448 2143 c 1,10,11
 455 1969 455 1969 564 1849 c 1,12,13
 673 1726 673 1726 856 1726 c 1,14,15
 1058 1733 1058 1733 1169 1855 c 128,-1,16
 1280 1977 1280 1977 1280 2143 c 0,17,18
 1280 2315 1280 2315 1169 2437 c 0,19,20
 1057 2559 1057 2559 856 2559 c 0,4,5
859 2847 m 0,21,22
 954 2847 954 2847 1042.5 2823 c 128,-1,23
 1131 2799 1131 2799 1212 2750 c 1,24,25
 1294 2703 1294 2703 1359 2637 c 128,-1,26
 1424 2571 1424 2571 1472 2490 c 0,27,28
 1568 2327 1568 2327 1568 2136 c 0,29,30
 1568 1947 1568 1947 1472 1787 c 0,31,32
 1424 1706 1424 1706 1358.5 1642.5 c 128,-1,33
 1293 1579 1293 1579 1212 1533 c 0,34,35
 1049 1439 1049 1439 859 1439 c 0,36,37
 668 1439 668 1439 508 1531 c 1,38,39
 429 1578 429 1578 365 1642 c 128,-1,40
 301 1706 301 1706 254 1787 c 0,41,42
 160 1948 160 1948 160 2136 c 0,43,44
 160 2230 160 2230 184 2319 c 128,-1,45
 208 2408 208 2408 254 2489 c 0,46,47
 301 2571 301 2571 365 2636.5 c 128,-1,48
 429 2702 429 2702 508 2750 c 0,49,50
 588 2798 588 2798 676 2822.5 c 128,-1,51
 764 2847 764 2847 859 2847 c 0,21,22
2762 1055 m 0,52,53
 2577 1055 2577 1055 2476 933 c 0,54,55
 2426 872 2426 872 2399 797.5 c 128,-1,56
 2372 723 2372 723 2368 636 c 1,57,58
 2374 464 2374 464 2478 344 c 0,59,60
 2584 222 2584 222 2762 222 c 0,61,62
 2828 222 2828 222 2884.5 237 c 128,-1,63
 2941 252 2941 252 2985 281 c 0,64,65
 3077 340 3077 340 3122 435 c 0,66,67
 3145 482 3145 482 3156.5 532.5 c 128,-1,68
 3168 583 3168 583 3168 636 c 0,69,70
 3168 813 3168 813 3063 933 c 0,71,72
 2958 1055 2958 1055 2762 1055 c 0,52,53
2768 1343 m 0,73,74
 2911 1343 2911 1343 3035 1289 c 0,75,76
 3160 1234 3160 1234 3254 1137 c 1,77,78
 3350 1040 3350 1040 3402 915 c 0,79,80
 3429 852 3429 852 3442.5 783.5 c 128,-1,81
 3456 715 3456 715 3456 643 c 0,82,83
 3456 453 3456 453 3364 290 c 0,84,85
 3318 208 3318 208 3255 143 c 128,-1,86
 3192 78 3192 78 3113 31 c 0,87,88
 2956 -64 2956 -64 2768 -64 c 0,89,90
 2582 -64 2582 -64 2423 29 c 1,91,92
 2265 126 2265 126 2173 289 c 0,93,94
 2127 371 2127 371 2103.5 459.5 c 128,-1,95
 2080 548 2080 548 2080 643 c 0,96,97
 2080 834 2080 834 2172 994 c 0,98,99
 2219 1074 2219 1074 2282 1138 c 128,-1,100
 2345 1202 2345 1202 2422 1248 c 0,101,102
 2581 1343 2581 1343 2768 1343 c 0,73,74
EndSplineSet
EndChar
StartChar: ampersand
Encoding: 38 38 7
Width: 72
GlyphClass: 2
Flags: W
Fore
39 72 m 0,0,1
 54 72 54 72 65.5 61.5 c 128,-1,2
 77 51 77 51 77 36 c 0,3,4
 77 20 77 20 65.5 10 c 128,-1,5
 54 0 54 0 39 0 c 0,6,7
 23 0 23 0 11.5 10 c 128,-1,8
 0 20 0 20 0 36 c 0,9,10
 0 51 0 51 11.5 61.5 c 128,-1,11
 23 72 23 72 39 72 c 0,0,1
EndSplineSet
EndChar
StartChar: quotesingle
Encoding: 39 39 8
Width: 913
GlyphClass: 2
Flags: W
Fore
434 2494 m 1,0,-1
 224 2494 l 1,1,-1
 224 2943 l 1,2,-1
 640 2943 l 1,3,-1
 640 2494 l 2,4,5
 640 2425 640 2425 629.5 2358.5 c 128,-1,6
 619 2292 619 2292 598 2231 c 0,7,8
 577 2169 577 2169 543.5 2115 c 128,-1,9
 510 2061 510 2061 463 2016 c 0,10,11
 370 1925 370 1925 224 1894 c 1,12,-1
 224 2086 l 1,13,14
 434 2120 434 2120 434 2494 c 1,0,-1
EndSplineSet
EndChar
StartChar: parenleft
Encoding: 40 40 9
Width: 1360
GlyphClass: 2
Flags: W
Fore
980 3006 m 1,0,-1
 1231 3006 l 1,1,2
 1167 2895 1167 2895 1110.5 2785 c 128,-1,3
 1054 2675 1054 2675 1004 2567 c 0,4,5
 955 2458 955 2458 911.5 2344.5 c 128,-1,6
 868 2231 868 2231 831 2113 c 0,7,8
 794 1994 794 1994 764.5 1866 c 128,-1,9
 735 1738 735 1738 714 1603 c 0,10,11
 693 1466 693 1466 682.5 1323 c 128,-1,12
 672 1180 672 1180 672 1031 c 1,13,14
 677 919 677 919 686.5 810.5 c 128,-1,15
 696 702 696 702 710 598 c 0,16,17
 725 494 725 494 748.5 382.5 c 128,-1,18
 772 271 772 271 803 154 c 1,19,20
 836 37 836 37 879 -84.5 c 128,-1,21
 922 -206 922 -206 974 -331 c 0,22,23
 1028 -457 1028 -457 1094 -588 c 128,-1,24
 1160 -719 1160 -719 1239 -856 c 1,25,-1
 1004 -864 l 1,26,27
 891 -695 891 -695 801.5 -552.5 c 128,-1,28
 712 -410 712 -410 647 -296 c 0,29,30
 582 -181 582 -181 529.5 -70 c 128,-1,31
 477 41 477 41 438 149 c 0,32,33
 399 256 399 256 371 369.5 c 128,-1,34
 343 483 343 483 327 600 c 0,35,36
 294 836 294 836 288 1159 c 1,37,38
 288 1313 288 1313 313.5 1478.5 c 128,-1,39
 339 1644 339 1644 389 1819 c 0,40,41
 440 1995 440 1995 505.5 2162 c 128,-1,42
 571 2329 571 2329 651 2485 c 0,43,44
 732 2643 732 2643 814 2773.5 c 128,-1,45
 896 2904 896 2904 980 3006 c 1,0,-1
EndSplineSet
EndChar
StartChar: parenright
Encoding: 41 41 10
Width: 1360
GlyphClass: 2
Flags: W
Fore
136 -864 m 1,0,1
 420 -385 420 -385 562 81.5 c 128,-1,2
 704 548 704 548 704 1003 c 1,3,4
 701 1153 701 1153 695 1273 c 128,-1,5
 689 1393 689 1393 679 1484 c 0,6,7
 670 1574 670 1574 653 1670 c 128,-1,8
 636 1766 636 1766 610 1867 c 0,9,10
 585 1968 585 1968 543 2087.5 c 128,-1,11
 501 2207 501 2207 444 2345 c 128,-1,12
 387 2483 387 2483 310 2648.5 c 128,-1,13
 233 2814 233 2814 136 3006 c 1,14,-1
 380 3006 l 1,15,16
 409 2962 409 2962 452.5 2893 c 128,-1,17
 496 2824 496 2824 554 2732 c 0,18,19
 613 2641 613 2641 672.5 2533 c 128,-1,20
 732 2425 732 2425 792 2302 c 0,21,22
 852 2178 852 2178 904.5 2036.5 c 128,-1,23
 957 1895 957 1895 1000 1735 c 0,24,25
 1044 1577 1044 1577 1066 1414 c 128,-1,26
 1088 1251 1088 1251 1088 1085 c 0,27,28
 1088 965 1088 965 1074 836 c 128,-1,29
 1060 707 1060 707 1031 573 c 0,30,31
 1003 437 1003 437 964 302.5 c 128,-1,32
 925 168 925 168 877 36 c 0,33,34
 779 -228 779 -228 654 -461 c 0,35,36
 592 -578 592 -578 527 -679 c 128,-1,37
 462 -780 462 -780 396 -864 c 1,38,-1
 136 -864 l 1,0,1
EndSplineSet
EndChar
StartChar: asterisk
Encoding: 42 42 11
Width: 1593
GlyphClass: 2
Flags: W
Fore
598 2279 m 1,0,-1
 160 2424 l 1,1,-1
 242 2644 l 1,2,-1
 672 2485 l 1,3,-1
 672 2943 l 1,4,-1
 896 2943 l 1,5,-1
 896 2485 l 1,6,-1
 1345 2644 l 1,7,-1
 1440 2424 l 1,8,-1
 966 2279 l 1,9,-1
 1249 1903 l 1,10,-1
 1051 1760 l 1,11,-1
 782 2143 l 1,12,-1
 524 1767 l 1,13,-1
 328 1903 l 1,14,-1
 598 2279 l 1,0,-1
EndSplineSet
EndChar
StartChar: plus
Encoding: 43 43 12
Width: 2392
GlyphClass: 2
Flags: W
Fore
1056 1183 m 1,0,-1
 1056 2063 l 1,1,-1
 1344 2063 l 1,2,-1
 1344 1183 l 1,3,-1
 2239 1183 l 1,4,-1
 2239 895 l 1,5,-1
 1344 895 l 1,6,-1
 1344 0 l 1,7,-1
 1056 0 l 1,8,-1
 1056 895 l 1,9,-1
 160 895 l 1,10,-1
 160 1183 l 1,11,-1
 1056 1183 l 1,0,-1
EndSplineSet
EndChar
StartChar: comma
Encoding: 44 44 13
Width: 1135
GlyphClass: 2
Flags: W
Fore
352 0 m 1,0,-1
 352 415 l 1,1,-1
 768 415 l 1,2,-1
 768 0 l 2,3,4
 768 -516 768 -516 352 -606 c 1,5,-1
 352 -418 l 1,6,7
 557 -409 557 -409 575 0 c 1,8,-1
 352 0 l 1,0,-1
EndSplineSet
EndChar
StartChar: hyphen
Encoding: 45 45 14
Width: 2392
GlyphClass: 2
Flags: W
Fore
157 1163 m 1,0,-1
 2211 1163 l 1,1,-1
 2211 884 l 1,2,-1
 157 884 l 1,3,-1
 157 1163 l 1,0,-1
EndSplineSet
EndChar
StartChar: period
Encoding: 46 46 15
Width: 1135
GlyphClass: 2
Flags: W
Fore
352 0 m 1,0,-1
 352 446 l 1,1,-1
 800 446 l 1,2,-1
 800 0 l 1,3,-1
 352 0 l 1,0,-1
EndSplineSet
EndChar
StartChar: slash
Encoding: 47 47 16
Width: 1135
GlyphClass: 2
Flags: W
Fore
1216 3006 m 1,0,-1
 235 -96 l 1,1,-1
 -31 -96 l 1,2,-1
 953 3006 l 1,3,-1
 1216 3006 l 1,0,-1
EndSplineSet
EndChar
StartChar: zero
Encoding: 48 48 17
Width: 2281
GlyphClass: 2
Flags: W
Fore
176 1631 m 0,0,1
 195 1821 195 1821 230 1985 c 128,-1,2
 265 2149 265 2149 314 2286 c 1,3,4
 415 2558 415 2558 615 2714 c 0,5,6
 715 2793 715 2793 845 2834.5 c 128,-1,7
 975 2876 975 2876 1134 2879 c 1,8,9
 1277 2879 1277 2879 1401.5 2840.5 c 128,-1,10
 1526 2802 1526 2802 1632 2728 c 0,11,12
 1846 2577 1846 2577 1971 2254 c 0,13,14
 2034 2094 2034 2094 2069.5 1890.5 c 128,-1,15
 2105 1687 2105 1687 2112 1443 c 1,16,-1
 2112 1330 l 2,17,18
 2112 1015 2112 1015 2052 758 c 0,19,20
 2022 629 2022 629 1977 516 c 128,-1,21
 1932 403 1932 403 1872 308 c 0,22,23
 1812 214 1812 214 1735 139.5 c 128,-1,24
 1658 65 1658 65 1565 13 c 0,25,26
 1379 -93 1379 -93 1134 -96 c 1,27,28
 794 -96 794 -96 577 106 c 0,29,30
 469 208 469 208 390 340.5 c 128,-1,31
 311 473 311 473 263 634 c 0,32,33
 215 797 215 797 188.5 972 c 128,-1,34
 162 1147 162 1147 160 1334 c 1,35,36
 162 1360 162 1360 165 1398 c 128,-1,37
 168 1436 168 1436 169 1486 c 0,38,39
 171 1535 171 1535 172.5 1571.5 c 128,-1,40
 174 1608 174 1608 176 1631 c 0,0,1
544 1474 m 0,41,42
 544 911 544 911 673 568 c 0,43,44
 738 395 738 395 851.5 308.5 c 128,-1,45
 965 222 965 222 1125 222 c 1,46,47
 1253 224 1253 224 1350.5 273 c 128,-1,48
 1448 322 1448 322 1515 417 c 0,49,50
 1649 605 1649 605 1688 859 c 0,51,52
 1708 985 1708 985 1718 1114.5 c 128,-1,53
 1728 1244 1728 1244 1728 1377 c 0,54,55
 1728 1581 1728 1581 1709.5 1750 c 128,-1,56
 1691 1919 1691 1919 1654 2050 c 0,57,58
 1617 2183 1617 2183 1564.5 2279.5 c 128,-1,59
 1512 2376 1512 2376 1444 2437 c 0,60,61
 1308 2559 1308 2559 1125 2559 c 0,62,63
 918 2559 918 2559 787 2404 c 128,-1,64
 656 2249 656 2249 600 2004 c 0,65,66
 573 1880 573 1880 558.5 1747.5 c 128,-1,67
 544 1615 544 1615 544 1474 c 0,41,42
EndSplineSet
EndChar
StartChar: one
Encoding: 49 49 18
Width: 2281
GlyphClass: 2
Flags: W
Fore
1088 0 m 1,0,-1
 1088 2039 l 1,1,-1
 408 2039 l 1,2,-1
 408 2326 l 1,3,4
 444 2329 444 2329 498.5 2334 c 128,-1,5
 553 2339 553 2339 626 2347 c 0,6,7
 700 2354 700 2354 763.5 2370 c 128,-1,8
 827 2386 827 2386 879 2410 c 0,9,10
 985 2458 985 2458 1070 2571 c 0,11,12
 1155 2683 1155 2683 1189 2877 c 1,13,-1
 1472 2877 l 1,14,-1
 1472 0 l 1,15,-1
 1088 0 l 1,0,-1
EndSplineSet
EndChar
StartChar: two
Encoding: 50 50 19
Width: 2281
GlyphClass: 2
Flags: W
Fore
101 0 m 1,0,1
 119 486 119 486 334 758 c 0,2,3
 548 1027 548 1027 969 1261 c 0,4,5
 1179 1377 1179 1377 1323 1466.5 c 128,-1,6
 1467 1556 1467 1556 1543 1615 c 0,7,8
 1696 1736 1696 1736 1696 2012 c 0,9,10
 1696 2265 1696 2265 1545 2408 c 1,11,12
 1470 2481 1470 2481 1368 2518.5 c 128,-1,13
 1266 2556 1266 2556 1140 2559 c 1,14,15
 551 2559 551 2559 538 1846 c 1,16,-1
 175 1846 l 1,17,18
 175 2125 175 2125 276 2358 c 0,19,20
 377 2593 377 2593 601 2736 c 0,21,22
 826 2879 826 2879 1170 2879 c 0,23,24
 1405 2879 1405 2879 1612 2786 c 0,25,26
 1821 2691 1821 2691 1949 2490 c 0,27,28
 2080 2286 2080 2286 2080 1985 c 1,29,30
 2062 1631 2062 1631 1872 1430 c 1,31,32
 1778 1328 1778 1328 1636.5 1228 c 128,-1,33
 1495 1128 1495 1128 1306 1031 c 1,34,35
 1118 932 1118 932 979.5 850 c 128,-1,36
 841 768 841 768 752 704 c 1,37,38
 664 638 664 638 603 541.5 c 128,-1,39
 542 445 542 445 510 319 c 1,40,-1
 2080 319 l 1,41,-1
 2080 0 l 1,42,-1
 101 0 l 1,0,1
EndSplineSet
EndChar
StartChar: three
Encoding: 51 51 20
Width: 2281
GlyphClass: 2
Flags: W
Fore
1752 664 m 0,0,1
 1756 689 1756 689 1758 723.5 c 128,-1,2
 1760 758 1760 758 1760 802 c 0,3,4
 1760 1119 1760 1119 1557 1230 c 0,5,6
 1456 1286 1456 1286 1322 1314.5 c 128,-1,7
 1188 1343 1188 1343 1023 1343 c 2,8,-1
 909 1343 l 1,9,-1
 909 1638 l 1,10,11
 954 1635 954 1635 987.5 1633 c 128,-1,12
 1021 1631 1021 1631 1043 1631 c 0,13,14
 1331 1631 1331 1631 1481 1753 c 0,15,16
 1632 1877 1632 1877 1632 2081 c 0,17,18
 1632 2153 1632 2153 1614.5 2217 c 128,-1,19
 1597 2281 1597 2281 1562 2336 c 0,20,21
 1527 2390 1527 2390 1479 2431.5 c 128,-1,22
 1431 2473 1431 2473 1371 2501 c 0,23,24
 1251 2559 1251 2559 1100 2559 c 0,25,26
 931 2559 931 2559 807 2478 c 128,-1,27
 683 2397 683 2397 620 2259 c 0,28,29
 589 2189 589 2189 572.5 2110.5 c 128,-1,30
 556 2032 556 2032 556 1946 c 1,31,-1
 208 1946 l 1,32,33
 208 2073 208 2073 233 2190 c 128,-1,34
 258 2307 258 2307 308 2413 c 0,35,36
 408 2625 408 2625 616 2752 c 0,37,38
 720 2815 720 2815 849.5 2847 c 128,-1,39
 979 2879 979 2879 1131 2879 c 0,40,41
 1400 2879 1400 2879 1602 2780 c 0,42,43
 1703 2730 1703 2730 1780.5 2665.5 c 128,-1,44
 1858 2601 1858 2601 1910 2521 c 0,45,46
 1963 2442 1963 2442 1989.5 2358.5 c 128,-1,47
 2016 2275 2016 2275 2016 2188 c 0,48,49
 2016 1646 2016 1646 1632 1531 c 1,50,51
 1905 1470 1905 1470 2024 1244 c 0,52,53
 2144 1017 2144 1017 2144 734 c 0,54,55
 2144 564 2144 564 2028 369 c 0,56,57
 1912 172 1912 172 1676 38 c 0,58,59
 1441 -96 1441 -96 1104 -96 c 1,60,61
 682 -83 682 -83 429 120 c 0,62,63
 175 324 175 324 134 886 c 1,64,-1
 515 886 l 1,65,66
 515 637 515 637 610 484 c 0,67,68
 705 330 705 330 862 270 c 1,69,70
 929 252 929 252 990 240.5 c 128,-1,71
 1051 229 1051 229 1107 222 c 1,72,73
 1230 227 1230 227 1338 260.5 c 128,-1,74
 1446 294 1446 294 1539 357 c 0,75,76
 1633 420 1633 420 1686.5 496.5 c 128,-1,77
 1740 573 1740 573 1752 664 c 0,0,1
EndSplineSet
EndChar
StartChar: four
Encoding: 52 52 21
Width: 2281
GlyphClass: 2
Flags: W
Fore
93 1053 m 1,0,-1
 1431 2877 l 1,1,-1
 1728 2877 l 1,2,-1
 1728 1023 l 1,3,-1
 2133 1023 l 1,4,-1
 2133 702 l 1,5,-1
 1728 702 l 1,6,-1
 1728 0 l 1,7,-1
 1376 0 l 1,8,-1
 1376 702 l 1,9,-1
 93 702 l 1,10,-1
 93 1053 l 1,0,-1
428 1023 m 1,11,-1
 1376 1023 l 1,12,-1
 1376 2326 l 1,13,-1
 428 1023 l 1,11,-1
EndSplineSet
EndChar
StartChar: five
Encoding: 53 53 22
Width: 2281
GlyphClass: 2
Flags: W
Fore
126 711 m 1,0,-1
 505 711 l 1,1,2
 567 222 567 222 1131 222 c 0,3,4
 1361 222 1361 222 1535 390 c 1,5,6
 1711 557 1711 557 1728 831 c 1,7,8
 1728 1185 1728 1185 1547 1361 c 0,9,10
 1367 1535 1367 1535 1094 1535 c 0,11,12
 1006 1535 1006 1535 924 1517 c 128,-1,13
 842 1499 842 1499 767 1465 c 0,14,15
 616 1396 616 1396 546 1271 c 1,16,-1
 232 1284 l 1,17,-1
 446 2815 l 1,18,-1
 1953 2815 l 1,19,-1
 1953 2463 l 1,20,-1
 719 2463 l 1,21,-1
 595 1683 l 1,22,23
 636 1722 636 1722 694 1753.5 c 128,-1,24
 752 1785 752 1785 827 1808 c 0,25,26
 979 1855 979 1855 1152 1855 c 0,27,28
 1339 1855 1339 1855 1512 1789 c 0,29,30
 1599 1756 1599 1756 1676 1709.5 c 128,-1,31
 1753 1663 1753 1663 1820 1603 c 0,32,33
 1888 1543 1888 1543 1941 1470.5 c 128,-1,34
 1994 1398 1994 1398 2033 1316 c 0,35,36
 2072 1232 2072 1232 2092 1141.5 c 128,-1,37
 2112 1051 2112 1051 2112 954 c 0,38,39
 2112 810 2112 810 2086 679.5 c 128,-1,40
 2060 549 2060 549 2009 434 c 0,41,42
 1907 202 1907 202 1679 61 c 0,43,44
 1566 -9 1566 -9 1421.5 -48.5 c 128,-1,45
 1277 -88 1277 -88 1101 -96 c 1,46,47
 996 -96 996 -96 899.5 -81 c 128,-1,48
 803 -66 803 -66 715 -37 c 128,-1,49
 627 -8 627 -8 550.5 33.5 c 128,-1,50
 474 75 474 75 410 129 c 0,51,52
 347 183 347 183 296 248 c 128,-1,53
 245 313 245 313 209 387 c 128,-1,54
 173 461 173 461 152 542.5 c 128,-1,55
 131 624 131 624 126 711 c 1,0,-1
EndSplineSet
EndChar
StartChar: six
Encoding: 54 54 23
Width: 2281
GlyphClass: 2
Flags: W
Fore
165 1309 m 0,0,1
 173 1449 173 1449 184 1571 c 128,-1,2
 195 1693 195 1693 208 1797 c 0,3,4
 235 2003 235 2003 336 2256 c 0,5,6
 438 2507 438 2507 656 2685 c 0,7,8
 874 2862 874 2862 1232 2879 c 1,9,10
 1442 2879 1442 2879 1635 2782 c 1,11,12
 1829 2687 1829 2687 1949 2508 c 0,13,14
 2009 2417 2009 2417 2039.5 2315 c 128,-1,15
 2070 2213 2070 2213 2070 2098 c 1,16,-1
 1718 2098 l 1,17,18
 1688 2322 1688 2322 1555 2440 c 0,19,20
 1423 2559 1423 2559 1208 2559 c 0,21,22
 1122 2559 1122 2559 1040.5 2530 c 128,-1,23
 959 2501 959 2501 884 2444 c 0,24,25
 732 2329 732 2329 634 2080 c 0,26,27
 586 1955 586 1955 559 1796.5 c 128,-1,28
 532 1638 532 1638 527 1445 c 1,29,30
 572 1531 572 1531 639 1600 c 128,-1,31
 706 1669 706 1669 793 1720 c 128,-1,32
 880 1771 880 1771 987.5 1797 c 128,-1,33
 1095 1823 1095 1823 1222 1823 c 1,34,35
 1350 1820 1350 1820 1468 1786.5 c 128,-1,36
 1586 1753 1586 1753 1691 1692 c 0,37,38
 1797 1629 1797 1629 1880 1545 c 128,-1,39
 1963 1461 1963 1461 2023 1355 c 0,40,41
 2083 1251 2083 1251 2113.5 1133.5 c 128,-1,42
 2144 1016 2144 1016 2144 888 c 0,43,44
 2144 641 2144 641 2031 412 c 0,45,46
 1975 298 1975 298 1895 205 c 128,-1,47
 1815 112 1815 112 1711 43 c 0,48,49
 1503 -96 1503 -96 1238 -96 c 1,50,51
 1117 -94 1117 -94 1005.5 -72 c 128,-1,52
 894 -50 894 -50 795 -8 c 128,-1,53
 696 34 696 34 610.5 96.5 c 128,-1,54
 525 159 525 159 454 242 c 0,55,56
 312 406 312 406 236 648 c 0,57,58
 199 768 199 768 179.5 904.5 c 128,-1,59
 160 1041 160 1041 160 1194 c 0,60,61
 160 1203 160 1203 161 1215.5 c 128,-1,62
 162 1228 162 1228 162 1244 c 0,63,64
 164 1261 164 1261 164.5 1277.5 c 128,-1,65
 165 1294 165 1294 165 1309 c 0,0,1
576 817 m 1,66,67
 578 724 578 724 601.5 643.5 c 128,-1,68
 625 563 625 563 670 496 c 0,69,70
 715 428 715 428 774 377 c 128,-1,71
 833 326 833 326 904 292 c 0,72,73
 1047 222 1047 222 1207 222 c 0,74,75
 1409 222 1409 222 1584 385 c 0,76,77
 1760 547 1760 547 1760 858 c 0,78,79
 1760 1187 1760 1187 1590 1345 c 0,80,81
 1420 1502 1420 1502 1182 1502 c 0,82,83
 988 1502 988 1502 851 1420 c 0,84,85
 716 1338 716 1338 646 1184 c 0,86,87
 576 1028 576 1028 576 817 c 1,66,67
EndSplineSet
EndChar
StartChar: seven
Encoding: 55 55 24
Width: 2281
GlyphClass: 2
Flags: W
Fore
560 0 m 1,0,1
 605 270 605 270 682 529 c 128,-1,2
 759 788 759 788 866 1033 c 0,3,4
 1082 1527 1082 1527 1312 1878 c 0,5,6
 1428 2053 1428 2053 1535 2200 c 128,-1,7
 1642 2347 1642 2347 1740 2463 c 1,8,-1
 160 2463 l 1,9,-1
 160 2815 l 1,10,-1
 2144 2815 l 1,11,-1
 2144 2499 l 1,12,13
 2029 2354 2029 2354 1935.5 2231 c 128,-1,14
 1842 2108 1842 2108 1771 2009 c 0,15,16
 1628 1808 1628 1808 1481 1534 c 0,17,18
 1334 1257 1334 1257 1199 874 c 0,19,20
 1132 682 1132 682 1070.5 463.5 c 128,-1,21
 1009 245 1009 245 955 0 c 1,22,-1
 560 0 l 1,0,1
EndSplineSet
EndChar
StartChar: eight
Encoding: 56 56 25
Width: 2281
GlyphClass: 2
Flags: W
Fore
2016 2132 m 0,0,1
 2016 2037 2016 2037 2001.5 1958.5 c 128,-1,2
 1987 1880 1987 1880 1956 1821 c 1,3,4
 1896 1699 1896 1699 1828 1645 c 0,5,6
 1794 1618 1794 1618 1747 1587 c 128,-1,7
 1700 1556 1700 1556 1641 1524 c 1,8,9
 1898 1416 1898 1416 2005 1223 c 0,10,11
 2112 1031 2112 1031 2112 827 c 0,12,13
 2112 729 2112 729 2093.5 637.5 c 128,-1,14
 2075 546 2075 546 2037 462 c 0,15,16
 2000 377 2000 377 1947 303 c 128,-1,17
 1894 229 1894 229 1827 165 c 1,18,19
 1691 39 1691 39 1517 -27 c 1,20,21
 1342 -96 1342 -96 1144 -96 c 0,22,23
 1053 -96 1053 -96 961.5 -81.5 c 128,-1,24
 870 -67 870 -67 778 -38 c 0,25,26
 687 -10 687 -10 602.5 32 c 128,-1,27
 518 74 518 74 441 127 c 1,28,29
 351 203 351 203 292.5 285.5 c 128,-1,30
 234 368 234 368 210 455 c 0,31,32
 186 544 186 544 173 633.5 c 128,-1,33
 160 723 160 723 160 813 c 0,34,35
 160 1318 160 1318 624 1524 c 1,36,37
 256 1672 256 1672 256 2086 c 0,38,39
 256 2260 256 2260 336 2442 c 128,-1,40
 416 2624 416 2624 613 2750 c 0,41,42
 812 2879 812 2879 1129 2879 c 0,43,44
 1427 2879 1427 2879 1629 2768 c 0,45,46
 1830 2657 1830 2657 1923 2487 c 0,47,48
 2016 2316 2016 2316 2016 2132 c 0,0,1
1138 1343 m 0,49,50
 1042 1343 1042 1343 960.5 1323.5 c 128,-1,51
 879 1304 879 1304 812 1266 c 0,52,53
 745 1227 745 1227 694.5 1176.5 c 128,-1,54
 644 1126 644 1126 611 1065 c 0,55,56
 578 1002 578 1002 561 936 c 128,-1,57
 544 870 544 870 544 801 c 0,58,59
 544 664 544 664 598 534 c 0,60,61
 652 403 652 403 789 313 c 0,62,63
 927 222 927 222 1154 222 c 0,64,65
 1728 222 1728 222 1728 777 c 0,66,67
 1728 1053 1728 1053 1562 1198 c 0,68,69
 1479 1270 1479 1270 1373 1306.5 c 128,-1,70
 1267 1343 1267 1343 1138 1343 c 0,49,50
1115 1663 m 0,71,72
 1350 1663 1350 1663 1491 1794 c 0,73,74
 1562 1860 1562 1860 1597 1945 c 128,-1,75
 1632 2030 1632 2030 1632 2132 c 0,76,77
 1632 2217 1632 2217 1601 2291 c 128,-1,78
 1570 2365 1570 2365 1508 2430 c 0,79,80
 1447 2494 1447 2494 1343 2526.5 c 128,-1,81
 1239 2559 1239 2559 1095 2559 c 0,82,83
 965 2559 965 2559 871 2524.5 c 128,-1,84
 777 2490 777 2490 721 2421 c 0,85,86
 608 2282 608 2282 608 2107 c 0,87,88
 608 1910 608 1910 757 1787 c 0,89,90
 832 1725 832 1725 922 1694 c 128,-1,91
 1012 1663 1012 1663 1115 1663 c 0,71,72
EndSplineSet
EndChar
StartChar: nine
Encoding: 57 57 26
Width: 2281
GlyphClass: 2
Flags: W
Fore
160 1817 m 0,0,1
 160 1928 160 1928 174 2030.5 c 128,-1,2
 188 2133 188 2133 215 2227 c 0,3,4
 271 2418 271 2418 385 2560 c 1,5,6
 500 2706 500 2706 673 2787 c 0,7,8
 849 2870 849 2870 1082 2879 c 1,9,10
 1472 2879 1472 2879 1702 2689 c 0,11,12
 1933 2499 1933 2499 2022 2218 c 0,13,14
 2112 1936 2112 1936 2112 1631 c 0,15,16
 2112 1404 2112 1404 2093 1209.5 c 128,-1,17
 2074 1015 2074 1015 2036 854 c 0,18,19
 1999 692 1999 692 1946.5 559.5 c 128,-1,20
 1894 427 1894 427 1829 326 c 0,21,22
 1764 226 1764 226 1689.5 150 c 128,-1,23
 1615 74 1615 74 1532 25 c 0,24,25
 1365 -75 1365 -75 1171 -96 c 1,26,27
 1155 -96 1155 -96 1130.5 -96 c 128,-1,28
 1106 -96 1106 -96 1074 -96 c 0,29,30
 842 -96 842 -96 643 -13 c 0,31,32
 544 27 544 27 463.5 91.5 c 128,-1,33
 383 156 383 156 322 242 c 0,34,35
 262 329 262 329 229 434.5 c 128,-1,36
 196 540 196 540 193 664 c 1,37,-1
 560 664 l 1,38,39
 589 434 589 434 717.5 315 c 128,-1,40
 846 196 846 196 1074 190 c 1,41,42
 1253 190 1253 190 1396 304 c 0,43,44
 1468 361 1468 361 1529 450.5 c 128,-1,45
 1590 540 1590 540 1639 662 c 1,46,47
 1690 783 1690 783 1725.5 938 c 128,-1,48
 1761 1093 1761 1093 1780 1279 c 1,49,50
 1711 1195 1711 1195 1629.5 1130.5 c 128,-1,51
 1548 1066 1548 1066 1455 1022 c 0,52,53
 1269 933 1269 933 1066 927 c 1,54,55
 833 931 833 931 626 1040 c 0,56,57
 419 1148 419 1148 292 1348 c 0,58,59
 229 1449 229 1449 195.5 1566.5 c 128,-1,60
 162 1684 162 1684 160 1817 c 0,0,1
544 1952 m 0,61,62
 544 1283 544 1283 1099 1270 c 1,63,64
 1105 1273 1105 1273 1109 1275 c 128,-1,65
 1113 1277 1113 1277 1116 1277 c 0,66,67
 1119 1278 1119 1278 1122 1278 c 0,68,69
 1124 1279 1124 1279 1125 1279 c 0,70,71
 1215 1279 1215 1279 1295 1298.5 c 128,-1,72
 1375 1318 1375 1318 1443 1357 c 0,73,74
 1581 1435 1581 1435 1654 1577 c 0,75,76
 1728 1721 1728 1721 1728 1910 c 0,77,78
 1728 1924 1728 1924 1725.5 1954 c 128,-1,79
 1723 1984 1723 1984 1718 2030 c 0,80,81
 1701 2162 1701 2162 1651 2261.5 c 128,-1,82
 1601 2361 1601 2361 1519 2426 c 0,83,84
 1354 2559 1354 2559 1129 2559 c 1,85,86
 863 2546 863 2546 703 2378 c 0,87,88
 624 2294 624 2294 584 2187 c 128,-1,89
 544 2080 544 2080 544 1952 c 0,61,62
EndSplineSet
EndChar
StartChar: colon
Encoding: 58 58 27
Width: 1135
GlyphClass: 2
Flags: W
Fore
768 415 m 1,0,-1
 768 0 l 1,1,-1
 352 0 l 1,2,-1
 352 415 l 1,3,-1
 768 415 l 1,0,-1
768 2143 m 1,4,-1
 768 1695 l 1,5,-1
 352 1695 l 1,6,-1
 352 2143 l 1,7,-1
 768 2143 l 1,4,-1
EndSplineSet
EndChar
StartChar: semicolon
Encoding: 59 59 28
Width: 1135
GlyphClass: 2
Flags: W
Fore
352 0 m 1,0,-1
 352 415 l 1,1,-1
 768 415 l 1,2,-1
 768 23 l 2,3,4
 768 -329 768 -329 629 -457 c 0,5,6
 491 -585 491 -585 352 -606 c 1,7,-1
 352 -418 l 1,8,9
 562 -397 562 -397 562 0 c 1,10,-1
 352 0 l 1,0,-1
768 1695 m 1,11,-1
 352 1695 l 1,12,-1
 352 2143 l 1,13,-1
 768 2143 l 1,14,-1
 768 1695 l 1,11,-1
EndSplineSet
EndChar
StartChar: less
Encoding: 60 60 29
Width: 2392
GlyphClass: 2
Flags: W
Fore
193 889 m 1,0,-1
 193 1164 l 1,1,-1
 2177 2035 l 1,2,-1
 2177 1760 l 1,3,-1
 542 1027 l 1,4,-1
 2177 328 l 1,5,-1
 2177 54 l 1,6,-1
 193 889 l 1,0,-1
EndSplineSet
EndChar
StartChar: equal
Encoding: 61 61 30
Width: 2392
GlyphClass: 2
Flags: W
Fore
2211 1570 m 1,0,-1
 2208 1279 l 1,1,-1
 160 1279 l 1,2,-1
 157 1570 l 1,3,-1
 2211 1570 l 1,0,-1
2211 770 m 1,4,-1
 2211 477 l 1,5,-1
 157 477 l 1,6,-1
 157 770 l 1,7,-1
 2211 770 l 1,4,-1
EndSplineSet
EndChar
StartChar: greater
Encoding: 62 62 31
Width: 2392
GlyphClass: 2
Flags: W
Fore
2177 889 m 1,0,-1
 193 54 l 1,1,-1
 193 328 l 1,2,-1
 1828 1027 l 1,3,-1
 193 1760 l 1,4,-1
 193 2035 l 1,5,-1
 2177 1164 l 1,6,-1
 2177 889 l 1,0,-1
EndSplineSet
EndChar
StartChar: question
Encoding: 63 63 32
Width: 2281
GlyphClass: 2
Flags: W
Fore
896 0 m 1,0,-1
 896 415 l 1,1,-1
 1280 415 l 1,2,-1
 1280 0 l 1,3,-1
 896 0 l 1,0,-1
224 2009 m 1,4,5
 224 2150 224 2150 250 2275.5 c 128,-1,6
 276 2401 276 2401 327 2510 c 128,-1,7
 378 2619 378 2619 457 2704 c 128,-1,8
 536 2789 536 2789 641 2850 c 0,9,10
 852 2975 852 2975 1158 2975 c 0,11,12
 1260 2975 1260 2975 1350 2958.5 c 128,-1,13
 1440 2942 1440 2942 1517 2911 c 0,14,15
 1595 2878 1595 2878 1659.5 2833.5 c 128,-1,16
 1724 2789 1724 2789 1776 2734 c 0,17,18
 1880 2622 1880 2622 1932 2480 c 0,19,20
 1957 2409 1957 2409 1970.5 2335 c 128,-1,21
 1984 2261 1984 2261 1984 2186 c 0,22,23
 1984 2120 1984 2120 1974 2060.5 c 128,-1,24
 1964 2001 1964 2001 1944 1948 c 0,25,26
 1925 1894 1925 1894 1899.5 1846 c 128,-1,27
 1874 1798 1874 1798 1843 1758 c 0,28,29
 1813 1717 1813 1717 1770 1666.5 c 128,-1,30
 1727 1616 1727 1616 1672 1558 c 0,31,32
 1617 1499 1617 1499 1578 1456 c 128,-1,33
 1539 1413 1539 1413 1517 1388 c 1,34,35
 1459 1327 1459 1327 1415 1272 c 128,-1,36
 1371 1217 1371 1217 1344 1169 c 0,37,38
 1317 1120 1317 1120 1299.5 1073 c 128,-1,39
 1282 1026 1282 1026 1275 981 c 0,40,41
 1260 890 1260 890 1260 741 c 1,42,-1
 904 741 l 1,43,44
 904 1211 904 1211 1098 1429 c 1,45,-1
 1459 1799 l 1,46,47
 1600 1938 1600 1938 1600 2177 c 0,48,49
 1600 2242 1600 2242 1587.5 2302 c 128,-1,50
 1575 2362 1575 2362 1550 2415 c 0,51,52
 1525 2469 1525 2469 1487.5 2513 c 128,-1,53
 1450 2557 1450 2557 1398 2589 c 1,54,55
 1296 2655 1296 2655 1144 2655 c 0,56,57
 853 2655 853 2655 717 2494 c 0,58,59
 582 2334 582 2334 582 2009 c 1,60,-1
 224 2009 l 1,4,5
EndSplineSet
EndChar
StartChar: at
Encoding: 64 64 33
Width: 3183
GlyphClass: 2
Flags: W
Fore
1522 413 m 1,0,-1
 356 413 l 1,1,2
 320 461 320 461 288.5 509.5 c 128,-1,3
 257 558 257 558 233 613 c 0,4,5
 190 711 190 711 166.5 815 c 128,-1,6
 143 919 143 919 143 1027 c 0,7,8
 143 1219 143 1219 214.5 1394 c 128,-1,9
 286 1569 286 1569 413.5 1712.5 c 128,-1,10
 541 1856 541 1856 717 1962.5 c 128,-1,11
 893 2069 893 2069 1102 2124 c 1,12,13
 1129 2145 1129 2145 1144 2171 c 128,-1,14
 1159 2197 1159 2197 1159 2226 c 128,-1,15
 1159 2255 1159 2255 1144 2281.5 c 128,-1,16
 1129 2308 1129 2308 1103 2331 c 0,17,18
 1048 2378 1048 2378 1015.5 2437.5 c 128,-1,19
 983 2497 983 2497 983 2562 c 0,20,21
 983 2637 983 2637 1025.5 2703.5 c 128,-1,22
 1068 2770 1068 2770 1141 2819.5 c 128,-1,23
 1214 2869 1214 2869 1312 2897.5 c 128,-1,24
 1410 2926 1410 2926 1522 2926 c 0,25,26
 1633 2926 1633 2926 1731 2897.5 c 128,-1,27
 1829 2869 1829 2869 1902.5 2819.5 c 128,-1,28
 1976 2770 1976 2770 2018 2703.5 c 128,-1,29
 2060 2637 2060 2637 2060 2562 c 0,30,31
 2060 2497 2060 2497 2028 2437.5 c 128,-1,32
 1996 2378 1996 2378 1940 2331 c 0,33,34
 1914 2308 1914 2308 1899 2281.5 c 128,-1,35
 1884 2255 1884 2255 1884 2226 c 128,-1,36
 1884 2197 1884 2197 1899 2171 c 128,-1,37
 1914 2145 1914 2145 1942 2124 c 1,38,39
 2150 2069 2150 2069 2326 1962.5 c 128,-1,40
 2502 1856 2502 1856 2629.5 1712.5 c 128,-1,41
 2757 1569 2757 1569 2829 1394 c 128,-1,42
 2901 1219 2901 1219 2901 1027 c 0,43,44
 2901 919 2901 919 2877.5 815 c 128,-1,45
 2854 711 2854 711 2810 613 c 0,46,47
 2786 558 2786 558 2754.5 509.5 c 128,-1,48
 2723 461 2723 461 2687 413 c 1,49,-1
 1522 413 l 1,0,-1
2016 1894 m 1,50,51
 1995 1905 1995 1905 1976 1911 c 0,52,53
 1911 1933 1911 1933 1857 1966.5 c 128,-1,54
 1803 2000 1803 2000 1764.5 2042 c 128,-1,55
 1726 2084 1726 2084 1704.5 2133 c 128,-1,56
 1683 2182 1683 2182 1683 2234 c 0,57,58
 1683 2293 1683 2293 1710 2346.5 c 128,-1,59
 1737 2400 1737 2400 1787 2444 c 1,60,61
 1821 2466 1821 2466 1839.5 2494 c 128,-1,62
 1858 2522 1858 2522 1858 2553 c 0,63,64
 1858 2592 1858 2592 1831.5 2626 c 128,-1,65
 1805 2660 1805 2660 1759.5 2685.5 c 128,-1,66
 1714 2711 1714 2711 1652.5 2725.5 c 128,-1,67
 1591 2740 1591 2740 1522 2740 c 0,68,69
 1452 2740 1452 2740 1391 2725.5 c 128,-1,70
 1330 2711 1330 2711 1284 2685.5 c 128,-1,71
 1238 2660 1238 2660 1211.5 2626 c 128,-1,72
 1185 2592 1185 2592 1185 2553 c 0,73,74
 1185 2522 1185 2522 1203.5 2494 c 128,-1,75
 1222 2466 1222 2466 1256 2444 c 1,76,77
 1307 2400 1307 2400 1333.5 2346.5 c 128,-1,78
 1360 2293 1360 2293 1360 2234 c 0,79,80
 1360 2182 1360 2182 1338.5 2133 c 128,-1,81
 1317 2084 1317 2084 1278.5 2042 c 128,-1,82
 1240 2000 1240 2000 1186 1966.5 c 128,-1,83
 1132 1933 1132 1933 1067 1911 c 0,84,85
 909 1855 909 1855 777.5 1764.5 c 128,-1,86
 646 1674 646 1674 551 1558 c 128,-1,87
 456 1442 456 1442 403.5 1304.5 c 128,-1,88
 351 1167 351 1167 351 1017 c 0,89,90
 351 910 351 910 380 810.5 c 128,-1,91
 409 711 409 711 459 620 c 1,92,-1
 1522 620 l 1,93,-1
 2584 620 l 1,94,95
 2635 711 2635 711 2663.5 810.5 c 128,-1,96
 2692 910 2692 910 2692 1017 c 0,97,98
 2692 1128 2692 1128 2662.5 1232.5 c 128,-1,99
 2633 1337 2633 1337 2578.5 1432 c 128,-1,100
 2524 1527 2524 1527 2445.5 1610 c 128,-1,101
 2367 1693 2367 1693 2269 1760 c 1,102,-1
 1792 1090 l 2,103,104
 1776 1067 1776 1067 1752.5 1052.5 c 128,-1,105
 1729 1038 1729 1038 1703 1033.5 c 128,-1,106
 1677 1029 1677 1029 1650 1034.5 c 128,-1,107
 1623 1040 1623 1040 1599 1056 c 1,108,-1
 1599 1057 l 1,109,110
 1576 1073 1576 1073 1561.5 1096.5 c 128,-1,111
 1547 1120 1547 1120 1542.5 1146 c 128,-1,112
 1538 1172 1538 1172 1544 1199 c 128,-1,113
 1550 1226 1550 1226 1566 1249 c 2,114,-1
 2016 1894 l 1,50,51
292 277 m 1,115,-1
 2752 277 l 1,116,-1
 2752 0 l 1,117,-1
 292 0 l 1,118,-1
 292 277 l 1,115,-1
EndSplineSet
EndChar
StartChar: C
Encoding: 67 67 34
Width: 3736
GlyphClass: 2
Flags: W
Fore
884 1660 m 1,0,-1
 511 1964 l 1,1,-1
 1000 620 l 1,2,-1
 2606 620 l 1,3,-1
 3096 1964 l 1,4,-1
 2725 1660 l 1,5,6
 2668 1618 2668 1618 2601.5 1593.5 c 128,-1,7
 2535 1569 2535 1569 2462 1569 c 0,8,9
 2401 1569 2401 1569 2345.5 1586 c 128,-1,10
 2290 1603 2290 1603 2242.5 1633.5 c 128,-1,11
 2195 1664 2195 1664 2155.5 1706.5 c 128,-1,12
 2116 1749 2116 1749 2089 1800 c 1,13,-1
 1803 2399 l 1,14,-1
 1521 1801 l 1,15,16
 1495 1749 1495 1749 1456.5 1706.5 c 128,-1,17
 1418 1664 1418 1664 1370 1633.5 c 128,-1,18
 1322 1603 1322 1603 1266.5 1586 c 128,-1,19
 1211 1569 1211 1569 1151 1569 c 0,20,21
 1078 1569 1078 1569 1011 1593.5 c 128,-1,22
 944 1618 944 1618 884 1660 c 1,0,-1
851 277 m 1,23,-1
 2756 277 l 1,24,-1
 2756 0 l 1,25,-1
 851 0 l 1,26,-1
 851 277 l 1,23,-1
1798 1570 m 0,27,28
 1831 1570 1831 1570 1861 1543 c 128,-1,29
 1891 1516 1891 1516 1913 1469.5 c 128,-1,30
 1935 1423 1935 1423 1948 1360.5 c 128,-1,31
 1961 1298 1961 1298 1961 1227 c 128,-1,32
 1961 1156 1961 1156 1948 1093.5 c 128,-1,33
 1935 1031 1935 1031 1913 984.5 c 128,-1,34
 1891 938 1891 938 1861 911 c 128,-1,35
 1831 884 1831 884 1798 884 c 0,36,37
 1764 884 1764 884 1734.5 911 c 128,-1,38
 1705 938 1705 938 1682.5 984.5 c 128,-1,39
 1660 1031 1660 1031 1647 1093.5 c 128,-1,40
 1634 1156 1634 1156 1634 1227 c 128,-1,41
 1634 1298 1634 1298 1647 1360.5 c 128,-1,42
 1660 1423 1660 1423 1682.5 1469.5 c 128,-1,43
 1705 1516 1705 1516 1734.5 1543 c 128,-1,44
 1764 1570 1764 1570 1798 1570 c 0,27,28
2291 1855 m 1,45,46
 2321 1815 2321 1815 2365.5 1791.5 c 128,-1,47
 2410 1768 2410 1768 2462 1768 c 0,48,49
 2488 1768 2488 1768 2512.5 1774.5 c 128,-1,50
 2537 1781 2537 1781 2560 1791 c 1,51,-1
 2511 2133 l 1,52,-1
 2291 1855 l 1,45,46
2750 1945 m 1,53,-1
 3296 2403 l 1,54,55
 3345 2448 3345 2448 3384 2468 c 128,-1,56
 3423 2488 3423 2488 3442 2474 c 0,57,58
 3460 2462 3460 2462 3457.5 2422.5 c 128,-1,59
 3455 2383 3455 2383 3439 2325 c 1,60,-1
 2753 413 l 1,61,-1
 853 413 l 1,62,-1
 167 2323 l 1,63,64
 148 2383 148 2383 145 2422.5 c 128,-1,65
 142 2462 142 2462 159 2474 c 0,66,67
 178 2488 178 2488 217 2468.5 c 128,-1,68
 256 2449 256 2449 307 2404 c 1,69,-1
 860 1942 l 1,70,-1
 929 2450 l 1,71,72
 932 2494 932 2494 944 2523.5 c 128,-1,73
 956 2553 956 2553 977 2559 c 128,-1,74
 998 2565 998 2565 1024.5 2546.5 c 128,-1,75
 1051 2528 1051 2528 1078 2490 c 1,76,-1
 1420 2055 l 1,77,-1
 1732 2725 l 1,78,79
 1749 2760 1749 2760 1767 2779.5 c 128,-1,80
 1785 2799 1785 2799 1804 2799 c 0,81,82
 1824 2799 1824 2799 1842 2779 c 128,-1,83
 1860 2759 1860 2759 1877 2721 c 1,84,-1
 2191 2059 l 1,85,-1
 2528 2490 l 1,86,87
 2556 2528 2556 2528 2582 2546.5 c 128,-1,88
 2608 2565 2608 2565 2629 2559 c 128,-1,89
 2650 2553 2650 2553 2662.5 2523.5 c 128,-1,90
 2675 2494 2675 2494 2678 2450 c 1,91,-1
 2750 1945 l 1,53,-1
1045 1793 m 1,92,93
 1070 1782 1070 1782 1096.5 1775 c 128,-1,94
 1123 1768 1123 1768 1151 1768 c 0,95,96
 1201 1768 1201 1768 1244 1790 c 128,-1,97
 1287 1812 1287 1812 1318 1848 c 1,98,-1
 1095 2133 l 1,99,-1
 1045 1793 l 1,92,93
EndSplineSet
EndChar
StartChar: E
Encoding: 69 69 35
Width: 3641
GlyphClass: 2
Flags: W
Fore
803 277 m 1,0,-1
 2708 277 l 1,1,-1
 2708 0 l 1,2,-1
 803 0 l 1,3,-1
 803 277 l 1,0,-1
1859 2736 m 1,4,-1
 1653 2736 l 1,5,-1
 1653 2939 l 1,6,-1
 1554 2939 l 2,7,8
 1532 2939 1532 2939 1513.5 2947 c 128,-1,9
 1495 2955 1495 2955 1480.5 2969 c 128,-1,10
 1466 2983 1466 2983 1458 3002 c 128,-1,11
 1450 3021 1450 3021 1450 3043 c 0,12,13
 1450 3064 1450 3064 1458 3083 c 128,-1,14
 1466 3102 1466 3102 1480.5 3116 c 128,-1,15
 1495 3130 1495 3130 1513.5 3138 c 128,-1,16
 1532 3146 1532 3146 1554 3146 c 2,17,-1
 1653 3146 l 1,18,-1
 1653 3246 l 2,19,20
 1653 3268 1653 3268 1661 3286.5 c 128,-1,21
 1669 3305 1669 3305 1683 3319 c 128,-1,22
 1697 3333 1697 3333 1715.5 3341 c 128,-1,23
 1734 3349 1734 3349 1756 3349 c 1,24,-1
 1756 3349 l 1,25,26
 1777 3349 1777 3349 1796 3341 c 128,-1,27
 1815 3333 1815 3333 1829 3319 c 128,-1,28
 1843 3305 1843 3305 1851 3286.5 c 128,-1,29
 1859 3268 1859 3268 1859 3246 c 2,30,-1
 1859 3146 l 1,31,-1
 1961 3146 l 2,32,33
 1982 3146 1982 3146 2001 3138 c 128,-1,34
 2020 3130 2020 3130 2034 3116 c 128,-1,35
 2048 3102 2048 3102 2056.5 3083 c 128,-1,36
 2065 3064 2065 3064 2065 3043 c 0,37,38
 2065 3021 2065 3021 2056.5 3002 c 128,-1,39
 2048 2983 2048 2983 2034.5 2969 c 128,-1,40
 2021 2955 2021 2955 2002 2947 c 128,-1,41
 1983 2939 1983 2939 1961 2939 c 2,42,-1
 1859 2939 l 1,43,-1
 1859 2736 l 1,4,-1
3098 1622 m 1,44,45
 3115 1667 3115 1667 3126.5 1720 c 128,-1,46
 3138 1773 3138 1773 3138 1829 c 0,47,48
 3138 1942 3138 1942 3088.5 2042 c 128,-1,49
 3039 2142 3039 2142 2953.5 2216 c 128,-1,50
 2868 2290 2868 2290 2753.5 2333 c 128,-1,51
 2639 2376 2639 2376 2509 2376 c 128,-1,52
 2379 2376 2379 2376 2264.5 2333 c 128,-1,53
 2150 2290 2150 2290 2064.5 2216 c 128,-1,54
 1979 2142 1979 2142 1929.5 2042 c 128,-1,55
 1880 1942 1880 1942 1880 1829 c 128,-1,56
 1880 1716 1880 1716 1929.5 1616.5 c 128,-1,57
 1979 1517 1979 1517 2064 1442.5 c 128,-1,58
 2149 1368 2149 1368 2263 1325 c 128,-1,59
 2377 1282 2377 1282 2506 1283 c 0,60,61
 2530 1283 2530 1283 2551 1275 c 128,-1,62
 2572 1267 2572 1267 2588 1253 c 128,-1,63
 2604 1239 2604 1239 2613 1220.5 c 128,-1,64
 2622 1202 2622 1202 2622 1180 c 1,65,-1
 2622 1180 l 1,66,67
 2622 1159 2622 1159 2613 1140 c 128,-1,68
 2604 1121 2604 1121 2588 1107 c 128,-1,69
 2572 1093 2572 1093 2551 1084.5 c 128,-1,70
 2530 1076 2530 1076 2506 1076 c 0,71,72
 2387 1076 2387 1076 2276.5 1103.5 c 128,-1,73
 2166 1131 2166 1131 2069 1180.5 c 128,-1,74
 1972 1230 1972 1230 1892.5 1300 c 128,-1,75
 1813 1370 1813 1370 1756 1455 c 1,76,77
 1698 1370 1698 1370 1618 1300 c 128,-1,78
 1538 1230 1538 1230 1441.5 1180.5 c 128,-1,79
 1345 1131 1345 1131 1234.5 1103.5 c 128,-1,80
 1124 1076 1124 1076 1005 1076 c 0,81,82
 982 1076 982 1076 961 1084.5 c 128,-1,83
 940 1093 940 1093 924 1107 c 128,-1,84
 908 1121 908 1121 898.5 1140 c 128,-1,85
 889 1159 889 1159 889 1180 c 1,86,-1
 889 1180 l 1,87,88
 889 1202 889 1202 898.5 1220.5 c 128,-1,89
 908 1239 908 1239 924 1253 c 128,-1,90
 940 1267 940 1267 961 1275 c 128,-1,91
 982 1283 982 1283 1005 1283 c 0,92,93
 1134 1282 1134 1282 1248 1325 c 128,-1,94
 1362 1368 1362 1368 1447 1442.5 c 128,-1,95
 1532 1517 1532 1517 1581.5 1616.5 c 128,-1,96
 1631 1716 1631 1716 1631 1829 c 128,-1,97
 1631 1942 1631 1942 1581.5 2042 c 128,-1,98
 1532 2142 1532 2142 1446.5 2216 c 128,-1,99
 1361 2290 1361 2290 1246.5 2333 c 128,-1,100
 1132 2376 1132 2376 1002 2376 c 128,-1,101
 872 2376 872 2376 757.5 2333 c 128,-1,102
 643 2290 643 2290 557 2216 c 128,-1,103
 471 2142 471 2142 421.5 2042 c 128,-1,104
 372 1942 372 1942 372 1829 c 0,105,106
 372 1773 372 1773 385 1719.5 c 128,-1,107
 398 1666 398 1666 422 1618 c 1,108,-1
 938 620 l 1,109,-1
 2573 620 l 1,110,-1
 3098 1622 l 1,44,45
1756 2204 m 1,111,112
 1813 2288 1813 2288 1894 2358 c 128,-1,113
 1975 2428 1975 2428 2075 2478 c 1,114,115
 2003 2502 2003 2502 1922 2514 c 128,-1,116
 1841 2526 1841 2526 1756 2526 c 0,117,118
 1673 2526 1673 2526 1593.5 2514.5 c 128,-1,119
 1514 2503 1514 2503 1441 2480 c 1,120,121
 1538 2429 1538 2429 1617.5 2358.5 c 128,-1,122
 1697 2288 1697 2288 1756 2204 c 1,111,112
3326 1569 m 1,123,-1
 2708 413 l 1,124,-1
 803 413 l 1,125,-1
 185 1570 l 1,126,127
 162 1631 162 1631 149 1696 c 128,-1,128
 136 1761 136 1761 136 1829 c 0,129,130
 136 1907 136 1907 153.5 1981 c 128,-1,131
 171 2055 171 2055 204 2122.5 c 128,-1,132
 237 2190 237 2190 284 2250 c 128,-1,133
 331 2310 331 2310 390 2361.5 c 128,-1,134
 449 2413 449 2413 518 2453.5 c 128,-1,135
 587 2494 587 2494 665 2523 c 128,-1,136
 743 2552 743 2552 828 2567.5 c 128,-1,137
 913 2583 913 2583 1002 2583 c 0,138,139
 1028 2583 1028 2583 1054 2581 c 128,-1,140
 1080 2579 1080 2579 1106 2576 c 1,141,142
 1248 2650 1248 2650 1412.5 2691.5 c 128,-1,143
 1577 2733 1577 2733 1756 2733 c 0,144,145
 1933 2733 1933 2733 2098 2691.5 c 128,-1,146
 2263 2650 2263 2650 2406 2576 c 1,147,148
 2431 2579 2431 2579 2457 2581 c 128,-1,149
 2483 2583 2483 2583 2509 2583 c 0,150,151
 2599 2583 2599 2583 2683.5 2567.5 c 128,-1,152
 2768 2552 2768 2552 2845.5 2523 c 128,-1,153
 2923 2494 2923 2494 2992.5 2453.5 c 128,-1,154
 3062 2413 3062 2413 3121 2361.5 c 128,-1,155
 3180 2310 3180 2310 3227 2250 c 128,-1,156
 3274 2190 3274 2190 3307 2122.5 c 128,-1,157
 3340 2055 3340 2055 3357.5 1981 c 128,-1,158
 3375 1907 3375 1907 3375 1829 c 0,159,160
 3375 1761 3375 1761 3361.5 1696 c 128,-1,161
 3348 1631 3348 1631 3326 1569 c 1,123,-1
EndSplineSet
EndChar
StartChar: L
Encoding: 76 76 36
Width: 3183
GlyphClass: 2
Flags: W
Fore
1522 413 m 1,0,-1
 356 413 l 1,1,2
 320 461 320 461 288.5 509.5 c 128,-1,3
 257 558 257 558 233 613 c 0,4,5
 190 711 190 711 166.5 815 c 128,-1,6
 143 919 143 919 143 1027 c 0,7,8
 143 1219 143 1219 214.5 1394 c 128,-1,9
 286 1569 286 1569 413.5 1712.5 c 128,-1,10
 541 1856 541 1856 717 1962.5 c 128,-1,11
 893 2069 893 2069 1102 2124 c 1,12,13
 1129 2145 1129 2145 1144 2171 c 128,-1,14
 1159 2197 1159 2197 1159 2226 c 128,-1,15
 1159 2255 1159 2255 1144 2281.5 c 128,-1,16
 1129 2308 1129 2308 1103 2331 c 0,17,18
 1048 2378 1048 2378 1015.5 2437.5 c 128,-1,19
 983 2497 983 2497 983 2562 c 0,20,21
 983 2637 983 2637 1025.5 2703.5 c 128,-1,22
 1068 2770 1068 2770 1141 2819.5 c 128,-1,23
 1214 2869 1214 2869 1312 2897.5 c 128,-1,24
 1410 2926 1410 2926 1522 2926 c 0,25,26
 1633 2926 1633 2926 1731 2897.5 c 128,-1,27
 1829 2869 1829 2869 1902.5 2819.5 c 128,-1,28
 1976 2770 1976 2770 2018 2703.5 c 128,-1,29
 2060 2637 2060 2637 2060 2562 c 0,30,31
 2060 2497 2060 2497 2028 2437.5 c 128,-1,32
 1996 2378 1996 2378 1940 2331 c 0,33,34
 1914 2308 1914 2308 1899 2281.5 c 128,-1,35
 1884 2255 1884 2255 1884 2226 c 128,-1,36
 1884 2197 1884 2197 1899 2171 c 128,-1,37
 1914 2145 1914 2145 1942 2124 c 1,38,39
 2150 2069 2150 2069 2326 1962.5 c 128,-1,40
 2502 1856 2502 1856 2629.5 1712.5 c 128,-1,41
 2757 1569 2757 1569 2829 1394 c 128,-1,42
 2901 1219 2901 1219 2901 1027 c 0,43,44
 2901 919 2901 919 2877.5 815 c 128,-1,45
 2854 711 2854 711 2810 613 c 0,46,47
 2786 558 2786 558 2754.5 509.5 c 128,-1,48
 2723 461 2723 461 2687 413 c 1,49,-1
 1522 413 l 1,0,-1
2016 1894 m 1,50,51
 1995 1905 1995 1905 1976 1911 c 0,52,53
 1911 1933 1911 1933 1857 1966.5 c 128,-1,54
 1803 2000 1803 2000 1764.5 2042 c 128,-1,55
 1726 2084 1726 2084 1704.5 2133 c 128,-1,56
 1683 2182 1683 2182 1683 2234 c 0,57,58
 1683 2293 1683 2293 1710 2346.5 c 128,-1,59
 1737 2400 1737 2400 1787 2444 c 1,60,61
 1821 2466 1821 2466 1839.5 2494 c 128,-1,62
 1858 2522 1858 2522 1858 2553 c 0,63,64
 1858 2592 1858 2592 1831.5 2626 c 128,-1,65
 1805 2660 1805 2660 1759.5 2685.5 c 128,-1,66
 1714 2711 1714 2711 1652.5 2725.5 c 128,-1,67
 1591 2740 1591 2740 1522 2740 c 0,68,69
 1452 2740 1452 2740 1391 2725.5 c 128,-1,70
 1330 2711 1330 2711 1284 2685.5 c 128,-1,71
 1238 2660 1238 2660 1211.5 2626 c 128,-1,72
 1185 2592 1185 2592 1185 2553 c 0,73,74
 1185 2522 1185 2522 1203.5 2494 c 128,-1,75
 1222 2466 1222 2466 1256 2444 c 1,76,77
 1307 2400 1307 2400 1333.5 2346.5 c 128,-1,78
 1360 2293 1360 2293 1360 2234 c 0,79,80
 1360 2182 1360 2182 1338.5 2133 c 128,-1,81
 1317 2084 1317 2084 1278.5 2042 c 128,-1,82
 1240 2000 1240 2000 1186 1966.5 c 128,-1,83
 1132 1933 1132 1933 1067 1911 c 0,84,85
 909 1855 909 1855 777.5 1764.5 c 128,-1,86
 646 1674 646 1674 551 1558 c 128,-1,87
 456 1442 456 1442 403.5 1304.5 c 128,-1,88
 351 1167 351 1167 351 1017 c 0,89,90
 351 910 351 910 380 810.5 c 128,-1,91
 409 711 409 711 459 620 c 1,92,-1
 1522 620 l 1,93,-1
 2584 620 l 1,94,95
 2635 711 2635 711 2663.5 810.5 c 128,-1,96
 2692 910 2692 910 2692 1017 c 0,97,98
 2692 1128 2692 1128 2662.5 1232.5 c 128,-1,99
 2633 1337 2633 1337 2578.5 1432 c 128,-1,100
 2524 1527 2524 1527 2445.5 1610 c 128,-1,101
 2367 1693 2367 1693 2269 1760 c 1,102,-1
 1792 1090 l 2,103,104
 1776 1067 1776 1067 1752.5 1052.5 c 128,-1,105
 1729 1038 1729 1038 1703 1033.5 c 128,-1,106
 1677 1029 1677 1029 1650 1034.5 c 128,-1,107
 1623 1040 1623 1040 1599 1056 c 1,108,-1
 1599 1057 l 1,109,110
 1576 1073 1576 1073 1561.5 1096.5 c 128,-1,111
 1547 1120 1547 1120 1542.5 1146 c 128,-1,112
 1538 1172 1538 1172 1544 1199 c 128,-1,113
 1550 1226 1550 1226 1566 1249 c 2,114,-1
 2016 1894 l 1,50,51
292 277 m 1,115,-1
 2752 277 l 1,116,-1
 2752 0 l 1,117,-1
 292 0 l 1,118,-1
 292 277 l 1,115,-1
EndSplineSet
EndChar
StartChar: M
Encoding: 77 77 37
Width: 3641
GlyphClass: 2
Flags: W
Fore
1384 2826 m 1,0,1
 1366 2838 1366 2838 1352.5 2846.5 c 128,-1,2
 1339 2855 1339 2855 1327.5 2861.5 c 128,-1,3
 1316 2868 1316 2868 1305.5 2875 c 128,-1,4
 1295 2882 1295 2882 1282 2890 c 0,5,6
 1257 2907 1257 2907 1236 2924.5 c 128,-1,7
 1215 2942 1215 2942 1186 2969 c 1,8,9
 1154 2993 1154 2993 1146 2989.5 c 128,-1,10
 1138 2986 1138 2986 1143 2951 c 1,11,12
 1155 2907 1155 2907 1160.5 2874.5 c 128,-1,13
 1166 2842 1166 2842 1166.5 2818.5 c 128,-1,14
 1167 2795 1167 2795 1164 2778 c 128,-1,15
 1161 2761 1161 2761 1158 2747 c 1,16,17
 1147 2726 1147 2726 1138.5 2708 c 128,-1,18
 1130 2690 1130 2690 1119.5 2670.5 c 128,-1,19
 1109 2651 1109 2651 1092 2626.5 c 128,-1,20
 1075 2602 1075 2602 1047 2569 c 0,21,22
 1038 2558 1038 2558 1023.5 2543.5 c 128,-1,23
 1009 2529 1009 2529 993 2511.5 c 128,-1,24
 977 2494 977 2494 961 2473 c 128,-1,25
 945 2452 945 2452 932 2427 c 1,26,27
 894 2383 894 2383 865 2339.5 c 128,-1,28
 836 2296 836 2296 816 2255 c 0,29,30
 807 2235 807 2235 796.5 2216 c 128,-1,31
 786 2197 786 2197 775 2173 c 128,-1,32
 764 2149 764 2149 753 2117.5 c 128,-1,33
 742 2086 742 2086 731 2041 c 0,34,35
 729 2032 729 2032 717.5 2013 c 128,-1,36
 706 1994 706 1994 687 1969 c 128,-1,37
 668 1944 668 1944 643 1914.5 c 128,-1,38
 618 1885 618 1885 589 1855 c 1,39,40
 564 1831 564 1831 535.5 1802.5 c 128,-1,41
 507 1774 507 1774 477.5 1741.5 c 128,-1,42
 448 1709 448 1709 420 1671.5 c 128,-1,43
 392 1634 392 1634 369 1591 c 0,44,45
 356 1567 356 1567 346.5 1550.5 c 128,-1,46
 337 1534 337 1534 332 1520 c 128,-1,47
 327 1506 327 1506 327.5 1491 c 128,-1,48
 328 1476 328 1476 335 1455 c 0,49,50
 348 1415 348 1415 358.5 1393.5 c 128,-1,51
 369 1372 369 1372 383.5 1356.5 c 128,-1,52
 398 1341 398 1341 418 1326 c 128,-1,53
 438 1311 438 1311 470 1284 c 1,54,55
 491 1276 491 1276 510 1257 c 128,-1,56
 529 1238 529 1238 547.5 1219 c 128,-1,57
 566 1200 566 1200 585.5 1185 c 128,-1,58
 605 1170 605 1170 626 1170 c 0,59,60
 661 1170 661 1170 681.5 1170.5 c 128,-1,61
 702 1171 702 1171 716 1173.5 c 128,-1,62
 730 1176 730 1176 742.5 1181.5 c 128,-1,63
 755 1187 755 1187 774 1198 c 0,64,65
 814 1221 814 1221 845.5 1253 c 128,-1,66
 877 1285 877 1285 903 1323.5 c 128,-1,67
 929 1362 929 1362 951 1406 c 128,-1,68
 973 1450 973 1450 994 1498 c 1,69,70
 1013 1522 1013 1522 1030 1545 c 128,-1,71
 1047 1568 1047 1568 1070 1582.5 c 128,-1,72
 1093 1597 1093 1597 1125.5 1599 c 128,-1,73
 1158 1601 1158 1601 1207 1584 c 0,74,75
 1248 1568 1248 1568 1288 1565.5 c 128,-1,76
 1328 1563 1328 1563 1369 1563 c 0,77,78
 1453 1563 1453 1563 1526.5 1595 c 128,-1,79
 1600 1627 1600 1627 1654.5 1679.5 c 128,-1,80
 1709 1732 1709 1732 1740 1800.5 c 128,-1,81
 1771 1869 1771 1869 1768 1944 c 1,82,-1
 1762 2031 l 1,83,84
 1762 2052 1762 2052 1770 2071 c 128,-1,85
 1778 2090 1778 2090 1792 2104 c 128,-1,86
 1806 2118 1806 2118 1824.5 2126 c 128,-1,87
 1843 2134 1843 2134 1864 2134 c 2,88,-1
 1865 2134 l 2,89,90
 1886 2134 1886 2134 1905 2126 c 128,-1,91
 1924 2118 1924 2118 1938 2104 c 128,-1,92
 1952 2090 1952 2090 1960 2071 c 128,-1,93
 1968 2052 1968 2052 1968 2031 c 1,94,-1
 1974 1947 l 1,95,96
 1976 1837 1976 1837 1936 1735.5 c 128,-1,97
 1896 1634 1896 1634 1831 1555 c 1,98,99
 1847 1467 1847 1467 1846.5 1408.5 c 128,-1,100
 1846 1350 1846 1350 1831.5 1305.5 c 128,-1,101
 1817 1261 1817 1261 1790 1220.5 c 128,-1,102
 1763 1180 1763 1180 1726 1127 c 0,103,104
 1686 1067 1686 1067 1635 1011.5 c 128,-1,105
 1584 956 1584 956 1517.5 896.5 c 128,-1,106
 1451 837 1451 837 1367 769.5 c 128,-1,107
 1283 702 1283 702 1175 620 c 1,108,-1
 3059 620 l 1,109,110
 3062 671 3062 671 3064.5 728.5 c 128,-1,111
 3067 786 3067 786 3065 852 c 0,112,113
 3061 1022 3061 1022 3041.5 1170.5 c 128,-1,114
 3022 1319 3022 1319 2993 1443 c 0,115,116
 2963 1568 2963 1568 2936.5 1663 c 128,-1,117
 2910 1758 2910 1758 2888 1818 c 1,118,119
 2867 1881 2867 1881 2837.5 1943.5 c 128,-1,120
 2808 2006 2808 2006 2775 2064 c 0,121,122
 2740 2126 2740 2126 2707 2183 c 128,-1,123
 2674 2240 2674 2240 2646 2290 c 1,124,125
 2614 2337 2614 2337 2579.5 2368.5 c 128,-1,126
 2545 2400 2545 2400 2518 2425 c 0,127,128
 2483 2458 2483 2458 2445.5 2492.5 c 128,-1,129
 2408 2527 2408 2527 2378 2551 c 0,130,131
 2359 2567 2359 2567 2344.5 2577.5 c 128,-1,132
 2330 2588 2330 2588 2316.5 2595.5 c 128,-1,133
 2303 2603 2303 2603 2290 2609.5 c 128,-1,134
 2277 2616 2277 2616 2261 2623 c 0,135,136
 2250 2628 2250 2628 2231 2631 c 128,-1,137
 2212 2634 2212 2634 2192 2636 c 128,-1,138
 2172 2638 2172 2638 2153 2639.5 c 128,-1,139
 2134 2641 2134 2641 2121 2642 c 1,140,141
 2096 2641 2096 2641 2073 2642.5 c 128,-1,142
 2050 2644 2050 2644 2018 2647 c 0,143,144
 2007 2648 2007 2648 1986 2649.5 c 128,-1,145
 1965 2651 1965 2651 1941 2657 c 0,146,147
 1921 2663 1921 2663 1902 2670.5 c 128,-1,148
 1883 2678 1883 2678 1875 2679 c 0,149,150
 1864 2680 1864 2680 1847.5 2696 c 128,-1,151
 1831 2712 1831 2712 1817 2725 c 0,152,153
 1803 2737 1803 2737 1793 2754 c 128,-1,154
 1783 2771 1783 2771 1774 2789 c 0,155,156
 1763 2811 1763 2811 1755 2832 c 128,-1,157
 1747 2853 1747 2853 1733 2876 c 0,158,159
 1717 2902 1717 2902 1706 2918 c 128,-1,160
 1695 2934 1695 2934 1676 2947 c 0,161,162
 1672 2950 1672 2950 1664.5 2946.5 c 128,-1,163
 1657 2943 1657 2943 1647.5 2935.5 c 128,-1,164
 1638 2928 1638 2928 1628 2917.5 c 128,-1,165
 1618 2907 1618 2907 1609 2896 c 0,166,167
 1595 2880 1595 2880 1586.5 2870.5 c 128,-1,168
 1578 2861 1578 2861 1570 2854.5 c 128,-1,169
 1562 2848 1562 2848 1552.5 2843 c 128,-1,170
 1543 2838 1543 2838 1527 2830 c 0,171,172
 1510 2821 1510 2821 1495.5 2817.5 c 128,-1,173
 1481 2814 1481 2814 1465.5 2814 c 128,-1,174
 1450 2814 1450 2814 1430.5 2817.5 c 128,-1,175
 1411 2821 1411 2821 1384 2826 c 1,0,1
3263 413 m 1,176,-1
 896 413 l 1,177,178
 893 519 893 519 932 610.5 c 128,-1,179
 971 702 971 702 1055 772 c 1,180,181
 1354 1013 1354 1013 1499.5 1171 c 128,-1,182
 1645 1329 1645 1329 1639 1404 c 1,183,184
 1566 1380 1566 1380 1503.5 1368.5 c 128,-1,185
 1441 1357 1441 1357 1382 1356 c 128,-1,186
 1323 1355 1323 1355 1264 1363.5 c 128,-1,187
 1205 1372 1205 1372 1140 1389 c 1,188,189
 1091 1290 1091 1290 1045.5 1219 c 128,-1,190
 1000 1148 1000 1148 953 1100 c 128,-1,191
 906 1052 906 1052 854 1024.5 c 128,-1,192
 802 997 802 997 738 984 c 0,193,194
 717 980 717 980 704 978 c 128,-1,195
 691 976 691 976 678.5 976 c 128,-1,196
 666 976 666 976 651 976.5 c 128,-1,197
 636 977 636 977 612 977 c 1,198,199
 593 974 593 974 572 981 c 128,-1,200
 551 988 551 988 528.5 999 c 128,-1,201
 506 1010 506 1010 484 1021.5 c 128,-1,202
 462 1033 462 1033 441 1041 c 128,-1,203
 420 1049 420 1049 408.5 1060.5 c 128,-1,204
 397 1072 397 1072 387.5 1086.5 c 128,-1,205
 378 1101 378 1101 367 1118 c 128,-1,206
 356 1135 356 1135 335 1155 c 0,207,208
 313 1177 313 1177 289.5 1197 c 128,-1,209
 266 1217 266 1217 245 1235 c 128,-1,210
 224 1253 224 1253 206.5 1269 c 128,-1,211
 189 1285 189 1285 178 1298 c 0,212,213
 174 1303 174 1303 167 1326.5 c 128,-1,214
 160 1350 160 1350 153 1378 c 128,-1,215
 146 1406 146 1406 141 1430.5 c 128,-1,216
 136 1455 136 1455 136 1462 c 0,217,218
 138 1510 138 1510 149 1547.5 c 128,-1,219
 160 1585 160 1585 182 1623.5 c 128,-1,220
 204 1662 204 1662 238 1707.5 c 128,-1,221
 272 1753 272 1753 322 1818 c 0,222,223
 374 1885 374 1885 414 1937 c 128,-1,224
 454 1989 454 1989 485.5 2032 c 128,-1,225
 517 2075 517 2075 540.5 2114 c 128,-1,226
 564 2153 564 2153 583 2195 c 0,227,228
 595 2222 595 2222 601 2245.5 c 128,-1,229
 607 2269 607 2269 610 2288 c 128,-1,230
 613 2307 613 2307 614.5 2321 c 128,-1,231
 616 2335 616 2335 620 2342 c 0,232,233
 637 2375 637 2375 673 2420 c 128,-1,234
 709 2465 709 2465 767 2529 c 1,235,236
 790 2567 790 2567 819.5 2602.5 c 128,-1,237
 849 2638 849 2638 866 2662 c 0,238,239
 885 2688 885 2688 899.5 2706 c 128,-1,240
 914 2724 914 2724 925 2735.5 c 128,-1,241
 936 2747 936 2747 943.5 2754.5 c 128,-1,242
 951 2762 951 2762 955 2769 c 0,243,244
 964 2783 964 2783 975 2806.5 c 128,-1,245
 986 2830 986 2830 990 2855 c 0,246,247
 995 2876 995 2876 993.5 2893.5 c 128,-1,248
 992 2911 992 2911 987.5 2926.5 c 128,-1,249
 983 2942 983 2942 976 2957.5 c 128,-1,250
 969 2973 969 2973 962 2990 c 0,251,252
 946 3025 946 3025 937.5 3053 c 128,-1,253
 929 3081 929 3081 920 3101 c 0,254,255
 911 3120 911 3120 904 3149.5 c 128,-1,256
 897 3179 897 3179 891 3204 c 1,257,258
 882 3230 882 3230 879 3254 c 128,-1,259
 876 3278 876 3278 880 3286 c 0,260,261
 889 3303 889 3303 901.5 3313 c 128,-1,262
 914 3323 914 3323 931 3328 c 0,263,264
 948 3332 948 3332 967 3329.5 c 128,-1,265
 986 3327 986 3327 1007 3314 c 1,266,267
 1023 3302 1023 3302 1047.5 3293.5 c 128,-1,268
 1072 3285 1072 3285 1090 3276 c 1,269,270
 1108 3263 1108 3263 1138 3241.5 c 128,-1,271
 1168 3220 1168 3220 1204 3186 c 1,272,273
 1239 3150 1239 3150 1256.5 3129.5 c 128,-1,274
 1274 3109 1274 3109 1289 3097 c 0,275,276
 1305 3085 1305 3085 1323 3074 c 128,-1,277
 1341 3063 1341 3063 1357 3051 c 0,278,279
 1366 3043 1366 3043 1380 3038.5 c 128,-1,280
 1394 3034 1394 3034 1409 3032 c 128,-1,281
 1424 3030 1424 3030 1438.5 3030.5 c 128,-1,282
 1453 3031 1453 3031 1463 3033 c 0,283,284
 1486 3037 1486 3037 1503 3053 c 128,-1,285
 1520 3069 1520 3069 1531 3090 c 0,286,287
 1540 3108 1540 3108 1543.5 3118.5 c 128,-1,288
 1547 3129 1547 3129 1547.5 3135 c 128,-1,289
 1548 3141 1548 3141 1547.5 3145 c 128,-1,290
 1547 3149 1547 3149 1548 3154 c 0,291,292
 1554 3181 1554 3181 1557.5 3201.5 c 128,-1,293
 1561 3222 1561 3222 1566 3254 c 0,294,295
 1572 3287 1572 3287 1587 3301.5 c 128,-1,296
 1602 3316 1602 3316 1614 3326 c 128,-1,297
 1626 3336 1626 3336 1639.5 3342.5 c 128,-1,298
 1653 3349 1653 3349 1664 3348 c 0,299,300
 1686 3346 1686 3346 1710 3312 c 128,-1,301
 1734 3278 1734 3278 1758 3215 c 1,302,303
 1772 3183 1772 3183 1782 3160 c 128,-1,304
 1792 3137 1792 3137 1799 3119 c 128,-1,305
 1806 3101 1806 3101 1812.5 3087.5 c 128,-1,306
 1819 3074 1819 3074 1825 3061 c 0,307,308
 1831 3049 1831 3049 1836.5 3040 c 128,-1,309
 1842 3031 1842 3031 1847.5 3022.5 c 128,-1,310
 1853 3014 1853 3014 1859.5 3004 c 128,-1,311
 1866 2994 1866 2994 1873 2980 c 0,312,313
 1889 2951 1889 2951 1905.5 2928.5 c 128,-1,314
 1922 2906 1922 2906 1935 2897 c 1,315,316
 1948 2885 1948 2885 1963 2876.5 c 128,-1,317
 1978 2868 1978 2868 1995 2866 c 1,318,319
 2011 2862 2011 2862 2028 2858.5 c 128,-1,320
 2045 2855 2045 2855 2056 2854 c 0,321,322
 2092 2851 2092 2851 2121.5 2849 c 128,-1,323
 2151 2847 2151 2847 2170 2845 c 0,324,325
 2178 2845 2178 2845 2196.5 2843.5 c 128,-1,326
 2215 2842 2215 2842 2240 2840 c 1,327,328
 2293 2822 2293 2822 2338 2800.5 c 128,-1,329
 2383 2779 2383 2779 2417 2760 c 0,330,331
 2454 2740 2454 2740 2498 2707 c 128,-1,332
 2542 2674 2542 2674 2593 2631 c 128,-1,333
 2644 2588 2644 2588 2688 2544 c 128,-1,334
 2732 2500 2732 2500 2761 2458 c 1,335,336
 2793 2417 2793 2417 2831 2357 c 128,-1,337
 2869 2297 2869 2297 2912 2221 c 0,338,339
 2954 2145 2954 2145 2988.5 2078.5 c 128,-1,340
 3023 2012 3023 2012 3045 1955 c 0,341,342
 3067 1897 3067 1897 3092.5 1815 c 128,-1,343
 3118 1733 3118 1733 3147 1628 c 0,344,345
 3176 1520 3176 1520 3194.5 1429.5 c 128,-1,346
 3213 1339 3213 1339 3223 1266 c 128,-1,347
 3233 1193 3233 1193 3241 1112.5 c 128,-1,348
 3249 1032 3249 1032 3251 945 c 0,349,350
 3254 859 3254 859 3258 790 c 128,-1,351
 3262 721 3262 721 3262 677 c 0,352,353
 3262 656 3262 656 3262 621.5 c 128,-1,354
 3262 587 3262 587 3262.5 549 c 128,-1,355
 3263 511 3263 511 3263 474.5 c 128,-1,356
 3263 438 3263 438 3263 413 c 1,176,-1
1162 2341 m 0,357,358
 1198 2341 1198 2341 1229 2329.5 c 128,-1,359
 1260 2318 1260 2318 1283 2299 c 128,-1,360
 1306 2280 1306 2280 1319.5 2253.5 c 128,-1,361
 1333 2227 1333 2227 1333 2198 c 0,362,363
 1333 2168 1333 2168 1319.5 2142 c 128,-1,364
 1306 2116 1306 2116 1283 2096.5 c 128,-1,365
 1260 2077 1260 2077 1229 2066 c 128,-1,366
 1198 2055 1198 2055 1162 2055 c 0,367,368
 1127 2055 1127 2055 1096 2066 c 128,-1,369
 1065 2077 1065 2077 1042 2096.5 c 128,-1,370
 1019 2116 1019 2116 1005.5 2142 c 128,-1,371
 992 2168 992 2168 992 2198 c 0,372,373
 992 2227 992 2227 1005.5 2253.5 c 128,-1,374
 1019 2280 1019 2280 1042 2299 c 128,-1,375
 1065 2318 1065 2318 1096 2329.5 c 128,-1,376
 1127 2341 1127 2341 1162 2341 c 0,357,358
895 277 m 1,377,-1
 3262 277 l 1,378,-1
 3262 0 l 1,379,-1
 895 0 l 1,380,-1
 895 277 l 1,377,-1
EndSplineSet
EndChar
StartChar: O
Encoding: 79 79 38
Width: 3183
GlyphClass: 2
Flags: W
Fore
2624 1459 m 0,0,1
 2624 1632 2624 1632 2593 1787 c 128,-1,2
 2562 1942 2562 1942 2499 2077 c 0,3,4
 2436 2211 2436 2211 2345.5 2317.5 c 128,-1,5
 2255 2424 2255 2424 2137 2501 c 0,6,7
 2019 2577 2019 2577 1880.5 2616 c 128,-1,8
 1742 2655 1742 2655 1584 2655 c 0,9,10
 1264 2655 1264 2655 1029 2501 c 0,11,12
 911 2425 911 2425 821 2318 c 128,-1,13
 731 2211 731 2211 669 2077 c 0,14,15
 544 1805 544 1805 544 1459 c 0,16,17
 544 1285 544 1285 575.5 1128.5 c 128,-1,18
 607 972 607 972 669 836 c 0,19,20
 732 699 732 699 822.5 592 c 128,-1,21
 913 485 913 485 1030 408 c 0,22,23
 1266 255 1266 255 1584 255 c 0,24,25
 1900 255 1900 255 2136 408 c 0,26,27
 2373 560 2373 560 2498 835 c 0,28,29
 2624 1108 2624 1108 2624 1459 c 0,0,1
3008 1458 m 0,30,31
 3008 1327 3008 1327 2989.5 1194.5 c 128,-1,32
 2971 1062 2971 1062 2935 928 c 0,33,34
 2861 659 2861 659 2694 425 c 0,35,36
 2527 190 2527 190 2250 47 c 0,37,38
 1974 -96 1974 -96 1585 -96 c 128,-1,39
 1196 -96 1196 -96 919 45 c 1,40,41
 641 190 641 190 474 426 c 0,42,43
 306 662 306 662 233 929 c 0,44,45
 197 1062 197 1062 178.5 1194.5 c 128,-1,46
 160 1327 160 1327 160 1458 c 0,47,48
 160 1588 160 1588 178.5 1720 c 128,-1,49
 197 1852 197 1852 233 1986 c 0,50,51
 270 2119 270 2119 330.5 2244.5 c 128,-1,52
 391 2370 391 2370 473 2485 c 0,53,54
 639 2718 639 2718 919 2863 c 0,55,56
 1198 3006 1198 3006 1585 3006 c 128,-1,57
 1972 3006 1972 3006 2250 2864 c 1,58,59
 2528 2719 2528 2719 2694 2488 c 0,60,61
 2777 2372 2777 2372 2837.5 2246.5 c 128,-1,62
 2898 2121 2898 2121 2934 1987 c 0,63,64
 2971 1853 2971 1853 2989.5 1720.5 c 128,-1,65
 3008 1588 3008 1588 3008 1458 c 0,30,31
EndSplineSet
EndChar
StartChar: P
Encoding: 80 80 39
Width: 2503
GlyphClass: 2
Flags: W
Fore
461 620 m 1,0,-1
 2131 620 l 1,1,2
 2187 722 2187 722 2218 839 c 128,-1,3
 2249 956 2249 956 2249 1080 c 0,4,5
 2249 1237 2249 1237 2200.5 1380.5 c 128,-1,6
 2152 1524 2152 1524 2065.5 1643 c 128,-1,7
 1979 1762 1979 1762 1859.5 1850.5 c 128,-1,8
 1740 1939 1740 1939 1599 1989 c 1,9,10
 1527 2000 1527 2000 1477 2032.5 c 128,-1,11
 1427 2065 1427 2065 1418 2113 c 0,12,13
 1414 2139 1414 2139 1422.5 2165 c 128,-1,14
 1431 2191 1431 2191 1451 2215 c 128,-1,15
 1471 2239 1471 2239 1501 2260.5 c 128,-1,16
 1531 2282 1531 2282 1569 2299 c 1,17,18
 1633 2333 1633 2333 1633 2380 c 0,19,20
 1633 2410 1633 2410 1606 2436.5 c 128,-1,21
 1579 2463 1579 2463 1532.5 2483 c 128,-1,22
 1486 2503 1486 2503 1423.5 2514.5 c 128,-1,23
 1361 2526 1361 2526 1290 2526 c 128,-1,24
 1219 2526 1219 2526 1156.5 2514.5 c 128,-1,25
 1094 2503 1094 2503 1047.5 2483 c 128,-1,26
 1001 2463 1001 2463 974 2436.5 c 128,-1,27
 947 2410 947 2410 947 2380 c 0,28,29
 947 2354 947 2354 968.5 2330 c 128,-1,30
 990 2306 990 2306 1028 2286 c 1,31,32
 1089 2251 1089 2251 1121.5 2205 c 128,-1,33
 1154 2159 1154 2159 1146 2113 c 0,34,35
 1138 2070 1138 2070 1095.5 2038.5 c 128,-1,36
 1053 2007 1053 2007 988 1991 c 1,37,38
 846 1941 846 1941 726 1851.5 c 128,-1,39
 606 1762 606 1762 519.5 1643 c 128,-1,40
 433 1524 433 1524 384 1380.5 c 128,-1,41
 335 1237 335 1237 335 1080 c 0,42,43
 335 954 335 954 369 837.5 c 128,-1,44
 403 721 403 721 461 620 c 1,0,-1
340 413 m 1,45,46
 239 555 239 555 187.5 724.5 c 128,-1,47
 136 894 136 894 136 1080 c 0,48,49
 136 1263 136 1263 190 1430 c 128,-1,50
 244 1597 244 1597 342 1737.5 c 128,-1,51
 440 1878 440 1878 575 1985.5 c 128,-1,52
 710 2093 710 2093 872 2157 c 1,53,54
 814 2203 814 2203 780.5 2259 c 128,-1,55
 747 2315 747 2315 747 2376 c 0,56,57
 747 2447 747 2447 790.5 2509.5 c 128,-1,58
 834 2572 834 2572 909.5 2618.5 c 128,-1,59
 985 2665 985 2665 1086 2692 c 128,-1,60
 1187 2719 1187 2719 1301 2719 c 0,61,62
 1416 2719 1416 2719 1517 2692 c 128,-1,63
 1618 2665 1618 2665 1693 2618.5 c 128,-1,64
 1768 2572 1768 2572 1812 2509.5 c 128,-1,65
 1856 2447 1856 2447 1856 2376 c 0,66,67
 1856 2312 1856 2312 1819.5 2255 c 128,-1,68
 1783 2198 1783 2198 1720 2154 c 1,69,70
 1880 2090 1880 2090 2014 1982.5 c 128,-1,71
 2148 1875 2148 1875 2244.5 1735.5 c 128,-1,72
 2341 1596 2341 1596 2395 1429 c 128,-1,73
 2449 1262 2449 1262 2449 1080 c 0,74,75
 2449 894 2449 894 2397.5 724.5 c 128,-1,76
 2346 555 2346 555 2245 413 c 1,77,-1
 340 413 l 1,45,46
340 277 m 1,78,-1
 2245 277 l 1,79,-1
 2245 0 l 1,80,-1
 340 0 l 1,81,-1
 340 277 l 1,78,-1
EndSplineSet
EndChar
StartChar: Q
Encoding: 81 81 40
Width: 3736
GlyphClass: 2
Flags: W
Fore
884 1660 m 1,0,-1
 511 1964 l 1,1,-1
 1000 620 l 1,2,-1
 2606 620 l 1,3,-1
 3096 1964 l 1,4,-1
 2725 1660 l 1,5,6
 2668 1618 2668 1618 2601.5 1593.5 c 128,-1,7
 2535 1569 2535 1569 2462 1569 c 0,8,9
 2401 1569 2401 1569 2345.5 1586 c 128,-1,10
 2290 1603 2290 1603 2242.5 1633.5 c 128,-1,11
 2195 1664 2195 1664 2155.5 1706.5 c 128,-1,12
 2116 1749 2116 1749 2089 1800 c 1,13,-1
 1803 2399 l 1,14,-1
 1521 1801 l 1,15,16
 1495 1749 1495 1749 1456.5 1706.5 c 128,-1,17
 1418 1664 1418 1664 1370 1633.5 c 128,-1,18
 1322 1603 1322 1603 1266.5 1586 c 128,-1,19
 1211 1569 1211 1569 1151 1569 c 0,20,21
 1078 1569 1078 1569 1011 1593.5 c 128,-1,22
 944 1618 944 1618 884 1660 c 1,0,-1
851 277 m 1,23,-1
 2756 277 l 1,24,-1
 2756 0 l 1,25,-1
 851 0 l 1,26,-1
 851 277 l 1,23,-1
1798 1570 m 0,27,28
 1831 1570 1831 1570 1861 1543 c 128,-1,29
 1891 1516 1891 1516 1913 1469.5 c 128,-1,30
 1935 1423 1935 1423 1948 1360.5 c 128,-1,31
 1961 1298 1961 1298 1961 1227 c 128,-1,32
 1961 1156 1961 1156 1948 1093.5 c 128,-1,33
 1935 1031 1935 1031 1913 984.5 c 128,-1,34
 1891 938 1891 938 1861 911 c 128,-1,35
 1831 884 1831 884 1798 884 c 0,36,37
 1764 884 1764 884 1734.5 911 c 128,-1,38
 1705 938 1705 938 1682.5 984.5 c 128,-1,39
 1660 1031 1660 1031 1647 1093.5 c 128,-1,40
 1634 1156 1634 1156 1634 1227 c 128,-1,41
 1634 1298 1634 1298 1647 1360.5 c 128,-1,42
 1660 1423 1660 1423 1682.5 1469.5 c 128,-1,43
 1705 1516 1705 1516 1734.5 1543 c 128,-1,44
 1764 1570 1764 1570 1798 1570 c 0,27,28
2291 1855 m 1,45,46
 2321 1815 2321 1815 2365.5 1791.5 c 128,-1,47
 2410 1768 2410 1768 2462 1768 c 0,48,49
 2488 1768 2488 1768 2512.5 1774.5 c 128,-1,50
 2537 1781 2537 1781 2560 1791 c 1,51,-1
 2511 2133 l 1,52,-1
 2291 1855 l 1,45,46
2750 1945 m 1,53,-1
 3296 2403 l 1,54,55
 3345 2448 3345 2448 3384 2468 c 128,-1,56
 3423 2488 3423 2488 3442 2474 c 0,57,58
 3460 2462 3460 2462 3457.5 2422.5 c 128,-1,59
 3455 2383 3455 2383 3439 2325 c 1,60,-1
 2753 413 l 1,61,-1
 853 413 l 1,62,-1
 167 2323 l 1,63,64
 148 2383 148 2383 145 2422.5 c 128,-1,65
 142 2462 142 2462 159 2474 c 0,66,67
 178 2488 178 2488 217 2468.5 c 128,-1,68
 256 2449 256 2449 307 2404 c 1,69,-1
 860 1942 l 1,70,-1
 929 2450 l 1,71,72
 932 2494 932 2494 944 2523.5 c 128,-1,73
 956 2553 956 2553 977 2559 c 128,-1,74
 998 2565 998 2565 1024.5 2546.5 c 128,-1,75
 1051 2528 1051 2528 1078 2490 c 1,76,-1
 1420 2055 l 1,77,-1
 1732 2725 l 1,78,79
 1749 2760 1749 2760 1767 2779.5 c 128,-1,80
 1785 2799 1785 2799 1804 2799 c 0,81,82
 1824 2799 1824 2799 1842 2779 c 128,-1,83
 1860 2759 1860 2759 1877 2721 c 1,84,-1
 2191 2059 l 1,85,-1
 2528 2490 l 1,86,87
 2556 2528 2556 2528 2582 2546.5 c 128,-1,88
 2608 2565 2608 2565 2629 2559 c 128,-1,89
 2650 2553 2650 2553 2662.5 2523.5 c 128,-1,90
 2675 2494 2675 2494 2678 2450 c 1,91,-1
 2750 1945 l 1,53,-1
1045 1793 m 1,92,93
 1070 1782 1070 1782 1096.5 1775 c 128,-1,94
 1123 1768 1123 1768 1151 1768 c 0,95,96
 1201 1768 1201 1768 1244 1790 c 128,-1,97
 1287 1812 1287 1812 1318 1848 c 1,98,-1
 1095 2133 l 1,99,-1
 1045 1793 l 1,92,93
EndSplineSet
EndChar
StartChar: R
Encoding: 82 82 41
Width: 2961
GlyphClass: 2
Flags: W
Fore
2190 3276 m 1,0,-1
 2460 3276 l 2,1,2
 2487 3276 2487 3276 2511.5 3265 c 128,-1,3
 2536 3254 2536 3254 2554.5 3235.5 c 128,-1,4
 2573 3217 2573 3217 2584 3192.5 c 128,-1,5
 2595 3168 2595 3168 2595 3140 c 2,6,-1
 2595 2558 l 2,7,8
 2595 2531 2595 2531 2584.5 2506 c 128,-1,9
 2574 2481 2574 2481 2555.5 2462.5 c 128,-1,10
 2537 2444 2537 2444 2512.5 2433.5 c 128,-1,11
 2488 2423 2488 2423 2460 2423 c 2,12,-1
 2254 2423 l 1,13,14
 2252 2231 2252 2231 2273 2059.5 c 128,-1,15
 2294 1888 2294 1888 2337 1726.5 c 128,-1,16
 2380 1565 2380 1565 2445 1409 c 128,-1,17
 2510 1253 2510 1253 2595 1091 c 1,18,-1
 2595 413 l 1,19,-1
 1365 413 l 1,20,-1
 136 413 l 1,21,-1
 136 1091 l 1,22,23
 221 1253 221 1253 285.5 1409 c 128,-1,24
 350 1565 350 1565 393.5 1726.5 c 128,-1,25
 437 1888 437 1888 458 2059.5 c 128,-1,26
 479 2231 479 2231 477 2423 c 1,27,-1
 274 2423 l 2,28,29
 247 2423 247 2423 221.5 2433.5 c 128,-1,30
 196 2444 196 2444 177 2462.5 c 128,-1,31
 158 2481 158 2481 147 2506 c 128,-1,32
 136 2531 136 2531 136 2558 c 2,33,-1
 136 3141 l 2,34,35
 136 3169 136 3169 146.5 3193.5 c 128,-1,36
 157 3218 157 3218 175.5 3236.5 c 128,-1,37
 194 3255 194 3255 218.5 3265.5 c 128,-1,38
 243 3276 243 3276 271 3276 c 2,39,-1
 555 3276 l 1,40,-1
 754 3276 l 1,41,-1
 754 3076 l 1,42,-1
 1159 3076 l 1,43,-1
 1159 3276 l 1,44,-1
 1572 3276 l 1,45,-1
 1572 3076 l 1,46,-1
 1977 3076 l 1,47,-1
 1977 3276 l 1,48,-1
 2190 3276 l 1,0,-1
136 277 m 1,49,-1
 2595 277 l 1,50,-1
 2595 0 l 1,51,-1
 136 0 l 1,52,-1
 136 277 l 1,49,-1
1708 620 m 1,53,-1
 2389 620 l 1,54,-1
 2389 1063 l 1,55,56
 2304 1228 2304 1228 2238.5 1388 c 128,-1,57
 2173 1548 2173 1548 2129.5 1712.5 c 128,-1,58
 2086 1877 2086 1877 2065 2052 c 128,-1,59
 2044 2227 2044 2227 2048 2423 c 1,60,-1
 2048 2626 l 1,61,-1
 2389 2626 l 1,62,-1
 2389 3076 l 1,63,-1
 2183 3076 l 1,64,-1
 2183 2869 l 1,65,-1
 548 2869 l 1,66,-1
 548 3076 l 1,67,-1
 342 3076 l 1,68,-1
 342 2626 l 1,69,-1
 683 2626 l 1,70,-1
 683 2423 l 1,71,72
 686 2227 686 2227 665 2052 c 128,-1,73
 644 1877 644 1877 600.5 1712.5 c 128,-1,74
 557 1548 557 1548 492 1388 c 128,-1,75
 427 1228 427 1228 342 1063 c 1,76,-1
 342 620 l 1,77,-1
 1024 620 l 1,78,-1
 1024 1363 l 2,79,80
 1024 1433 1024 1433 1051 1495 c 128,-1,81
 1078 1557 1078 1557 1124.5 1603.5 c 128,-1,82
 1171 1650 1171 1650 1233 1677 c 128,-1,83
 1295 1704 1295 1704 1365 1704 c 0,84,85
 1436 1704 1436 1704 1498 1677 c 128,-1,86
 1560 1650 1560 1650 1606.5 1603.5 c 128,-1,87
 1653 1557 1653 1557 1679.5 1495 c 128,-1,88
 1706 1433 1706 1433 1706 1363 c 1,89,-1
 1708 620 l 1,53,-1
EndSplineSet
EndChar
StartChar: S
Encoding: 83 83 42
Width: 3641
GlyphClass: 2
Flags: W
Fore
1384 2826 m 1,0,1
 1366 2838 1366 2838 1352.5 2846.5 c 128,-1,2
 1339 2855 1339 2855 1327.5 2861.5 c 128,-1,3
 1316 2868 1316 2868 1305.5 2875 c 128,-1,4
 1295 2882 1295 2882 1282 2890 c 0,5,6
 1257 2907 1257 2907 1236 2924.5 c 128,-1,7
 1215 2942 1215 2942 1186 2969 c 1,8,9
 1154 2993 1154 2993 1146 2989.5 c 128,-1,10
 1138 2986 1138 2986 1143 2951 c 1,11,12
 1155 2907 1155 2907 1160.5 2874.5 c 128,-1,13
 1166 2842 1166 2842 1166.5 2818.5 c 128,-1,14
 1167 2795 1167 2795 1164 2778 c 128,-1,15
 1161 2761 1161 2761 1158 2747 c 1,16,17
 1147 2726 1147 2726 1138.5 2708 c 128,-1,18
 1130 2690 1130 2690 1119.5 2670.5 c 128,-1,19
 1109 2651 1109 2651 1092 2626.5 c 128,-1,20
 1075 2602 1075 2602 1047 2569 c 0,21,22
 1038 2558 1038 2558 1023.5 2543.5 c 128,-1,23
 1009 2529 1009 2529 993 2511.5 c 128,-1,24
 977 2494 977 2494 961 2473 c 128,-1,25
 945 2452 945 2452 932 2427 c 1,26,27
 894 2383 894 2383 865 2339.5 c 128,-1,28
 836 2296 836 2296 816 2255 c 0,29,30
 807 2235 807 2235 796.5 2216 c 128,-1,31
 786 2197 786 2197 775 2173 c 128,-1,32
 764 2149 764 2149 753 2117.5 c 128,-1,33
 742 2086 742 2086 731 2041 c 0,34,35
 729 2032 729 2032 717.5 2013 c 128,-1,36
 706 1994 706 1994 687 1969 c 128,-1,37
 668 1944 668 1944 643 1914.5 c 128,-1,38
 618 1885 618 1885 589 1855 c 1,39,40
 564 1831 564 1831 535.5 1802.5 c 128,-1,41
 507 1774 507 1774 477.5 1741.5 c 128,-1,42
 448 1709 448 1709 420 1671.5 c 128,-1,43
 392 1634 392 1634 369 1591 c 0,44,45
 356 1567 356 1567 346.5 1550.5 c 128,-1,46
 337 1534 337 1534 332 1520 c 128,-1,47
 327 1506 327 1506 327.5 1491 c 128,-1,48
 328 1476 328 1476 335 1455 c 0,49,50
 348 1415 348 1415 358.5 1393.5 c 128,-1,51
 369 1372 369 1372 383.5 1356.5 c 128,-1,52
 398 1341 398 1341 418 1326 c 128,-1,53
 438 1311 438 1311 470 1284 c 1,54,55
 491 1276 491 1276 510 1257 c 128,-1,56
 529 1238 529 1238 547.5 1219 c 128,-1,57
 566 1200 566 1200 585.5 1185 c 128,-1,58
 605 1170 605 1170 626 1170 c 0,59,60
 661 1170 661 1170 681.5 1170.5 c 128,-1,61
 702 1171 702 1171 716 1173.5 c 128,-1,62
 730 1176 730 1176 742.5 1181.5 c 128,-1,63
 755 1187 755 1187 774 1198 c 0,64,65
 814 1221 814 1221 845.5 1253 c 128,-1,66
 877 1285 877 1285 903 1323.5 c 128,-1,67
 929 1362 929 1362 951 1406 c 128,-1,68
 973 1450 973 1450 994 1498 c 1,69,70
 1013 1522 1013 1522 1030 1545 c 128,-1,71
 1047 1568 1047 1568 1070 1582.5 c 128,-1,72
 1093 1597 1093 1597 1125.5 1599 c 128,-1,73
 1158 1601 1158 1601 1207 1584 c 0,74,75
 1248 1568 1248 1568 1288 1565.5 c 128,-1,76
 1328 1563 1328 1563 1369 1563 c 0,77,78
 1453 1563 1453 1563 1526.5 1595 c 128,-1,79
 1600 1627 1600 1627 1654.5 1679.5 c 128,-1,80
 1709 1732 1709 1732 1740 1800.5 c 128,-1,81
 1771 1869 1771 1869 1768 1944 c 1,82,-1
 1762 2031 l 1,83,84
 1762 2052 1762 2052 1770 2071 c 128,-1,85
 1778 2090 1778 2090 1792 2104 c 128,-1,86
 1806 2118 1806 2118 1824.5 2126 c 128,-1,87
 1843 2134 1843 2134 1864 2134 c 2,88,-1
 1865 2134 l 2,89,90
 1886 2134 1886 2134 1905 2126 c 128,-1,91
 1924 2118 1924 2118 1938 2104 c 128,-1,92
 1952 2090 1952 2090 1960 2071 c 128,-1,93
 1968 2052 1968 2052 1968 2031 c 1,94,-1
 1974 1947 l 1,95,96
 1976 1837 1976 1837 1936 1735.5 c 128,-1,97
 1896 1634 1896 1634 1831 1555 c 1,98,99
 1847 1467 1847 1467 1846.5 1408.5 c 128,-1,100
 1846 1350 1846 1350 1831.5 1305.5 c 128,-1,101
 1817 1261 1817 1261 1790 1220.5 c 128,-1,102
 1763 1180 1763 1180 1726 1127 c 0,103,104
 1686 1067 1686 1067 1635 1011.5 c 128,-1,105
 1584 956 1584 956 1517.5 896.5 c 128,-1,106
 1451 837 1451 837 1367 769.5 c 128,-1,107
 1283 702 1283 702 1175 620 c 1,108,-1
 3059 620 l 1,109,110
 3062 671 3062 671 3064.5 728.5 c 128,-1,111
 3067 786 3067 786 3065 852 c 0,112,113
 3061 1022 3061 1022 3041.5 1170.5 c 128,-1,114
 3022 1319 3022 1319 2993 1443 c 0,115,116
 2963 1568 2963 1568 2936.5 1663 c 128,-1,117
 2910 1758 2910 1758 2888 1818 c 1,118,119
 2867 1881 2867 1881 2837.5 1943.5 c 128,-1,120
 2808 2006 2808 2006 2775 2064 c 0,121,122
 2740 2126 2740 2126 2707 2183 c 128,-1,123
 2674 2240 2674 2240 2646 2290 c 1,124,125
 2614 2337 2614 2337 2579.5 2368.5 c 128,-1,126
 2545 2400 2545 2400 2518 2425 c 0,127,128
 2483 2458 2483 2458 2445.5 2492.5 c 128,-1,129
 2408 2527 2408 2527 2378 2551 c 0,130,131
 2359 2567 2359 2567 2344.5 2577.5 c 128,-1,132
 2330 2588 2330 2588 2316.5 2595.5 c 128,-1,133
 2303 2603 2303 2603 2290 2609.5 c 128,-1,134
 2277 2616 2277 2616 2261 2623 c 0,135,136
 2250 2628 2250 2628 2231 2631 c 128,-1,137
 2212 2634 2212 2634 2192 2636 c 128,-1,138
 2172 2638 2172 2638 2153 2639.5 c 128,-1,139
 2134 2641 2134 2641 2121 2642 c 1,140,141
 2096 2641 2096 2641 2073 2642.5 c 128,-1,142
 2050 2644 2050 2644 2018 2647 c 0,143,144
 2007 2648 2007 2648 1986 2649.5 c 128,-1,145
 1965 2651 1965 2651 1941 2657 c 0,146,147
 1921 2663 1921 2663 1902 2670.5 c 128,-1,148
 1883 2678 1883 2678 1875 2679 c 0,149,150
 1864 2680 1864 2680 1847.5 2696 c 128,-1,151
 1831 2712 1831 2712 1817 2725 c 0,152,153
 1803 2737 1803 2737 1793 2754 c 128,-1,154
 1783 2771 1783 2771 1774 2789 c 0,155,156
 1763 2811 1763 2811 1755 2832 c 128,-1,157
 1747 2853 1747 2853 1733 2876 c 0,158,159
 1717 2902 1717 2902 1706 2918 c 128,-1,160
 1695 2934 1695 2934 1676 2947 c 0,161,162
 1672 2950 1672 2950 1664.5 2946.5 c 128,-1,163
 1657 2943 1657 2943 1647.5 2935.5 c 128,-1,164
 1638 2928 1638 2928 1628 2917.5 c 128,-1,165
 1618 2907 1618 2907 1609 2896 c 0,166,167
 1595 2880 1595 2880 1586.5 2870.5 c 128,-1,168
 1578 2861 1578 2861 1570 2854.5 c 128,-1,169
 1562 2848 1562 2848 1552.5 2843 c 128,-1,170
 1543 2838 1543 2838 1527 2830 c 0,171,172
 1510 2821 1510 2821 1495.5 2817.5 c 128,-1,173
 1481 2814 1481 2814 1465.5 2814 c 128,-1,174
 1450 2814 1450 2814 1430.5 2817.5 c 128,-1,175
 1411 2821 1411 2821 1384 2826 c 1,0,1
3263 413 m 1,176,-1
 896 413 l 1,177,178
 893 519 893 519 932 610.5 c 128,-1,179
 971 702 971 702 1055 772 c 1,180,181
 1354 1013 1354 1013 1499.5 1171 c 128,-1,182
 1645 1329 1645 1329 1639 1404 c 1,183,184
 1566 1380 1566 1380 1503.5 1368.5 c 128,-1,185
 1441 1357 1441 1357 1382 1356 c 128,-1,186
 1323 1355 1323 1355 1264 1363.5 c 128,-1,187
 1205 1372 1205 1372 1140 1389 c 1,188,189
 1091 1290 1091 1290 1045.5 1219 c 128,-1,190
 1000 1148 1000 1148 953 1100 c 128,-1,191
 906 1052 906 1052 854 1024.5 c 128,-1,192
 802 997 802 997 738 984 c 0,193,194
 717 980 717 980 704 978 c 128,-1,195
 691 976 691 976 678.5 976 c 128,-1,196
 666 976 666 976 651 976.5 c 128,-1,197
 636 977 636 977 612 977 c 1,198,199
 593 974 593 974 572 981 c 128,-1,200
 551 988 551 988 528.5 999 c 128,-1,201
 506 1010 506 1010 484 1021.5 c 128,-1,202
 462 1033 462 1033 441 1041 c 128,-1,203
 420 1049 420 1049 408.5 1060.5 c 128,-1,204
 397 1072 397 1072 387.5 1086.5 c 128,-1,205
 378 1101 378 1101 367 1118 c 128,-1,206
 356 1135 356 1135 335 1155 c 0,207,208
 313 1177 313 1177 289.5 1197 c 128,-1,209
 266 1217 266 1217 245 1235 c 128,-1,210
 224 1253 224 1253 206.5 1269 c 128,-1,211
 189 1285 189 1285 178 1298 c 0,212,213
 174 1303 174 1303 167 1326.5 c 128,-1,214
 160 1350 160 1350 153 1378 c 128,-1,215
 146 1406 146 1406 141 1430.5 c 128,-1,216
 136 1455 136 1455 136 1462 c 0,217,218
 138 1510 138 1510 149 1547.5 c 128,-1,219
 160 1585 160 1585 182 1623.5 c 128,-1,220
 204 1662 204 1662 238 1707.5 c 128,-1,221
 272 1753 272 1753 322 1818 c 0,222,223
 374 1885 374 1885 414 1937 c 128,-1,224
 454 1989 454 1989 485.5 2032 c 128,-1,225
 517 2075 517 2075 540.5 2114 c 128,-1,226
 564 2153 564 2153 583 2195 c 0,227,228
 595 2222 595 2222 601 2245.5 c 128,-1,229
 607 2269 607 2269 610 2288 c 128,-1,230
 613 2307 613 2307 614.5 2321 c 128,-1,231
 616 2335 616 2335 620 2342 c 0,232,233
 637 2375 637 2375 673 2420 c 128,-1,234
 709 2465 709 2465 767 2529 c 1,235,236
 790 2567 790 2567 819.5 2602.5 c 128,-1,237
 849 2638 849 2638 866 2662 c 0,238,239
 885 2688 885 2688 899.5 2706 c 128,-1,240
 914 2724 914 2724 925 2735.5 c 128,-1,241
 936 2747 936 2747 943.5 2754.5 c 128,-1,242
 951 2762 951 2762 955 2769 c 0,243,244
 964 2783 964 2783 975 2806.5 c 128,-1,245
 986 2830 986 2830 990 2855 c 0,246,247
 995 2876 995 2876 993.5 2893.5 c 128,-1,248
 992 2911 992 2911 987.5 2926.5 c 128,-1,249
 983 2942 983 2942 976 2957.5 c 128,-1,250
 969 2973 969 2973 962 2990 c 0,251,252
 946 3025 946 3025 937.5 3053 c 128,-1,253
 929 3081 929 3081 920 3101 c 0,254,255
 911 3120 911 3120 904 3149.5 c 128,-1,256
 897 3179 897 3179 891 3204 c 1,257,258
 882 3230 882 3230 879 3254 c 128,-1,259
 876 3278 876 3278 880 3286 c 0,260,261
 889 3303 889 3303 901.5 3313 c 128,-1,262
 914 3323 914 3323 931 3328 c 0,263,264
 948 3332 948 3332 967 3329.5 c 128,-1,265
 986 3327 986 3327 1007 3314 c 1,266,267
 1023 3302 1023 3302 1047.5 3293.5 c 128,-1,268
 1072 3285 1072 3285 1090 3276 c 1,269,270
 1108 3263 1108 3263 1138 3241.5 c 128,-1,271
 1168 3220 1168 3220 1204 3186 c 1,272,273
 1239 3150 1239 3150 1256.5 3129.5 c 128,-1,274
 1274 3109 1274 3109 1289 3097 c 0,275,276
 1305 3085 1305 3085 1323 3074 c 128,-1,277
 1341 3063 1341 3063 1357 3051 c 0,278,279
 1366 3043 1366 3043 1380 3038.5 c 128,-1,280
 1394 3034 1394 3034 1409 3032 c 128,-1,281
 1424 3030 1424 3030 1438.5 3030.5 c 128,-1,282
 1453 3031 1453 3031 1463 3033 c 0,283,284
 1486 3037 1486 3037 1503 3053 c 128,-1,285
 1520 3069 1520 3069 1531 3090 c 0,286,287
 1540 3108 1540 3108 1543.5 3118.5 c 128,-1,288
 1547 3129 1547 3129 1547.5 3135 c 128,-1,289
 1548 3141 1548 3141 1547.5 3145 c 128,-1,290
 1547 3149 1547 3149 1548 3154 c 0,291,292
 1554 3181 1554 3181 1557.5 3201.5 c 128,-1,293
 1561 3222 1561 3222 1566 3254 c 0,294,295
 1572 3287 1572 3287 1587 3301.5 c 128,-1,296
 1602 3316 1602 3316 1614 3326 c 128,-1,297
 1626 3336 1626 3336 1639.5 3342.5 c 128,-1,298
 1653 3349 1653 3349 1664 3348 c 0,299,300
 1686 3346 1686 3346 1710 3312 c 128,-1,301
 1734 3278 1734 3278 1758 3215 c 1,302,303
 1772 3183 1772 3183 1782 3160 c 128,-1,304
 1792 3137 1792 3137 1799 3119 c 128,-1,305
 1806 3101 1806 3101 1812.5 3087.5 c 128,-1,306
 1819 3074 1819 3074 1825 3061 c 0,307,308
 1831 3049 1831 3049 1836.5 3040 c 128,-1,309
 1842 3031 1842 3031 1847.5 3022.5 c 128,-1,310
 1853 3014 1853 3014 1859.5 3004 c 128,-1,311
 1866 2994 1866 2994 1873 2980 c 0,312,313
 1889 2951 1889 2951 1905.5 2928.5 c 128,-1,314
 1922 2906 1922 2906 1935 2897 c 1,315,316
 1948 2885 1948 2885 1963 2876.5 c 128,-1,317
 1978 2868 1978 2868 1995 2866 c 1,318,319
 2011 2862 2011 2862 2028 2858.5 c 128,-1,320
 2045 2855 2045 2855 2056 2854 c 0,321,322
 2092 2851 2092 2851 2121.5 2849 c 128,-1,323
 2151 2847 2151 2847 2170 2845 c 0,324,325
 2178 2845 2178 2845 2196.5 2843.5 c 128,-1,326
 2215 2842 2215 2842 2240 2840 c 1,327,328
 2293 2822 2293 2822 2338 2800.5 c 128,-1,329
 2383 2779 2383 2779 2417 2760 c 0,330,331
 2454 2740 2454 2740 2498 2707 c 128,-1,332
 2542 2674 2542 2674 2593 2631 c 128,-1,333
 2644 2588 2644 2588 2688 2544 c 128,-1,334
 2732 2500 2732 2500 2761 2458 c 1,335,336
 2793 2417 2793 2417 2831 2357 c 128,-1,337
 2869 2297 2869 2297 2912 2221 c 0,338,339
 2954 2145 2954 2145 2988.5 2078.5 c 128,-1,340
 3023 2012 3023 2012 3045 1955 c 0,341,342
 3067 1897 3067 1897 3092.5 1815 c 128,-1,343
 3118 1733 3118 1733 3147 1628 c 0,344,345
 3176 1520 3176 1520 3194.5 1429.5 c 128,-1,346
 3213 1339 3213 1339 3223 1266 c 128,-1,347
 3233 1193 3233 1193 3241 1112.5 c 128,-1,348
 3249 1032 3249 1032 3251 945 c 0,349,350
 3254 859 3254 859 3258 790 c 128,-1,351
 3262 721 3262 721 3262 677 c 0,352,353
 3262 656 3262 656 3262 621.5 c 128,-1,354
 3262 587 3262 587 3262.5 549 c 128,-1,355
 3263 511 3263 511 3263 474.5 c 128,-1,356
 3263 438 3263 438 3263 413 c 1,176,-1
1162 2341 m 0,357,358
 1198 2341 1198 2341 1229 2329.5 c 128,-1,359
 1260 2318 1260 2318 1283 2299 c 128,-1,360
 1306 2280 1306 2280 1319.5 2253.5 c 128,-1,361
 1333 2227 1333 2227 1333 2198 c 0,362,363
 1333 2168 1333 2168 1319.5 2142 c 128,-1,364
 1306 2116 1306 2116 1283 2096.5 c 128,-1,365
 1260 2077 1260 2077 1229 2066 c 128,-1,366
 1198 2055 1198 2055 1162 2055 c 0,367,368
 1127 2055 1127 2055 1096 2066 c 128,-1,369
 1065 2077 1065 2077 1042 2096.5 c 128,-1,370
 1019 2116 1019 2116 1005.5 2142 c 128,-1,371
 992 2168 992 2168 992 2198 c 0,372,373
 992 2227 992 2227 1005.5 2253.5 c 128,-1,374
 1019 2280 1019 2280 1042 2299 c 128,-1,375
 1065 2318 1065 2318 1096 2329.5 c 128,-1,376
 1127 2341 1127 2341 1162 2341 c 0,357,358
895 277 m 1,377,-1
 3262 277 l 1,378,-1
 3262 0 l 1,379,-1
 895 0 l 1,380,-1
 895 277 l 1,377,-1
EndSplineSet
EndChar
StartChar: T
Encoding: 84 84 43
Width: 2961
GlyphClass: 2
Flags: W
Fore
2190 3276 m 1,0,-1
 2460 3276 l 2,1,2
 2487 3276 2487 3276 2511.5 3265 c 128,-1,3
 2536 3254 2536 3254 2554.5 3235.5 c 128,-1,4
 2573 3217 2573 3217 2584 3192.5 c 128,-1,5
 2595 3168 2595 3168 2595 3140 c 2,6,-1
 2595 2558 l 2,7,8
 2595 2531 2595 2531 2584.5 2506 c 128,-1,9
 2574 2481 2574 2481 2555.5 2462.5 c 128,-1,10
 2537 2444 2537 2444 2512.5 2433.5 c 128,-1,11
 2488 2423 2488 2423 2460 2423 c 2,12,-1
 2254 2423 l 1,13,14
 2252 2231 2252 2231 2273 2059.5 c 128,-1,15
 2294 1888 2294 1888 2337 1726.5 c 128,-1,16
 2380 1565 2380 1565 2445 1409 c 128,-1,17
 2510 1253 2510 1253 2595 1091 c 1,18,-1
 2595 413 l 1,19,-1
 1365 413 l 1,20,-1
 136 413 l 1,21,-1
 136 1091 l 1,22,23
 221 1253 221 1253 285.5 1409 c 128,-1,24
 350 1565 350 1565 393.5 1726.5 c 128,-1,25
 437 1888 437 1888 458 2059.5 c 128,-1,26
 479 2231 479 2231 477 2423 c 1,27,-1
 274 2423 l 2,28,29
 247 2423 247 2423 221.5 2433.5 c 128,-1,30
 196 2444 196 2444 177 2462.5 c 128,-1,31
 158 2481 158 2481 147 2506 c 128,-1,32
 136 2531 136 2531 136 2558 c 2,33,-1
 136 3141 l 2,34,35
 136 3169 136 3169 146.5 3193.5 c 128,-1,36
 157 3218 157 3218 175.5 3236.5 c 128,-1,37
 194 3255 194 3255 218.5 3265.5 c 128,-1,38
 243 3276 243 3276 271 3276 c 2,39,-1
 555 3276 l 1,40,-1
 754 3276 l 1,41,-1
 754 3076 l 1,42,-1
 1159 3076 l 1,43,-1
 1159 3276 l 1,44,-1
 1572 3276 l 1,45,-1
 1572 3076 l 1,46,-1
 1977 3076 l 1,47,-1
 1977 3276 l 1,48,-1
 2190 3276 l 1,0,-1
136 277 m 1,49,-1
 2595 277 l 1,50,-1
 2595 0 l 1,51,-1
 136 0 l 1,52,-1
 136 277 l 1,49,-1
1708 620 m 1,53,-1
 2389 620 l 1,54,-1
 2389 1063 l 1,55,56
 2304 1228 2304 1228 2238.5 1388 c 128,-1,57
 2173 1548 2173 1548 2129.5 1712.5 c 128,-1,58
 2086 1877 2086 1877 2065 2052 c 128,-1,59
 2044 2227 2044 2227 2048 2423 c 1,60,-1
 2048 2626 l 1,61,-1
 2389 2626 l 1,62,-1
 2389 3076 l 1,63,-1
 2183 3076 l 1,64,-1
 2183 2869 l 1,65,-1
 548 2869 l 1,66,-1
 548 3076 l 1,67,-1
 342 3076 l 1,68,-1
 342 2626 l 1,69,-1
 683 2626 l 1,70,-1
 683 2423 l 1,71,72
 686 2227 686 2227 665 2052 c 128,-1,73
 644 1877 644 1877 600.5 1712.5 c 128,-1,74
 557 1548 557 1548 492 1388 c 128,-1,75
 427 1228 427 1228 342 1063 c 1,76,-1
 342 620 l 1,77,-1
 1024 620 l 1,78,-1
 1024 1363 l 2,79,80
 1024 1433 1024 1433 1051 1495 c 128,-1,81
 1078 1557 1078 1557 1124.5 1603.5 c 128,-1,82
 1171 1650 1171 1650 1233 1677 c 128,-1,83
 1295 1704 1295 1704 1365 1704 c 0,84,85
 1436 1704 1436 1704 1498 1677 c 128,-1,86
 1560 1650 1560 1650 1606.5 1603.5 c 128,-1,87
 1653 1557 1653 1557 1679.5 1495 c 128,-1,88
 1706 1433 1706 1433 1706 1363 c 1,89,-1
 1708 620 l 1,53,-1
EndSplineSet
EndChar
StartChar: U
Encoding: 85 85 44
Width: 2503
GlyphClass: 2
Flags: W
Fore
143 0 m 1,0,-1
 1101 1361 l 1,1,-1
 145 2732 l 1,2,-1
 480 2734 l 1,3,-1
 1270 1604 l 1,4,-1
 2057 2732 l 1,5,-1
 2395 2733 l 1,6,-1
 1439 1365 l 1,7,-1
 2396 0 l 1,8,-1
 2062 0 l 1,9,-1
 1270 1123 l 1,10,-1
 481 0 l 1,11,-1
 143 0 l 1,0,-1
EndSplineSet
EndChar
StartChar: Y
Encoding: 89 89 45
Width: 4096
GlyphClass: 2
Flags: W
Fore
3197 1388 m 0,0,1
 3197 1345 3197 1345 3207 1309 c 0,2,3
 3218 1273 3218 1273 3242 1251 c 0,4,5
 3268 1227 3268 1227 3310 1227 c 0,6,7
 3312 1228 3312 1228 3315 1228 c 0,8,9
 3419 1232 3419 1232 3421 1386 c 0,10,11
 3421 1433 3421 1433 3411 1470 c 0,12,13
 3400 1507 3400 1507 3375 1527 c 0,14,15
 3350 1548 3350 1548 3310 1548 c 0,16,17
 3201 1547 3201 1547 3197 1388 c 0,0,1
3054 1381 m 0,18,19
 3054 1435 3054 1435 3066 1481 c 0,20,21
 3079 1527 3079 1527 3109 1564 c 0,22,23
 3138 1601 3138 1601 3190 1623 c 0,24,25
 3240 1645 3240 1645 3314 1645 c 0,26,27
 3363 1644 3363 1644 3407 1630 c 0,28,29
 3451 1617 3451 1617 3487 1587 c 128,-1,30
 3523 1557 3523 1557 3544 1507 c 0,31,32
 3565 1458 3565 1458 3566 1387 c 0,33,34
 3566 1337 3566 1337 3551 1292 c 0,35,36
 3538 1248 3538 1248 3507 1211 c 0,37,38
 3477 1176 3477 1176 3429 1155 c 128,-1,39
 3381 1134 3381 1134 3315 1133 c 0,40,41
 3222 1133 3222 1133 3164 1167 c 0,42,43
 3106 1202 3106 1202 3080 1258 c 0,44,45
 3054 1315 3054 1315 3054 1381 c 0,18,19
2848 1479 m 1,46,47
 2847 1512 2847 1512 2824 1530 c 0,48,49
 2802 1548 2802 1548 2766 1548 c 0,50,51
 2727 1548 2727 1548 2706 1528 c 0,52,53
 2684 1509 2684 1509 2676 1473 c 0,54,55
 2667 1436 2667 1436 2667 1384 c 0,56,57
 2667 1230 2667 1230 2758 1228 c 1,58,59
 2763 1230 2763 1230 2771 1230 c 0,60,61
 2812 1234 2812 1234 2829 1251 c 128,-1,62
 2846 1268 2846 1268 2850 1299 c 1,63,-1
 2993 1299 l 1,64,65
 2993 1254 2993 1254 2972 1217 c 0,66,67
 2950 1181 2950 1181 2902 1158 c 0,68,69
 2878 1147 2878 1147 2846 1141 c 128,-1,70
 2814 1135 2814 1135 2775 1133 c 2,71,-1
 2761 1133 l 2,72,73
 2684 1133 2684 1133 2631 1162 c 0,74,75
 2579 1191 2579 1191 2552 1246 c 0,76,77
 2526 1300 2526 1300 2523 1371 c 1,78,-1
 2523 1387 l 2,79,80
 2523 1476 2523 1476 2552 1534 c 0,81,82
 2581 1591 2581 1591 2634 1618 c 0,83,84
 2686 1643 2686 1643 2758 1645 c 1,85,86
 2834 1645 2834 1645 2887 1624 c 0,87,88
 2939 1604 2939 1604 2966 1568 c 0,89,90
 2993 1531 2993 1531 2993 1484 c 2,91,-1
 2993 1479 l 1,92,-1
 2848 1479 l 1,46,47
2307 1639 m 1,93,-1
 2446 1639 l 1,94,-1
 2446 1143 l 1,95,-1
 2307 1143 l 1,96,-1
 2307 1639 l 1,93,-1
1893 1402 m 1,97,-1
 1720 1639 l 1,98,-1
 1895 1639 l 1,99,-1
 1991 1483 l 1,100,-1
 2091 1639 l 1,101,-1
 2247 1639 l 1,102,-1
 2072 1405 l 1,103,-1
 2256 1143 l 1,104,-1
 2082 1143 l 1,105,-1
 1975 1319 l 1,106,-1
 1866 1143 l 1,107,-1
 1707 1143 l 1,108,-1
 1893 1402 l 1,97,-1
1288 1639 m 1,109,-1
 1665 1639 l 1,110,-1
 1665 1543 l 1,111,-1
 1427 1543 l 1,112,-1
 1427 1442 l 1,113,-1
 1647 1442 l 1,114,-1
 1647 1346 l 1,115,-1
 1427 1346 l 1,116,-1
 1427 1239 l 1,117,-1
 1665 1239 l 1,118,-1
 1665 1143 l 1,119,-1
 1288 1143 l 1,120,-1
 1288 1639 l 1,109,-1
600 1639 m 1,121,-1
 816 1639 l 1,122,-1
 899 1303 l 1,123,-1
 900 1303 l 1,124,-1
 979 1639 l 1,125,-1
 1192 1639 l 1,126,-1
 1192 1143 l 1,127,-1
 1075 1143 l 1,128,-1
 1075 1556 l 1,129,-1
 1074 1557 l 1,130,-1
 955 1143 l 1,131,-1
 829 1143 l 1,132,-1
 718 1560 l 1,133,-1
 717 1559 l 1,134,-1
 717 1143 l 1,135,-1
 600 1143 l 1,136,-1
 600 1639 l 1,121,-1
2966 503 m 1,137,138
 2976 484 2976 484 2993 479 c 0,139,140
 3011 474 3011 474 3033 482 c 0,141,142
 3052 488 3052 488 3061 506 c 128,-1,143
 3070 524 3070 524 3063 545 c 0,144,145
 3056 567 3056 567 3038 576 c 0,146,147
 3021 586 3021 586 2996 577 c 0,148,149
 2970 569 2970 569 2963 550 c 0,150,151
 2956 530 2956 530 2963 508 c 1,152,153
 2966 506 2966 506 2966 503 c 1,137,138
3011 345 m 0,154,155
 3020 322 3020 322 3040 315 c 128,-1,156
 3060 308 3060 308 3087 317 c 0,157,158
 3113 326 3113 326 3123 345 c 0,159,160
 3133 363 3133 363 3125 388 c 0,161,162
 3116 412 3116 412 3097 419 c 0,163,164
 3078 427 3078 427 3051 417 c 0,165,166
 3023 408 3023 408 3013 389 c 128,-1,167
 3003 370 3003 370 3011 345 c 0,154,155
2979 430 m 1,168,169
 2946 425 2946 425 2921 432 c 128,-1,170
 2896 439 2896 439 2881 454 c 0,171,172
 2865 470 2865 470 2858 489 c 1,173,174
 2852 512 2852 512 2855 533 c 0,175,176
 2858 544 2858 544 2862.5 554 c 128,-1,177
 2867 564 2867 564 2875 574 c 0,178,179
 2891 593 2891 593 2916 609 c 0,180,181
 2942 625 2942 625 2978 637 c 0,182,183
 3020 652 3020 652 3056 653 c 128,-1,184
 3092 654 3092 654 3119 641 c 0,185,186
 3145 627 3145 627 3157 596 c 0,187,188
 3166 569 3166 569 3161 546 c 0,189,190
 3156 522 3156 522 3140 502 c 0,191,192
 3126 484 3126 484 3106 473 c 1,193,-1
 3106 471 l 1,194,195
 3147 481 3147 481 3185 467 c 0,196,197
 3222 452 3222 452 3237 408 c 0,198,199
 3250 372 3250 372 3235 340 c 0,200,201
 3220 309 3220 309 3188 285 c 0,202,203
 3172 274 3172 274 3154 264.5 c 128,-1,204
 3136 255 3136 255 3115 248 c 0,205,206
 3066 231 3066 231 3023 230 c 128,-1,207
 2980 229 2980 229 2951 246 c 128,-1,208
 2922 263 2922 263 2909 296 c 0,209,210
 2909 298 l 2,211,-1
 2909 299 l 1,212,-1
 2909 299 l 1,213,214
 2902 320 2902 320 2906 343 c 0,215,216
 2909 365 2909 365 2926 387 c 0,217,218
 2945 411 2945 411 2979 428 c 1,219,-1
 2979 430 l 1,168,169
2746 425 m 0,220,221
 2739 456 2739 456 2719 467 c 0,222,223
 2698 478 2698 478 2673 473 c 0,224,225
 2642 467 2642 467 2630 448 c 0,226,227
 2619 429 2619 429 2623 401 c 0,228,229
 2626 389 2626 389 2632 379.5 c 128,-1,230
 2638 370 2638 370 2646 363 c 0,231,232
 2664 349 2664 349 2695 355 c 0,233,234
 2713 359 2713 359 2726 370 c 0,235,236
 2732 376 2732 376 2736.5 382.5 c 128,-1,237
 2741 389 2741 389 2744 396 c 0,238,239
 2748 412 2748 412 2746 425 c 0,220,221
2564 217 m 1,240,-1
 2665 239 l 1,241,242
 2669 222 2669 222 2685 216 c 0,243,244
 2693 214 2693 214 2703.5 213.5 c 128,-1,245
 2714 213 2714 213 2726 216 c 0,246,247
 2749 221 2749 221 2760 235 c 0,248,249
 2771 247 2771 247 2774 267 c 0,250,251
 2775 276 2775 276 2775 284 c 128,-1,252
 2775 292 2775 292 2774 299 c 128,-1,253
 2773 306 2773 306 2771.5 317 c 128,-1,254
 2770 328 2770 328 2767 344 c 1,255,256
 2743 298 2743 298 2680 283 c 1,257,258
 2647 277 2647 277 2614 285 c 0,259,260
 2582 292 2582 292 2556 316 c 1,261,262
 2532 341 2532 341 2524 378 c 0,263,264
 2517 414 2517 414 2525 442 c 0,265,266
 2533 471 2533 471 2553 492 c 128,-1,267
 2573 513 2573 513 2599 526 c 0,268,269
 2613 533 2613 533 2628 538.5 c 128,-1,270
 2643 544 2643 544 2659 547 c 0,271,272
 2701 556 2701 556 2737 550 c 1,273,274
 2773 542 2773 542 2799 520 c 0,275,276
 2826 499 2826 499 2845 464 c 0,277,278
 2854 446 2854 446 2861 425.5 c 128,-1,279
 2868 405 2868 405 2873 381 c 0,280,281
 2878 358 2878 358 2879.5 335.5 c 128,-1,282
 2881 313 2881 313 2879 293 c 0,283,284
 2876 273 2876 273 2871 255.5 c 128,-1,285
 2866 238 2866 238 2857 222 c 0,286,287
 2848 207 2848 207 2836.5 194 c 128,-1,288
 2825 181 2825 181 2810 171 c 0,289,290
 2796 161 2796 161 2778 154 c 128,-1,291
 2760 147 2760 147 2740 143 c 0,292,293
 2707 136 2707 136 2679 136.5 c 128,-1,294
 2651 137 2651 137 2626 146 c 0,295,296
 2577 163 2577 163 2564 217 c 1,240,-1
2397 369 m 0,297,298
 2394 400 2394 400 2375 415 c 1,299,300
 2356 428 2356 428 2329 425 c 0,301,302
 2299 421 2299 421 2286 404 c 1,303,304
 2271 388 2271 388 2273 359 c 0,305,306
 2276 334 2276 334 2292 318 c 0,307,308
 2308 303 2308 303 2339 306 c 0,309,310
 2357 307 2357 307 2372 317 c 0,311,312
 2386 328 2386 328 2392 341 c 0,313,314
 2399 356 2399 356 2397 369 c 0,297,298
2194 183 m 1,315,-1
 2297 193 l 1,316,317
 2300 176 2300 176 2315 168 c 0,318,319
 2331 161 2331 161 2356 164 c 0,320,321
 2379 167 2379 167 2392 179 c 0,322,323
 2404 190 2404 190 2408 209 c 0,324,325
 2413 227 2413 227 2412 241 c 0,326,327
 2412 249 2412 249 2411.5 260 c 128,-1,328
 2411 271 2411 271 2410 286 c 1,329,330
 2381 244 2381 244 2317 236 c 0,331,332
 2284 233 2284 233 2251 244 c 0,333,334
 2220 255 2220 255 2198 281 c 0,335,336
 2176 308 2176 308 2172 346 c 0,337,338
 2168 381 2168 381 2179 409 c 128,-1,339
 2190 437 2190 437 2212 456 c 128,-1,340
 2234 475 2234 475 2262 486 c 0,341,342
 2290 496 2290 496 2324 500 c 0,343,344
 2367 504 2367 504 2402 494 c 0,345,346
 2437 483 2437 483 2460 459 c 1,347,348
 2485 435 2485 435 2500 398 c 0,349,350
 2515 362 2515 362 2519 313 c 0,351,352
 2524 264 2524 264 2515 224 c 0,353,354
 2508 186 2508 186 2487 156 c 0,355,356
 2476 142 2476 142 2463.5 130 c 128,-1,357
 2451 118 2451 118 2434 110 c 0,358,359
 2419 102 2419 102 2400.5 96.5 c 128,-1,360
 2382 91 2382 91 2362 89 c 0,361,362
 2329 86 2329 86 2300.5 89.5 c 128,-1,363
 2272 93 2272 93 2250 104 c 0,364,365
 2202 126 2202 126 2194 183 c 1,315,-1
1877 419 m 1,366,367
 1938 437 1938 437 1990 480 c 1,368,-1
 2080 478 l 1,369,-1
 2073 85 l 1,370,-1
 1966 86 l 1,371,-1
 1971 379 l 1,372,373
 1920 346 1920 346 1876 331 c 1,374,-1
 1877 419 l 1,366,367
1462 322 m 1,375,-1
 1620 297 l 1,376,-1
 1610 231 l 1,377,-1
 1452 256 l 1,378,-1
 1462 322 l 1,375,-1
1144 475 m 1,379,380
 1149 535 1149 535 1082 559 c 1,381,382
 1037 572 1037 572 1000 544 c 0,383,384
 981 530 981 530 968.5 510 c 128,-1,385
 956 490 956 490 948 464 c 0,386,387
 943 446 943 446 941.5 429 c 128,-1,388
 940 412 940 412 942 396 c 0,389,390
 945 363 945 363 964 340 c 1,391,392
 972 328 972 328 983 320.5 c 128,-1,393
 994 313 994 313 1007 309 c 0,394,395
 1023 304 1023 304 1038 304.5 c 128,-1,396
 1053 305 1053 305 1066 309 c 0,397,398
 1094 320 1094 320 1104 347 c 1,399,-1
 1177 325 l 1,400,401
 1162 287 1162 287 1131 267 c 0,402,403
 1099 245 1099 245 1064 241 c 0,404,405
 1027 236 1027 236 994 247 c 0,406,407
 951 260 951 260 915 294 c 0,408,409
 881 327 881 327 868 377 c 128,-1,410
 855 427 855 427 874 486 c 0,411,412
 883 517 883 517 897 540.5 c 128,-1,413
 911 564 911 564 930 581 c 0,414,415
 967 616 967 616 1012 624 c 0,416,417
 1056 633 1056 633 1098 620 c 0,418,419
 1127 611 1127 611 1150.5 595.5 c 128,-1,420
 1174 580 1174 580 1190 560 c 0,421,422
 1207 538 1207 538 1214 511 c 128,-1,423
 1221 484 1221 484 1217 453 c 1,424,-1
 1144 475 l 1,379,380
711 546 m 0,425,426
 736 616 736 616 782 664 c 1,427,428
 825 713 825 713 885 741 c 0,429,430
 914 754 914 754 944.5 761.5 c 128,-1,431
 975 769 975 769 1006 771 c 0,432,433
 1072 775 1072 775 1129 758 c 1,434,435
 1192 737 1192 737 1244 696 c 1,436,437
 1269 674 1269 674 1289 649 c 128,-1,438
 1309 624 1309 624 1325 596 c 0,439,440
 1357 538 1357 538 1364 471 c 0,441,442
 1371 402 1371 402 1350 333 c 0,443,444
 1339 295 1339 295 1317.5 261 c 128,-1,445
 1296 227 1296 227 1265 197 c 1,446,447
 1205 136 1205 136 1118 111 c 0,448,449
 1075 98 1075 98 1030.5 98 c 128,-1,450
 986 98 986 98 940 110 c 1,451,452
 896 124 896 124 858 146.5 c 128,-1,453
 820 169 820 169 788 201 c 1,454,455
 726 267 726 267 701 356 c 0,456,457
 678 444 678 444 704 532 c 1,458,459
 707 535 707 535 708 538.5 c 128,-1,460
 709 542 709 542 711 546 c 0,425,426
795 515 m 0,461,462
 784 480 784 480 781.5 446.5 c 128,-1,463
 779 413 779 413 784 381 c 0,464,465
 794 318 794 318 837 269 c 1,466,467
 880 223 880 223 954 198 c 1,468,-1
 956 199 l 2,469,470
 958 199 l 1,471,-1
 958 199 l 1,472,473
 1016 182 1016 182 1066 186 c 0,474,475
 1117 191 1117 191 1158 214 c 0,476,477
 1178 226 1178 226 1196 241.5 c 128,-1,478
 1214 257 1214 257 1227 276 c 0,479,480
 1255 313 1255 313 1270 362 c 0,481,482
 1280 395 1280 395 1281.5 427.5 c 128,-1,483
 1283 460 1283 460 1277 490 c 0,484,485
 1271 521 1271 521 1257 548 c 128,-1,486
 1243 575 1243 575 1220 598 c 1,487,488
 1178 647 1178 647 1104 669 c 0,489,490
 1031 691 1031 691 969 677 c 0,491,492
 938 671 938 671 910.5 657 c 128,-1,493
 883 643 883 643 861 621 c 0,494,495
 815 576 815 576 795 515 c 0,461,462
3826 2243 m 1,496,-1
 3930 2118 l 1,497,-1
 3786 1810 l 1,498,-1
 3788 1810 l 1,499,-1
 4023 2007 l 1,500,-1
 4086 1932 l 1,501,-1
 3770 1667 l 1,502,-1
 3669 1787 l 1,503,-1
 3817 2100 l 1,504,-1
 3816 2100 l 1,505,-1
 3575 1898 l 1,506,-1
 3509 1977 l 1,507,-1
 3826 2243 l 1,496,-1
3570 2412 m 1,508,-1
 3666 2347 l 1,509,-1
 3434 2005 l 1,510,-1
 3339 2069 l 1,511,-1
 3570 2412 l 1,508,-1
3074 2648 m 1,512,-1
 3180 2602 l 1,513,-1
 3083 2374 l 2,514,515
 3066 2334 3066 2334 3075 2302 c 0,516,517
 3084 2272 3084 2272 3122 2255 c 1,518,519
 3198 2225 3198 2225 3235 2310 c 1,520,-1
 3331 2538 l 1,521,-1
 3438 2493 l 1,522,-1
 3338 2257 l 1,523,524
 3308 2188 3308 2188 3246 2166 c 0,525,526
 3186 2144 3186 2144 3090 2182 c 0,527,528
 3070 2191 3070 2191 3052 2201.5 c 128,-1,529
 3034 2212 3034 2212 3019 2224 c 0,530,531
 2990 2249 2990 2249 2975 2279 c 0,532,533
 2959 2309 2959 2309 2958 2341 c 0,534,535
 2957 2374 2957 2374 2972 2408 c 1,536,-1
 3074 2648 l 1,512,-1
2589 2544 m 0,537,538
 2578 2488 2578 2488 2591 2447 c 0,539,540
 2604 2405 2604 2405 2657 2394 c 1,541,542
 2742 2379 2742 2379 2772 2506 c 1,543,544
 2799 2635 2799 2635 2709 2655 c 2,545,-1
 2708 2655 l 2,546,547
 2617 2673 2617 2673 2589 2544 c 0,537,538
2642 2315 m 1,548,549
 2566 2331 2566 2331 2524 2369 c 0,550,551
 2483 2408 2483 2408 2472 2457 c 0,552,553
 2467 2483 2467 2483 2466 2509 c 128,-1,554
 2465 2535 2465 2535 2470 2562 c 0,555,556
 2480 2607 2480 2607 2499 2643 c 0,557,558
 2517 2679 2517 2679 2549 2704 c 128,-1,559
 2581 2729 2581 2729 2626 2737 c 128,-1,560
 2671 2745 2671 2745 2730 2732 c 0,561,562
 2784 2720 2784 2720 2826 2690 c 0,563,564
 2868 2661 2868 2661 2886 2609 c 0,565,566
 2896 2583 2896 2583 2897 2551 c 128,-1,567
 2898 2519 2898 2519 2890 2482 c 0,568,569
 2888 2474 2888 2474 2885 2465.5 c 128,-1,570
 2882 2457 2882 2457 2877 2448 c 0,571,572
 2873 2439 2873 2439 2867 2430.5 c 128,-1,573
 2861 2422 2861 2422 2855 2414 c 0,574,575
 2841 2398 2841 2398 2821 2384 c 0,576,577
 2812 2377 2812 2377 2801.5 2372 c 128,-1,578
 2791 2367 2791 2367 2780 2362 c 1,579,-1
 2780 2361 l 1,580,581
 2793 2362 2793 2362 2805 2361 c 0,582,583
 2818 2361 2818 2361 2830 2359 c 0,584,585
 2841 2358 2841 2358 2854 2355 c 0,586,587
 2866 2353 l 128,-1,588
 2872 2352 2872 2352 2877 2351 c 1,589,-1
 2862 2277 l 1,590,-1
 2719 2308 l 2,591,592
 2717 2308 2717 2308 2710 2309 c 128,-1,593
 2703 2310 2703 2310 2690 2311 c 128,-1,594
 2677 2312 2677 2312 2665 2313 c 128,-1,595
 2653 2314 2653 2314 2642 2315 c 1,548,549
2088 2584 m 0,596,597
 2087 2566 2087 2566 2088.5 2549.5 c 128,-1,598
 2090 2533 2090 2533 2093 2518 c 0,599,600
 2101 2487 2101 2487 2121 2468 c 0,601,602
 2141 2448 2141 2448 2176 2446 c 1,603,604
 2179 2447 2179 2447 2181 2447 c 0,605,606
 2268 2447 2268 2447 2274 2576 c 0,607,608
 2275 2616 2275 2616 2268 2646 c 0,609,610
 2259 2678 2259 2678 2239 2694 c 1,611,612
 2220 2713 2220 2713 2185 2714 c 0,613,614
 2095 2716 2095 2716 2088 2584 c 0,596,597
1967 2582 m 0,615,616
 1968 2604 1968 2604 1971.5 2625 c 128,-1,617
 1975 2646 1975 2646 1981 2664 c 0,618,619
 1993 2703 1993 2703 2019 2733 c 128,-1,620
 2045 2763 2045 2763 2088 2780 c 0,621,622
 2131 2796 2131 2796 2192 2794 c 0,623,624
 2234 2792 2234 2792 2270 2780 c 1,625,626
 2306 2766 2306 2766 2335 2741 c 0,627,628
 2364 2715 2364 2715 2380 2673 c 0,629,630
 2396 2630 2396 2630 2394 2572 c 0,631,632
 2393 2551 2393 2551 2389.5 2531.5 c 128,-1,633
 2386 2512 2386 2512 2380 2493 c 0,634,635
 2367 2457 2367 2457 2340 2427 c 0,636,637
 2314 2398 2314 2398 2273 2383 c 0,638,639
 2232 2367 2232 2367 2179 2369 c 0,640,641
 2140 2370 2140 2370 2108.5 2378 c 128,-1,642
 2077 2386 2077 2386 2053 2401 c 0,643,644
 2005 2432 2005 2432 1986 2479 c 0,645,646
 1966 2526 1966 2526 1967 2582 c 0,615,616
1638 2692 m 1,647,-1
 1648 2595 l 1,648,-1
 1700 2600 l 2,649,650
 1764 2607 1764 2607 1758 2659 c 1,651,652
 1753 2683 1753 2683 1736 2691 c 0,653,654
 1719 2700 1719 2700 1687 2697 c 2,655,-1
 1638 2692 l 1,647,-1
1515 2759 m 1,656,-1
 1693 2778 l 2,657,658
 1765 2786 1765 2786 1817 2769 c 0,659,660
 1867 2752 1867 2752 1875 2691 c 0,661,662
 1880 2645 1880 2645 1853 2615 c 0,663,664
 1826 2587 1826 2587 1781 2576 c 1,665,-1
 1781 2574 l 1,666,667
 1822 2577 1822 2577 1843 2564 c 0,668,669
 1864 2550 1864 2550 1871 2533 c 0,670,671
 1877 2515 1877 2515 1889 2466 c 0,672,673
 1895 2442 1895 2442 1901.5 2421.5 c 128,-1,674
 1908 2401 1908 2401 1916 2386 c 1,675,-1
 1792 2373 l 1,676,677
 1785 2386 1785 2386 1774 2435 c 0,678,679
 1769 2459 1769 2459 1766 2472.5 c 128,-1,680
 1763 2486 1763 2486 1763 2488 c 0,681,682
 1756 2514 1756 2514 1738 2518 c 0,683,684
 1721 2521 1721 2521 1683 2518 c 2,685,-1
 1656 2515 l 1,686,-1
 1673 2361 l 1,687,-1
 1558 2349 l 1,688,-1
 1515 2759 l 1,656,-1
1189 2608 m 1,689,-1
 1212 2513 l 1,690,-1
 1263 2526 l 2,691,692
 1325 2541 1325 2541 1312 2592 c 1,693,694
 1304 2616 1304 2616 1286 2621 c 1,695,696
 1277 2625 1277 2625 1264.5 2624 c 128,-1,697
 1252 2623 1252 2623 1236 2619 c 2,698,-1
 1189 2608 l 1,689,-1
1057 2658 m 1,699,-1
 1231 2701 l 2,700,701
 1302 2719 1302 2719 1355 2709 c 128,-1,702
 1408 2699 1408 2699 1424 2640 c 0,703,704
 1435 2595 1435 2595 1413 2562 c 0,705,706
 1401 2546 1401 2546 1384.5 2533.5 c 128,-1,707
 1368 2521 1368 2521 1347 2513 c 1,708,-1
 1347 2511 l 1,709,710
 1387 2520 1387 2520 1410 2510 c 0,711,712
 1432 2500 1432 2500 1441 2483 c 0,713,714
 1446 2474 1446 2474 1453 2458 c 128,-1,715
 1460 2442 1460 2442 1469 2419 c 128,-1,716
 1478 2396 1478 2396 1487.5 2377 c 128,-1,717
 1497 2358 1497 2358 1507 2344 c 1,718,-1
 1385 2314 l 1,719,720
 1377 2327 1377 2327 1360 2372 c 0,721,722
 1351 2396 1351 2396 1346 2408.5 c 128,-1,723
 1341 2421 1341 2421 1341 2423 c 0,724,725
 1330 2447 1330 2447 1312 2449 c 128,-1,726
 1294 2451 1294 2451 1258 2442 c 2,727,-1
 1232 2435 l 1,728,-1
 1270 2285 l 1,729,-1
 1158 2257 l 1,730,-1
 1057 2658 l 1,699,-1
873 2314 m 1,731,-1
 753 2447 l 1,732,-1
 751 2446 l 1,733,-1
 774 2268 l 1,734,-1
 873 2314 l 1,731,-1
659 2494 m 1,735,-1
 785 2553 l 1,736,-1
 1106 2247 l 1,737,-1
 991 2193 l 1,738,-1
 931 2253 l 1,739,-1
 781 2183 l 1,740,-1
 791 2100 l 1,741,-1
 687 2051 l 1,742,-1
 659 2494 l 1,735,-1
7 1963 m 1,743,-1
 131 2093 l 1,744,-1
 381 1948 l 1,745,-1
 382 1949 l 1,746,-1
 226 2191 l 1,747,-1
 349 2318 l 1,748,-1
 647 2032 l 1,749,-1
 579 1961 l 1,750,-1
 331 2200 l 1,751,-1
 329 2200 l 1,752,-1
 510 1889 l 1,753,-1
 437 1814 l 1,754,-1
 123 1989 l 1,755,-1
 123 1987 l 1,756,-1
 372 1747 l 1,757,-1
 304 1676 l 1,758,-1
 7 1963 l 1,743,-1
EndSplineSet
EndChar
StartChar: Z
Encoding: 90 90 46
Width: 1135
GlyphClass: 2
Flags: W
Fore
256 -800 m 1,0,-1
 256 2943 l 1,1,-1
 1010 2943 l 1,2,-1
 1010 2655 l 1,3,-1
 576 2655 l 1,4,-1
 576 -512 l 1,5,-1
 1010 -512 l 1,6,-1
 1010 -800 l 1,7,-1
 256 -800 l 1,0,-1
EndSplineSet
EndChar
StartChar: backslash
Encoding: 92 92 47
Width: 1135
GlyphClass: 2
Flags: W
Fore
109 -800 m 1,0,-1
 109 -512 l 1,1,-1
 544 -512 l 1,2,-1
 544 2655 l 1,3,-1
 109 2655 l 1,4,-1
 109 2943 l 1,5,-1
 864 2943 l 1,6,-1
 864 -800 l 1,7,-1
 109 -800 l 1,0,-1
EndSplineSet
EndChar
StartChar: asciicircum
Encoding: 94 94 48
Width: 2281
GlyphClass: 2
Flags: W
Fore
2272 -512 m 1,0,-1
 0 -512 l 1,1,-1
 0 -320 l 1,2,-1
 2272 -320 l 1,3,-1
 2272 -512 l 1,0,-1
EndSplineSet
EndChar
StartChar: grave
Encoding: 96 96 49
Width: 2281
GlyphClass: 2
Flags: W
Fore
142 579 m 1,0,1
 156 747 156 747 216 877 c 0,2,3
 277 1006 277 1006 436 1106 c 0,4,5
 596 1205 596 1205 888 1248 c 0,6,7
 908 1251 908 1251 956.5 1254.5 c 128,-1,8
 1005 1258 1005 1258 1081 1261 c 0,9,10
 1158 1264 1158 1264 1222 1270.5 c 128,-1,11
 1286 1277 1286 1277 1335 1286 c 0,12,13
 1385 1295 1385 1295 1428.5 1315 c 128,-1,14
 1472 1335 1472 1335 1506 1364 c 0,15,16
 1576 1421 1576 1421 1576 1538 c 0,17,18
 1576 1901 1576 1901 1080 1919 c 1,19,20
 616 1919 616 1919 585 1497 c 1,21,-1
 249 1497 l 1,22,23
 249 1683 249 1683 342 1846 c 0,24,25
 389 1926 389 1926 460 1992 c 128,-1,26
 531 2058 531 2058 626 2107 c 0,27,28
 816 2207 816 2207 1093 2207 c 0,29,30
 1315 2207 1315 2207 1502 2150 c 0,31,32
 1596 2121 1596 2121 1672 2074.5 c 128,-1,33
 1748 2028 1748 2028 1805 1964 c 0,34,35
 1920 1837 1920 1837 1920 1642 c 2,36,-1
 1920 417 l 2,37,38
 1920 369 1920 369 1925 335 c 128,-1,39
 1930 301 1930 301 1940 283 c 0,40,41
 1960 246 1960 246 2023 240 c 1,42,43
 2061 247 2061 247 2094.5 252 c 128,-1,44
 2128 257 2128 257 2158 260 c 1,45,-1
 2158 0 l 1,46,47
 2094 -32 2094 -32 1920 -32 c 0,48,49
 1612 -32 1612 -32 1591 276 c 1,50,51
 1290 -46 1290 -46 822 -64 c 1,52,53
 728 -64 728 -64 640.5 -42.5 c 128,-1,54
 553 -21 553 -21 475 20 c 0,55,56
 317 106 317 106 228 246 c 0,57,58
 184 315 184 315 160 388.5 c 128,-1,59
 136 462 136 462 134 537 c 1,60,61
 142 554 142 554 142 579 c 1,0,1
1568 1103 m 1,62,63
 1550 1081 1550 1081 1503 1061.5 c 128,-1,64
 1456 1042 1456 1042 1380 1028 c 0,65,66
 1305 1013 1305 1013 1210.5 994 c 128,-1,67
 1116 975 1116 975 1004 953 c 0,68,69
 779 907 779 907 649 813 c 0,70,71
 518 720 518 720 518 546 c 1,72,73
 535 391 535 391 629.5 310 c 128,-1,74
 724 229 724 229 895 222 c 1,75,76
 969 227 969 227 1045 244.5 c 128,-1,77
 1121 262 1121 262 1199 290 c 0,78,79
 1278 319 1278 319 1343.5 361 c 128,-1,80
 1409 403 1409 403 1461 457 c 1,81,82
 1568 565 1568 565 1568 716 c 2,83,-1
 1568 1103 l 1,62,63
EndSplineSet
EndChar
StartChar: b
Encoding: 98 98 50
Width: 2281
GlyphClass: 2
Flags: W
Fore
560 0 m 1,0,-1
 224 0 l 1,1,-1
 224 2943 l 1,2,-1
 576 2943 l 1,3,-1
 576 1878 l 1,4,5
 686 2046 686 2046 837 2127 c 0,6,7
 988 2207 988 2207 1210 2207 c 0,8,9
 1348 2207 1348 2207 1469 2171.5 c 128,-1,10
 1590 2136 1590 2136 1692 2068 c 0,11,12
 1898 1929 1898 1929 2005 1686 c 0,13,14
 2112 1441 2112 1441 2112 1139 c 0,15,16
 2112 992 2112 992 2089 850 c 128,-1,17
 2066 708 2066 708 2021 571 c 0,18,19
 1976 435 1976 435 1899.5 321 c 128,-1,20
 1823 207 1823 207 1716 117 c 0,21,22
 1502 -64 1502 -64 1161 -64 c 0,23,24
 759 -64 759 -64 568 267 c 1,25,-1
 560 267 l 1,26,-1
 560 0 l 1,0,-1
1728 1078 m 0,27,28
 1728 1887 1728 1887 1141 1887 c 0,29,30
 903 1887 903 1887 773 1744 c 0,31,32
 709 1672 709 1672 666 1585 c 128,-1,33
 623 1498 623 1498 602 1398 c 0,34,35
 581 1297 581 1297 570.5 1190.5 c 128,-1,36
 560 1084 560 1084 560 972 c 0,37,38
 560 593 560 593 744 424 c 0,39,40
 930 255 930 255 1150 255 c 0,41,42
 1436 255 1436 255 1581 480 c 1,43,44
 1655 592 1655 592 1691.5 742.5 c 128,-1,45
 1728 893 1728 893 1728 1078 c 0,27,28
EndSplineSet
EndChar
StartChar: c
Encoding: 99 99 51
Width: 2048
GlyphClass: 2
Flags: W
Fore
144 1260 m 1,0,1
 158 1400 158 1400 197 1524.5 c 128,-1,2
 236 1649 236 1649 299 1755 c 0,3,4
 428 1969 428 1969 636 2082 c 0,5,6
 846 2198 846 2198 1114 2207 c 1,7,8
 1312 2207 1312 2207 1489 2141 c 0,9,10
 1578 2108 1578 2108 1655 2047.5 c 128,-1,11
 1732 1987 1732 1987 1796 1901 c 0,12,13
 1926 1730 1926 1730 1954 1436 c 1,14,-1
 1612 1436 l 1,15,16
 1581 1663 1581 1663 1442 1774 c 1,17,18
 1303 1887 1303 1887 1086 1887 c 1,19,20
 512 1849 512 1849 512 999 c 1,21,22
 523 613 523 613 681 434 c 0,23,24
 840 255 840 255 1070 255 c 0,25,26
 1272 255 1272 255 1423 392 c 0,27,28
 1575 529 1575 529 1604 761 c 1,29,-1
 1954 761 l 1,30,31
 1921 505 1921 505 1809 319 c 0,32,33
 1753 227 1753 227 1677.5 156 c 128,-1,34
 1602 85 1602 85 1509 36 c 1,35,36
 1416 -11 1416 -11 1305.5 -36.5 c 128,-1,37
 1195 -62 1195 -62 1069 -64 c 1,38,39
 942 -64 942 -64 790 -23 c 0,40,41
 715 -2 715 -2 639 37 c 128,-1,42
 563 76 563 76 487 135 c 0,43,44
 335 252 335 252 233 476 c 0,45,46
 131 701 131 701 128 1040 c 1,47,48
 136 1115 136 1115 140 1170 c 128,-1,49
 144 1225 144 1225 144 1260 c 1,0,1
EndSplineSet
EndChar
StartChar: d
Encoding: 100 100 52
Width: 2281
GlyphClass: 2
Flags: W
Fore
2016 2943 m 1,0,-1
 2016 0 l 1,1,-1
 1695 0 l 1,2,-1
 1695 299 l 1,3,4
 1633 184 1633 184 1543 111 c 1,5,6
 1452 35 1452 35 1357 -1 c 1,7,8
 1262 -40 1262 -40 1193 -52 c 128,-1,9
 1124 -64 1124 -64 1082 -64 c 0,10,11
 916 -64 916 -64 781 -19 c 128,-1,12
 646 26 646 26 542 116 c 0,13,14
 439 206 439 206 365 320 c 128,-1,15
 291 434 291 434 247 571 c 0,16,17
 160 843 160 843 160 1139 c 0,18,19
 160 1290 160 1290 186.5 1427 c 128,-1,20
 213 1564 213 1564 263 1686 c 1,21,22
 315 1807 315 1807 391 1902.5 c 128,-1,23
 467 1998 467 1998 565 2068 c 1,24,25
 664 2136 664 2136 782 2171.5 c 128,-1,26
 900 2207 900 2207 1035 2207 c 0,27,28
 1161 2207 1161 2207 1258 2181 c 128,-1,29
 1355 2155 1355 2155 1422 2104 c 0,30,31
 1490 2052 1490 2052 1551 1987 c 128,-1,32
 1612 1922 1612 1922 1664 1846 c 1,33,-1
 1664 2943 l 1,34,-1
 2016 2943 l 1,0,-1
512 1078 m 0,35,36
 512 706 512 706 658 480 c 0,37,38
 804 255 804 255 1086 255 c 0,39,40
 1305 255 1305 255 1488 423 c 128,-1,41
 1671 591 1671 591 1671 972 c 0,42,43
 1671 1887 1671 1887 1094 1887 c 0,44,45
 734 1887 734 1887 623 1645 c 128,-1,46
 512 1403 512 1403 512 1078 c 0,35,36
EndSplineSet
EndChar
StartChar: e
Encoding: 101 101 53
Width: 2281
GlyphClass: 2
Flags: W
Fore
1713 681 m 1,0,-1
 2081 681 l 1,1,2
 2072 620 2072 620 2043.5 544.5 c 128,-1,3
 2015 469 2015 469 1967 381 c 0,4,5
 1872 203 1872 203 1697 84 c 1,6,7
 1651 51 1651 51 1594.5 24.5 c 128,-1,8
 1538 -2 1538 -2 1472 -22 c 0,9,10
 1406 -43 1406 -43 1316.5 -53.5 c 128,-1,11
 1227 -64 1227 -64 1114 -64 c 0,12,13
 870 -64 870 -64 677 34 c 0,14,15
 580 83 580 83 500.5 153.5 c 128,-1,16
 421 224 421 224 359 313 c 1,17,18
 261 458 261 458 210.5 633 c 128,-1,19
 160 808 160 808 160 1012 c 0,20,21
 160 1154 160 1154 180 1285.5 c 128,-1,22
 200 1417 200 1417 239 1536 c 0,23,24
 279 1656 279 1656 339 1755.5 c 128,-1,25
 399 1855 399 1855 477 1935 c 0,26,27
 618 2081 618 2081 799 2159 c 0,28,29
 890 2198 890 2198 983.5 2218 c 128,-1,30
 1077 2238 1077 2238 1171 2238 c 0,31,32
 1247 2238 1247 2238 1321.5 2225.5 c 128,-1,33
 1396 2213 1396 2213 1468 2188 c 0,34,35
 1541 2162 1541 2162 1608 2122.5 c 128,-1,36
 1675 2083 1675 2083 1735 2030 c 1,37,38
 1857 1926 1857 1926 1938 1776 c 1,39,40
 2105 1445 2105 1445 2105 958 c 1,41,-1
 544 958 l 1,42,43
 544 619 544 619 701 437 c 0,44,45
 857 255 857 255 1163 255 c 0,46,47
 1323 255 1323 255 1446 324 c 0,48,49
 1509 358 1509 358 1557.5 401 c 128,-1,50
 1606 444 1606 444 1639 494 c 0,51,52
 1708 596 1708 596 1713 681 c 1,0,-1
544 1246 m 1,53,-1
 1730 1246 l 1,54,55
 1724 1386 1724 1386 1685 1501 c 128,-1,56
 1646 1616 1646 1616 1577 1706 c 0,57,58
 1439 1887 1439 1887 1139 1887 c 0,59,60
 976 1887 976 1887 840 1797 c 0,61,62
 772 1752 772 1752 717.5 1691.5 c 128,-1,63
 663 1631 663 1631 624 1558 c 0,64,65
 544 1409 544 1409 544 1246 c 1,53,-1
EndSplineSet
EndChar
StartChar: f
Encoding: 102 102 54
Width: 1135
GlyphClass: 2
Flags: W
Fore
352 0 m 1,0,-1
 352 1855 l 1,1,-1
 57 1855 l 1,2,-1
 57 2143 l 1,3,-1
 352 2143 l 1,4,-1
 352 2482 l 1,5,6
 370 2777 370 2777 488 2891 c 0,7,8
 606 3006 606 3006 809 3006 c 0,9,10
 862 3006 862 3006 1064 2986 c 1,11,-1
 1064 2655 l 1,12,-1
 929 2655 l 2,13,14
 877 2655 877 2655 835.5 2643 c 128,-1,15
 794 2631 794 2631 764 2609 c 1,16,17
 704 2562 704 2562 704 2426 c 2,18,-1
 704 2143 l 1,19,-1
 1064 2143 l 1,20,-1
 1064 1855 l 1,21,-1
 704 1855 l 1,22,-1
 704 0 l 1,23,-1
 352 0 l 1,0,-1
EndSplineSet
EndChar
StartChar: g
Encoding: 103 103 55
Width: 2281
GlyphClass: 2
Flags: W
Fore
128 1008 m 1,0,1
 133 1152 133 1152 153.5 1282.5 c 128,-1,2
 174 1413 174 1413 208 1527 c 0,3,4
 243 1640 243 1640 292 1737.5 c 128,-1,5
 341 1835 341 1835 403 1914 c 0,6,7
 466 1993 466 1993 541 2053.5 c 128,-1,8
 616 2114 616 2114 702 2156 c 0,9,10
 876 2238 876 2238 1094 2238 c 0,11,12
 1264 2238 1264 2238 1403 2136 c 0,13,14
 1541 2034 1541 2034 1632 1898 c 1,15,-1
 1632 2143 l 1,16,-1
 1984 2143 l 1,17,-1
 1984 93 l 2,18,19
 1984 -455 1984 -455 1711 -691 c 0,20,21
 1438 -928 1438 -928 1025 -928 c 0,22,23
 941 -928 941 -928 851.5 -914 c 128,-1,24
 762 -900 762 -900 667 -873 c 0,25,26
 573 -846 573 -846 490 -794 c 128,-1,27
 407 -742 407 -742 336 -666 c 0,28,29
 194 -512 194 -512 194 -249 c 1,30,-1
 545 -249 l 1,31,32
 545 -387 545 -387 682 -479 c 0,33,34
 820 -571 820 -571 1005 -576 c 1,35,36
 1264 -576 1264 -576 1448 -422 c 0,37,38
 1632 -269 1632 -269 1632 61 c 2,39,-1
 1632 183 l 1,40,41
 1494 43 1494 43 1331 -26.5 c 128,-1,42
 1168 -96 1168 -96 980 -96 c 0,43,44
 896 -96 896 -96 815 -76 c 128,-1,45
 734 -56 734 -56 657 -17 c 0,46,47
 501 59 501 59 382 208 c 0,48,49
 323 281 323 281 276 369.5 c 128,-1,50
 229 458 229 458 196 561 c 0,51,52
 128 767 128 767 128 1008 c 1,0,1
512 1092 m 1,53,54
 512 942 512 942 531 815.5 c 128,-1,55
 550 689 550 689 587 589 c 0,56,57
 663 387 663 387 783 292 c 0,58,59
 843 244 843 244 909.5 218.5 c 128,-1,60
 976 193 976 193 1046 190 c 1,61,62
 1062 194 1062 194 1077.5 196.5 c 128,-1,63
 1093 199 1093 199 1107 199 c 1,64,65
 1330 231 1330 231 1481 467 c 0,66,67
 1556 584 1556 584 1594 732.5 c 128,-1,68
 1632 881 1632 881 1632 1060 c 0,69,70
 1632 1184 1632 1184 1612 1289.5 c 128,-1,71
 1592 1395 1592 1395 1553 1481 c 0,72,73
 1473 1653 1473 1653 1336 1738 c 0,74,75
 1267 1780 1267 1780 1190 1801.5 c 128,-1,76
 1113 1823 1113 1823 1029 1823 c 1,77,78
 963 1815 963 1815 900 1788.5 c 128,-1,79
 837 1762 837 1762 778 1717 c 0,80,81
 660 1627 660 1627 588 1468 c 0,82,83
 552 1389 552 1389 533 1295 c 128,-1,84
 514 1201 514 1201 512 1092 c 1,53,54
EndSplineSet
EndChar
StartChar: h
Encoding: 104 104 56
Width: 2281
GlyphClass: 2
Flags: W
Fore
2016 1458 m 2,0,-1
 2016 0 l 1,1,-1
 1664 0 l 1,2,-1
 1664 1406 l 2,3,4
 1664 1645 1664 1645 1572 1765 c 0,5,6
 1479 1887 1479 1887 1229 1887 c 0,7,8
 1099 1887 1099 1887 988.5 1843.5 c 128,-1,9
 878 1800 878 1800 788 1715 c 0,10,11
 608 1544 608 1544 608 1171 c 2,12,-1
 608 0 l 1,13,-1
 256 0 l 1,14,-1
 256 2943 l 1,15,-1
 608 2943 l 1,16,-1
 608 1862 l 1,17,18
 673 1937 673 1937 719.5 1989 c 128,-1,19
 766 2041 766 2041 793 2068 c 0,20,21
 821 2096 821 2096 863 2120.5 c 128,-1,22
 905 2145 905 2145 960 2165 c 0,23,24
 1072 2207 1072 2207 1253 2207 c 0,25,26
 1351 2207 1351 2207 1443 2190.5 c 128,-1,27
 1535 2174 1535 2174 1620 2141 c 0,28,29
 1792 2077 1792 2077 1903 1910 c 1,30,31
 2016 1743 2016 1743 2016 1458 c 2,0,-1
EndSplineSet
EndChar
StartChar: i
Encoding: 105 105 57
Width: 2961
GlyphClass: 2
Flags: W
Fore
2272 560 m 1,0,-1
 2272 2943 l 1,1,-1
 2656 2943 l 1,2,-1
 2656 0 l 1,3,-1
 2207 0 l 1,4,-1
 704 2374 l 1,5,-1
 704 0 l 1,6,-1
 320 0 l 1,7,-1
 320 2943 l 1,8,-1
 790 2943 l 1,9,-1
 2272 560 l 1,0,-1
EndSplineSet
EndChar
StartChar: o
Encoding: 111 111 58
Width: 2281
GlyphClass: 2
Flags: W
Fore
160 1076 m 0,0,1
 160 1222 160 1222 187 1359.5 c 128,-1,2
 214 1497 214 1497 266 1626 c 0,3,4
 319 1755 319 1755 401 1859.5 c 128,-1,5
 483 1964 483 1964 593 2045 c 0,6,7
 814 2207 814 2207 1132 2207 c 0,8,9
 1451 2207 1451 2207 1673 2045 c 0,10,11
 1784 1964 1784 1964 1867 1858.5 c 128,-1,12
 1950 1753 1950 1753 2004 1624 c 0,13,14
 2112 1366 2112 1366 2112 1076 c 0,15,16
 2112 785 2112 785 2004 523 c 0,17,18
 1950 393 1950 393 1867 287 c 128,-1,19
 1784 181 1784 181 1673 99 c 128,-1,20
 1562 17 1562 17 1426.5 -23.5 c 128,-1,21
 1291 -64 1291 -64 1132 -64 c 128,-1,22
 973 -64 973 -64 838 -23.5 c 128,-1,23
 703 17 703 17 593 97 c 1,24,25
 483 179 483 179 401 285.5 c 128,-1,26
 319 392 319 392 266 523 c 0,27,28
 214 653 214 653 187 791.5 c 128,-1,29
 160 930 160 930 160 1076 c 0,0,1
512 1074 m 0,30,31
 512 984 512 984 525.5 892.5 c 128,-1,32
 539 801 539 801 564 709 c 0,33,34
 591 616 591 616 639 536 c 128,-1,35
 687 456 687 456 756 390 c 1,36,37
 825 322 825 322 920 288.5 c 128,-1,38
 1015 255 1015 255 1134 255 c 0,39,40
 1374 255 1374 255 1513 389 c 0,41,42
 1654 524 1654 524 1706 711 c 1,43,44
 1760 897 1760 897 1760 1074 c 0,45,46
 1760 1162 1760 1162 1746.5 1252 c 128,-1,47
 1733 1342 1733 1342 1707 1434 c 0,48,49
 1653 1621 1653 1621 1513 1753 c 1,50,51
 1373 1887 1373 1887 1134 1887 c 0,52,53
 791 1887 791 1887 652 1629 c 0,54,55
 512 1372 512 1372 512 1074 c 0,30,31
EndSplineSet
EndChar
StartChar: p
Encoding: 112 112 59
Width: 2281
GlyphClass: 2
Flags: W
Fore
224 -864 m 1,0,-1
 224 2143 l 1,1,-1
 556 2143 l 1,2,-1
 556 1837 l 1,3,4
 579 1885 579 1885 615.5 1930.5 c 128,-1,5
 652 1976 652 1976 700 2018 c 1,6,7
 750 2059 750 2059 808.5 2093.5 c 128,-1,8
 867 2128 867 2128 934 2154 c 0,9,10
 1002 2180 1002 2180 1072.5 2193.5 c 128,-1,11
 1143 2207 1143 2207 1216 2207 c 0,12,13
 1498 2207 1498 2207 1703 2039 c 1,14,15
 1907 1874 1907 1874 2009 1613 c 0,16,17
 2060 1482 2060 1482 2086 1349 c 128,-1,18
 2112 1216 2112 1216 2112 1081 c 0,19,20
 2112 804 2112 804 2004 539 c 0,21,22
 1950 408 1950 408 1869.5 298.5 c 128,-1,23
 1789 189 1789 189 1682 104 c 0,24,25
 1468 -64 1468 -64 1174 -64 c 1,26,27
 1074 -61 1074 -61 991.5 -43.5 c 128,-1,28
 909 -26 909 -26 844 5 c 128,-1,29
 779 36 779 36 712 95 c 128,-1,30
 645 154 645 154 576 238 c 1,31,-1
 576 -864 l 1,32,-1
 224 -864 l 1,0,-1
556 988 m 1,33,34
 567 602 567 602 740 428 c 0,35,36
 913 255 913 255 1165 255 c 0,37,38
 1324 255 1324 255 1453 358 c 0,39,40
 1583 460 1583 460 1655 661 c 0,41,42
 1691 760 1691 760 1709.5 878.5 c 128,-1,43
 1728 997 1728 997 1728 1132 c 1,44,45
 1716 1521 1716 1521 1569 1701 c 0,46,47
 1496 1791 1496 1791 1386 1837.5 c 128,-1,48
 1276 1884 1276 1884 1131 1887 c 1,49,50
 930 1887 930 1887 801 1764 c 0,51,52
 737 1702 737 1702 690 1620.5 c 128,-1,53
 643 1539 643 1539 614 1438 c 0,54,55
 586 1336 586 1336 571 1223.5 c 128,-1,56
 556 1111 556 1111 556 988 c 1,33,34
EndSplineSet
EndChar
StartChar: q
Encoding: 113 113 60
Width: 2961
GlyphClass: 2
Flags: W
Fore
352 0 m 1,0,-1
 352 2943 l 1,1,-1
 1758 2943 l 2,2,3
 2009 2943 2009 2943 2221 2848 c 0,4,5
 2434 2753 2434 2753 2561 2569 c 0,6,7
 2624 2477 2624 2477 2656 2367 c 128,-1,8
 2688 2257 2688 2257 2688 2130 c 0,9,10
 2688 1646 2688 1646 2304 1443 c 1,11,12
 2463 1392 2463 1392 2536 1266 c 1,13,14
 2574 1203 2574 1203 2597.5 1130.5 c 128,-1,15
 2621 1058 2621 1058 2630 976 c 0,16,17
 2640 896 2640 896 2645 790.5 c 128,-1,18
 2650 685 2650 685 2650 557 c 1,19,20
 2652 444 2652 444 2659.5 357.5 c 128,-1,21
 2667 271 2667 271 2680 213 c 0,22,23
 2694 154 2694 154 2724.5 116.5 c 128,-1,24
 2755 79 2755 79 2803 65 c 1,25,-1
 2803 0 l 1,26,-1
 2331 0 l 1,27,28
 2283 144 2283 144 2277 451 c 0,29,30
 2275 605 2275 605 2269.5 714 c 128,-1,31
 2264 823 2264 823 2257 888 c 0,32,33
 2251 952 2251 952 2219.5 1013.5 c 128,-1,34
 2188 1075 2188 1075 2134 1132 c 0,35,36
 2024 1246 2024 1246 1760 1246 c 2,37,-1
 736 1246 l 1,38,-1
 736 0 l 1,39,-1
 352 0 l 1,0,-1
736 1599 m 1,40,-1
 1770 1599 l 2,41,42
 1940 1599 1940 1599 2058 1667 c 0,43,44
 2117 1701 2117 1701 2161.5 1746.5 c 128,-1,45
 2206 1792 2206 1792 2236 1849 c 0,46,47
 2296 1963 2296 1963 2304 2089 c 1,48,49
 2304 2302 2304 2302 2187 2447 c 0,50,51
 2129 2519 2129 2519 2032.5 2555 c 128,-1,52
 1936 2591 1936 2591 1804 2591 c 2,53,-1
 736 2591 l 1,54,-1
 736 1599 l 1,40,-1
EndSplineSet
EndChar
StartChar: s
Encoding: 115 115 61
Width: 2281
GlyphClass: 2
Flags: W
Fore
1063 932 m 1,0,-1
 338 211 l 1,1,-1
 143 407 l 1,2,-1
 868 1130 l 1,3,-1
 144 1852 l 1,4,-1
 340 2048 l 1,5,-1
 1061 1326 l 1,6,-1
 1783 2048 l 1,7,-1
 1979 1852 l 1,8,-1
 1257 1130 l 1,9,-1
 1981 407 l 1,10,-1
 1785 211 l 1,11,-1
 1063 932 l 1,0,-1
EndSplineSet
EndChar
StartChar: y
Encoding: 121 121 62
Width: 1368
GlyphClass: 2
Flags: W
Fore
512 -323 m 2,0,-1
 512 419 l 2,1,2
 512 566 512 566 470 688 c 0,3,4
 449 748 449 748 419 796.5 c 128,-1,5
 389 845 389 845 350 881 c 0,6,7
 312 918 312 918 268 937.5 c 128,-1,8
 224 957 224 957 176 958 c 1,9,-1
 176 1214 l 1,10,11
 346 1214 346 1214 429 1372 c 0,12,13
 471 1450 471 1450 491.5 1537 c 128,-1,14
 512 1624 512 1624 512 1719 c 2,15,-1
 512 2455 l 2,16,17
 512 2943 512 2943 1033 2943 c 0,18,19
 1051 2943 1051 2943 1074 2941.5 c 128,-1,20
 1097 2940 1097 2940 1124 2938 c 128,-1,21
 1151 2936 1151 2936 1171 2935 c 128,-1,22
 1191 2934 1191 2934 1201 2934 c 1,23,-1
 1201 2655 l 1,24,-1
 1025 2655 l 2,25,26
 947 2655 947 2655 890 2562 c 0,27,28
 862 2516 862 2516 847 2465 c 128,-1,29
 832 2414 832 2414 832 2358 c 2,30,-1
 832 1662 l 2,31,32
 832 1602 832 1602 820.5 1541 c 128,-1,33
 809 1480 809 1480 784 1418 c 0,34,35
 736 1294 736 1294 652 1205 c 0,36,37
 611 1160 611 1160 563.5 1130 c 128,-1,38
 516 1100 516 1100 463 1085 c 1,39,40
 552 1049 552 1049 620 988.5 c 128,-1,41
 688 928 688 928 736 845 c 0,42,43
 784 761 784 761 808 667 c 128,-1,44
 832 573 832 573 832 469 c 2,45,-1
 832 -238 l 2,46,47
 832 -303 832 -303 844.5 -357.5 c 128,-1,48
 857 -412 857 -412 881 -456 c 128,-1,49
 905 -500 905 -500 939.5 -522 c 128,-1,50
 974 -544 974 -544 1017 -544 c 2,51,-1
 1201 -544 l 1,52,-1
 1201 -800 l 1,53,-1
 930 -800 l 2,54,55
 846 -800 846 -800 772.5 -764 c 128,-1,56
 699 -728 699 -728 637 -658 c 0,57,58
 512 -516 512 -516 512 -323 c 2,0,-1
EndSplineSet
EndChar
StartChar: bar
Encoding: 124 124 63
Width: 1065
GlyphClass: 2
Flags: W
Fore
392 -96 m 1,0,-1
 392 3008 l 1,1,-1
 666 3008 l 1,2,-1
 666 -96 l 1,3,-1
 392 -96 l 1,0,-1
EndSplineSet
EndChar
StartChar: braceright
Encoding: 125 125 64
Width: 1368
GlyphClass: 2
Flags: W
Fore
1192 1183 m 1,0,-1
 1192 958 l 1,1,2
 1101 958 1101 958 1026 890 c 1,3,4
 951 820 951 820 908 698 c 0,5,6
 864 575 864 575 864 428 c 2,7,-1
 864 -274 l 2,8,9
 864 -513 864 -513 739 -656 c 0,10,11
 613 -800 613 -800 442 -800 c 2,12,-1
 175 -800 l 1,13,-1
 175 -544 l 1,14,-1
 359 -544 l 2,15,16
 544 -544 544 -544 544 -208 c 2,17,-1
 544 478 l 1,18,19
 550 575 550 575 569 655.5 c 128,-1,20
 588 736 588 736 620 799 c 0,21,22
 685 926 685 926 762 985 c 1,23,24
 839 1047 839 1047 897 1065 c 1,25,-1
 897 1073 l 1,26,27
 794 1105 794 1105 676 1244 c 128,-1,28
 558 1383 558 1383 544 1633 c 1,29,-1
 544 2322 l 2,30,31
 544 2655 544 2655 359 2655 c 2,32,-1
 175 2655 l 1,33,-1
 175 2943 l 1,34,-1
 442 2943 l 2,35,36
 552 2943 552 2943 648 2879 c 0,37,38
 696 2848 696 2848 735.5 2802.5 c 128,-1,39
 775 2757 775 2757 804 2696 c 1,40,41
 864 2577 864 2577 864 2415 c 2,42,-1
 864 1701 l 2,43,44
 864 1483 864 1483 959 1332 c 0,45,46
 1054 1183 1054 1183 1192 1183 c 1,0,-1
EndSplineSet
EndChar
StartChar: asciitilde
Encoding: 126 126 65
Width: 2503
GlyphClass: 2
Flags: W
Fore
1797 134 m 1,0,-1
 2153 134 l 1,1,2
 2147 28 2147 28 2139 -53.5 c 128,-1,3
 2131 -135 2131 -135 2122 -192 c 128,-1,4
 2113 -249 2113 -249 2091 -310 c 128,-1,5
 2069 -371 2069 -371 2036 -435 c 0,6,7
 1970 -563 1970 -563 1829 -675 c 1,8,9
 1608 -864 1608 -864 1246 -864 c 0,10,11
 1131 -864 1131 -864 1023.5 -840.5 c 128,-1,12
 916 -817 916 -817 817 -770 c 128,-1,13
 718 -723 718 -723 639.5 -652.5 c 128,-1,14
 561 -582 561 -582 502 -490 c 0,15,16
 444 -398 444 -398 414 -288 c 128,-1,17
 384 -178 384 -178 384 -52 c 0,18,19
 384 45 384 45 404 128 c 128,-1,20
 424 211 424 211 463 279 c 0,21,22
 502 346 502 346 579 436.5 c 128,-1,23
 656 527 656 527 768 639 c 0,24,25
 842 713 842 713 895.5 771.5 c 128,-1,26
 949 830 949 830 983 874 c 0,27,28
 1051 961 1051 961 1083 1080 c 0,29,30
 1116 1197 1116 1197 1116 1400 c 1,31,-1
 1463 1400 l 1,32,33
 1463 1283 1463 1283 1454.5 1189.5 c 128,-1,34
 1446 1096 1446 1096 1429 1028 c 0,35,36
 1412 958 1412 958 1384.5 896.5 c 128,-1,37
 1357 835 1357 835 1321 783 c 0,38,39
 1285 730 1285 730 1226.5 660 c 128,-1,40
 1168 590 1168 590 1088 503 c 0,41,42
 1010 419 1010 419 957 358.5 c 128,-1,43
 904 298 904 298 875 263 c 0,44,45
 847 227 847 227 826 190 c 128,-1,46
 805 153 805 153 793 116 c 0,47,48
 768 39 768 39 768 -74 c 0,49,50
 768 -177 768 -177 813 -283 c 0,51,52
 859 -392 859 -392 968 -467 c 0,53,54
 1079 -544 1079 -544 1256 -544 c 0,55,56
 1797 -544 1797 -544 1797 134 c 1,0,-1
1088 1726 m 1,57,-1
 1088 2143 l 1,58,-1
 1472 2143 l 1,59,-1
 1472 1726 l 1,60,-1
 1088 1726 l 1,57,-1
EndSplineSet
EndChar
StartChar: exclamdown
Encoding: 161 161 66
Width: 1360
GlyphClass: 2
Flags: W
Fore
480 1726 m 1,0,-1
 480 2143 l 1,1,-1
 864 2143 l 1,2,-1
 864 1726 l 1,3,-1
 480 1726 l 1,0,-1
574 1441 m 1,4,-1
 769 1441 l 1,5,-1
 864 167 l 1,6,-1
 864 -799 l 1,7,-1
 480 -799 l 1,8,-1
 480 167 l 1,9,-1
 574 1441 l 1,4,-1
EndSplineSet
EndChar
StartChar: sterling
Encoding: 163 163 67
Width: 3183
GlyphClass: 2
Flags: W
Fore
136 2798 m 1,0,-1
 2936 2798 l 1,1,-1
 2936 0 l 1,2,-1
 136 0 l 1,3,-1
 136 2798 l 1,0,-1
406 2526 m 1,4,-1
 406 270 l 1,5,-1
 2659 270 l 1,6,-1
 2659 2526 l 1,7,-1
 406 2526 l 1,4,-1
1536 820 m 0,8,9
 1416 820 1416 820 1311 865.5 c 128,-1,10
 1206 911 1206 911 1127.5 990 c 128,-1,11
 1049 1069 1049 1069 1003.5 1174 c 128,-1,12
 958 1279 958 1279 958 1398 c 0,13,14
 958 1518 958 1518 1003.5 1623 c 128,-1,15
 1049 1728 1049 1728 1127.5 1806.5 c 128,-1,16
 1206 1885 1206 1885 1311 1931 c 128,-1,17
 1416 1977 1416 1977 1536 1977 c 128,-1,18
 1656 1977 1656 1977 1761 1931 c 128,-1,19
 1866 1885 1866 1885 1944.5 1806.5 c 128,-1,20
 2023 1728 2023 1728 2068.5 1623 c 128,-1,21
 2114 1518 2114 1518 2114 1398 c 0,22,23
 2114 1279 2114 1279 2068.5 1174 c 128,-1,24
 2023 1069 2023 1069 1944.5 990 c 128,-1,25
 1866 911 1866 911 1761 865.5 c 128,-1,26
 1656 820 1656 820 1536 820 c 0,8,9
EndSplineSet
EndChar
StartChar: currency
Encoding: 164 164 68
Width: 2392
GlyphClass: 2
Flags: W
Fore
171 684 m 1,0,-1
 171 956 l 1,1,-1
 2218 956 l 1,2,-1
 2218 684 l 1,3,-1
 171 684 l 1,0,-1
171 0 m 1,4,-1
 171 270 l 1,5,-1
 2218 270 l 1,6,-1
 2218 0 l 1,7,-1
 171 0 l 1,4,-1
1060 2119 m 1,8,-1
 1060 2805 l 1,9,-1
 1330 2805 l 1,10,-1
 1330 2119 l 1,11,-1
 2218 2119 l 1,12,-1
 2218 1848 l 1,13,-1
 1330 1848 l 1,14,-1
 1330 1162 l 1,15,-1
 1060 1162 l 1,16,-1
 1060 1848 l 1,17,-1
 171 1848 l 1,18,-1
 171 2119 l 1,19,-1
 1060 2119 l 1,8,-1
EndSplineSet
EndChar
StartChar: yen
Encoding: 165 165 69
Width: 3641
GlyphClass: 2
Flags: W
Fore
803 277 m 1,0,-1
 2708 277 l 1,1,-1
 2708 0 l 1,2,-1
 803 0 l 1,3,-1
 803 277 l 1,0,-1
1859 2736 m 1,4,-1
 1653 2736 l 1,5,-1
 1653 2939 l 1,6,-1
 1554 2939 l 2,7,8
 1532 2939 1532 2939 1513.5 2947 c 128,-1,9
 1495 2955 1495 2955 1480.5 2969 c 128,-1,10
 1466 2983 1466 2983 1458 3002 c 128,-1,11
 1450 3021 1450 3021 1450 3043 c 0,12,13
 1450 3064 1450 3064 1458 3083 c 128,-1,14
 1466 3102 1466 3102 1480.5 3116 c 128,-1,15
 1495 3130 1495 3130 1513.5 3138 c 128,-1,16
 1532 3146 1532 3146 1554 3146 c 2,17,-1
 1653 3146 l 1,18,-1
 1653 3246 l 2,19,20
 1653 3268 1653 3268 1661 3286.5 c 128,-1,21
 1669 3305 1669 3305 1683 3319 c 128,-1,22
 1697 3333 1697 3333 1715.5 3341 c 128,-1,23
 1734 3349 1734 3349 1756 3349 c 1,24,-1
 1756 3349 l 1,25,26
 1777 3349 1777 3349 1796 3341 c 128,-1,27
 1815 3333 1815 3333 1829 3319 c 128,-1,28
 1843 3305 1843 3305 1851 3286.5 c 128,-1,29
 1859 3268 1859 3268 1859 3246 c 2,30,-1
 1859 3146 l 1,31,-1
 1961 3146 l 2,32,33
 1982 3146 1982 3146 2001 3138 c 128,-1,34
 2020 3130 2020 3130 2034 3116 c 128,-1,35
 2048 3102 2048 3102 2056.5 3083 c 128,-1,36
 2065 3064 2065 3064 2065 3043 c 0,37,38
 2065 3021 2065 3021 2056.5 3002 c 128,-1,39
 2048 2983 2048 2983 2034.5 2969 c 128,-1,40
 2021 2955 2021 2955 2002 2947 c 128,-1,41
 1983 2939 1983 2939 1961 2939 c 2,42,-1
 1859 2939 l 1,43,-1
 1859 2736 l 1,4,-1
3098 1622 m 1,44,45
 3115 1667 3115 1667 3126.5 1720 c 128,-1,46
 3138 1773 3138 1773 3138 1829 c 0,47,48
 3138 1942 3138 1942 3088.5 2042 c 128,-1,49
 3039 2142 3039 2142 2953.5 2216 c 128,-1,50
 2868 2290 2868 2290 2753.5 2333 c 128,-1,51
 2639 2376 2639 2376 2509 2376 c 128,-1,52
 2379 2376 2379 2376 2264.5 2333 c 128,-1,53
 2150 2290 2150 2290 2064.5 2216 c 128,-1,54
 1979 2142 1979 2142 1929.5 2042 c 128,-1,55
 1880 1942 1880 1942 1880 1829 c 128,-1,56
 1880 1716 1880 1716 1929.5 1616.5 c 128,-1,57
 1979 1517 1979 1517 2064 1442.5 c 128,-1,58
 2149 1368 2149 1368 2263 1325 c 128,-1,59
 2377 1282 2377 1282 2506 1283 c 0,60,61
 2530 1283 2530 1283 2551 1275 c 128,-1,62
 2572 1267 2572 1267 2588 1253 c 128,-1,63
 2604 1239 2604 1239 2613 1220.5 c 128,-1,64
 2622 1202 2622 1202 2622 1180 c 1,65,-1
 2622 1180 l 1,66,67
 2622 1159 2622 1159 2613 1140 c 128,-1,68
 2604 1121 2604 1121 2588 1107 c 128,-1,69
 2572 1093 2572 1093 2551 1084.5 c 128,-1,70
 2530 1076 2530 1076 2506 1076 c 0,71,72
 2387 1076 2387 1076 2276.5 1103.5 c 128,-1,73
 2166 1131 2166 1131 2069 1180.5 c 128,-1,74
 1972 1230 1972 1230 1892.5 1300 c 128,-1,75
 1813 1370 1813 1370 1756 1455 c 1,76,77
 1698 1370 1698 1370 1618 1300 c 128,-1,78
 1538 1230 1538 1230 1441.5 1180.5 c 128,-1,79
 1345 1131 1345 1131 1234.5 1103.5 c 128,-1,80
 1124 1076 1124 1076 1005 1076 c 0,81,82
 982 1076 982 1076 961 1084.5 c 128,-1,83
 940 1093 940 1093 924 1107 c 128,-1,84
 908 1121 908 1121 898.5 1140 c 128,-1,85
 889 1159 889 1159 889 1180 c 1,86,-1
 889 1180 l 1,87,88
 889 1202 889 1202 898.5 1220.5 c 128,-1,89
 908 1239 908 1239 924 1253 c 128,-1,90
 940 1267 940 1267 961 1275 c 128,-1,91
 982 1283 982 1283 1005 1283 c 0,92,93
 1134 1282 1134 1282 1248 1325 c 128,-1,94
 1362 1368 1362 1368 1447 1442.5 c 128,-1,95
 1532 1517 1532 1517 1581.5 1616.5 c 128,-1,96
 1631 1716 1631 1716 1631 1829 c 128,-1,97
 1631 1942 1631 1942 1581.5 2042 c 128,-1,98
 1532 2142 1532 2142 1446.5 2216 c 128,-1,99
 1361 2290 1361 2290 1246.5 2333 c 128,-1,100
 1132 2376 1132 2376 1002 2376 c 128,-1,101
 872 2376 872 2376 757.5 2333 c 128,-1,102
 643 2290 643 2290 557 2216 c 128,-1,103
 471 2142 471 2142 421.5 2042 c 128,-1,104
 372 1942 372 1942 372 1829 c 0,105,106
 372 1773 372 1773 385 1719.5 c 128,-1,107
 398 1666 398 1666 422 1618 c 1,108,-1
 938 620 l 1,109,-1
 2573 620 l 1,110,-1
 3098 1622 l 1,44,45
1756 2204 m 1,111,112
 1813 2288 1813 2288 1894 2358 c 128,-1,113
 1975 2428 1975 2428 2075 2478 c 1,114,115
 2003 2502 2003 2502 1922 2514 c 128,-1,116
 1841 2526 1841 2526 1756 2526 c 0,117,118
 1673 2526 1673 2526 1593.5 2514.5 c 128,-1,119
 1514 2503 1514 2503 1441 2480 c 1,120,121
 1538 2429 1538 2429 1617.5 2358.5 c 128,-1,122
 1697 2288 1697 2288 1756 2204 c 1,111,112
3326 1569 m 1,123,-1
 2708 413 l 1,124,-1
 803 413 l 1,125,-1
 185 1570 l 1,126,127
 162 1631 162 1631 149 1696 c 128,-1,128
 136 1761 136 1761 136 1829 c 0,129,130
 136 1907 136 1907 153.5 1981 c 128,-1,131
 171 2055 171 2055 204 2122.5 c 128,-1,132
 237 2190 237 2190 284 2250 c 128,-1,133
 331 2310 331 2310 390 2361.5 c 128,-1,134
 449 2413 449 2413 518 2453.5 c 128,-1,135
 587 2494 587 2494 665 2523 c 128,-1,136
 743 2552 743 2552 828 2567.5 c 128,-1,137
 913 2583 913 2583 1002 2583 c 0,138,139
 1028 2583 1028 2583 1054 2581 c 128,-1,140
 1080 2579 1080 2579 1106 2576 c 1,141,142
 1248 2650 1248 2650 1412.5 2691.5 c 128,-1,143
 1577 2733 1577 2733 1756 2733 c 0,144,145
 1933 2733 1933 2733 2098 2691.5 c 128,-1,146
 2263 2650 2263 2650 2406 2576 c 1,147,148
 2431 2579 2431 2579 2457 2581 c 128,-1,149
 2483 2583 2483 2583 2509 2583 c 0,150,151
 2599 2583 2599 2583 2683.5 2567.5 c 128,-1,152
 2768 2552 2768 2552 2845.5 2523 c 128,-1,153
 2923 2494 2923 2494 2992.5 2453.5 c 128,-1,154
 3062 2413 3062 2413 3121 2361.5 c 128,-1,155
 3180 2310 3180 2310 3227 2250 c 128,-1,156
 3274 2190 3274 2190 3307 2122.5 c 128,-1,157
 3340 2055 3340 2055 3357.5 1981 c 128,-1,158
 3375 1907 3375 1907 3375 1829 c 0,159,160
 3375 1761 3375 1761 3361.5 1696 c 128,-1,161
 3348 1631 3348 1631 3326 1569 c 1,123,-1
EndSplineSet
EndChar
StartChar: section
Encoding: 167 167 70
Width: 2736
GlyphClass: 2
Flags: W
Fore
136 0 m 1,0,-1
 136 2798 l 1,1,-1
 406 2798 l 1,2,-1
 406 270 l 1,3,-1
 2460 270 l 1,4,-1
 2460 0 l 1,5,-1
 136 0 l 1,0,-1
EndSplineSet
EndChar
StartChar: dieresis
Encoding: 168 168 71
Width: 2503
GlyphClass: 2
Flags: W
Fore
461 620 m 1,0,-1
 2131 620 l 1,1,2
 2187 722 2187 722 2218 839 c 128,-1,3
 2249 956 2249 956 2249 1080 c 0,4,5
 2249 1237 2249 1237 2200.5 1380.5 c 128,-1,6
 2152 1524 2152 1524 2065.5 1643 c 128,-1,7
 1979 1762 1979 1762 1859.5 1850.5 c 128,-1,8
 1740 1939 1740 1939 1599 1989 c 1,9,10
 1527 2000 1527 2000 1477 2032.5 c 128,-1,11
 1427 2065 1427 2065 1418 2113 c 0,12,13
 1414 2139 1414 2139 1422.5 2165 c 128,-1,14
 1431 2191 1431 2191 1451 2215 c 128,-1,15
 1471 2239 1471 2239 1501 2260.5 c 128,-1,16
 1531 2282 1531 2282 1569 2299 c 1,17,18
 1633 2333 1633 2333 1633 2380 c 0,19,20
 1633 2410 1633 2410 1606 2436.5 c 128,-1,21
 1579 2463 1579 2463 1532.5 2483 c 128,-1,22
 1486 2503 1486 2503 1423.5 2514.5 c 128,-1,23
 1361 2526 1361 2526 1290 2526 c 128,-1,24
 1219 2526 1219 2526 1156.5 2514.5 c 128,-1,25
 1094 2503 1094 2503 1047.5 2483 c 128,-1,26
 1001 2463 1001 2463 974 2436.5 c 128,-1,27
 947 2410 947 2410 947 2380 c 0,28,29
 947 2354 947 2354 968.5 2330 c 128,-1,30
 990 2306 990 2306 1028 2286 c 1,31,32
 1089 2251 1089 2251 1121.5 2205 c 128,-1,33
 1154 2159 1154 2159 1146 2113 c 0,34,35
 1138 2070 1138 2070 1095.5 2038.5 c 128,-1,36
 1053 2007 1053 2007 988 1991 c 1,37,38
 846 1941 846 1941 726 1851.5 c 128,-1,39
 606 1762 606 1762 519.5 1643 c 128,-1,40
 433 1524 433 1524 384 1380.5 c 128,-1,41
 335 1237 335 1237 335 1080 c 0,42,43
 335 954 335 954 369 837.5 c 128,-1,44
 403 721 403 721 461 620 c 1,0,-1
340 413 m 1,45,46
 239 555 239 555 187.5 724.5 c 128,-1,47
 136 894 136 894 136 1080 c 0,48,49
 136 1263 136 1263 190 1430 c 128,-1,50
 244 1597 244 1597 342 1737.5 c 128,-1,51
 440 1878 440 1878 575 1985.5 c 128,-1,52
 710 2093 710 2093 872 2157 c 1,53,54
 814 2203 814 2203 780.5 2259 c 128,-1,55
 747 2315 747 2315 747 2376 c 0,56,57
 747 2447 747 2447 790.5 2509.5 c 128,-1,58
 834 2572 834 2572 909.5 2618.5 c 128,-1,59
 985 2665 985 2665 1086 2692 c 128,-1,60
 1187 2719 1187 2719 1301 2719 c 0,61,62
 1416 2719 1416 2719 1517 2692 c 128,-1,63
 1618 2665 1618 2665 1693 2618.5 c 128,-1,64
 1768 2572 1768 2572 1812 2509.5 c 128,-1,65
 1856 2447 1856 2447 1856 2376 c 0,66,67
 1856 2312 1856 2312 1819.5 2255 c 128,-1,68
 1783 2198 1783 2198 1720 2154 c 1,69,70
 1880 2090 1880 2090 2014 1982.5 c 128,-1,71
 2148 1875 2148 1875 2244.5 1735.5 c 128,-1,72
 2341 1596 2341 1596 2395 1429 c 128,-1,73
 2449 1262 2449 1262 2449 1080 c 0,74,75
 2449 894 2449 894 2397.5 724.5 c 128,-1,76
 2346 555 2346 555 2245 413 c 1,77,-1
 340 413 l 1,45,46
340 277 m 1,78,-1
 2245 277 l 1,79,-1
 2245 0 l 1,80,-1
 340 0 l 1,81,-1
 340 277 l 1,78,-1
EndSplineSet
EndChar
StartChar: copyright
Encoding: 169 169 72
Width: 3183
GlyphClass: 2
Flags: W
Fore
3000 613 m 1,0,-1
 3000 0 l 1,1,-1
 136 0 l 1,2,-1
 136 613 l 2,3,4
 136 761 136 761 165 901.5 c 128,-1,5
 194 1042 194 1042 248.5 1171 c 128,-1,6
 303 1300 303 1300 381 1415 c 128,-1,7
 459 1530 459 1530 557 1627.5 c 128,-1,8
 655 1725 655 1725 770 1803 c 128,-1,9
 885 1881 885 1881 1013.5 1935.5 c 128,-1,10
 1142 1990 1142 1990 1282.5 2019.5 c 128,-1,11
 1423 2049 1423 2049 1572 2049 c 0,12,13
 1720 2049 1720 2049 1860.5 2019.5 c 128,-1,14
 2001 1990 2001 1990 2129.5 1935.5 c 128,-1,15
 2258 1881 2258 1881 2372.5 1803 c 128,-1,16
 2487 1725 2487 1725 2584 1627.5 c 128,-1,17
 2681 1530 2681 1530 2758.5 1415 c 128,-1,18
 2836 1300 2836 1300 2890 1171 c 128,-1,19
 2944 1042 2944 1042 2972.5 901.5 c 128,-1,20
 3001 761 3001 761 3000 613 c 1,0,-1
2730 613 m 2,21,22
 2730 733 2730 733 2706.5 847 c 128,-1,23
 2683 961 2683 961 2639 1065 c 128,-1,24
 2595 1169 2595 1169 2532.5 1262.5 c 128,-1,25
 2470 1356 2470 1356 2391.5 1435 c 128,-1,26
 2313 1514 2313 1514 2220 1577.5 c 128,-1,27
 2127 1641 2127 1641 2023 1685 c 128,-1,28
 1919 1729 1919 1729 1805.5 1753 c 128,-1,29
 1692 1777 1692 1777 1572 1777 c 0,30,31
 1451 1777 1451 1777 1337 1753 c 128,-1,32
 1223 1729 1223 1729 1118.5 1685 c 128,-1,33
 1014 1641 1014 1641 920.5 1577.5 c 128,-1,34
 827 1514 827 1514 748 1435 c 128,-1,35
 669 1356 669 1356 605.5 1262.5 c 128,-1,36
 542 1169 542 1169 497.5 1065 c 128,-1,37
 453 961 453 961 429.5 847 c 128,-1,38
 406 733 406 733 406 613 c 2,39,-1
 406 270 l 1,40,-1
 2730 270 l 1,41,-1
 2730 613 l 2,21,22
EndSplineSet
EndChar
StartChar: ordfeminine
Encoding: 170 170 73
Width: 2961
GlyphClass: 2
Flags: W
Fore
2019 198 m 2,0,1
 2020 198 2020 198 2020 215.5 c 128,-1,2
 2020 233 2020 233 2020 258.5 c 128,-1,3
 2020 284 2020 284 2019.5 313 c 128,-1,4
 2019 342 2019 342 2019 366 c 2,5,-1
 2019 506 l 2,6,7
 2019 582 2019 582 2008.5 639 c 128,-1,8
 1998 696 1998 696 1980 733 c 0,9,10
 1962 772 1962 772 1913.5 830 c 128,-1,11
 1865 888 1865 888 1790 965 c 2,12,-1
 1530 1230 l 1,13,14
 1376 1391 1376 1391 1376 1476 c 0,15,16
 1376 1507 1376 1507 1419 1569 c 128,-1,17
 1462 1631 1462 1631 1546 1719 c 1,18,-1
 1770 1946 l 1,19,20
 1853 2032 1853 2032 1905 2093 c 128,-1,21
 1957 2154 1957 2154 1976 2190 c 0,22,23
 1996 2225 1996 2225 2006 2277 c 128,-1,24
 2016 2329 2016 2329 2016 2393 c 1,25,-1
 2019 2662 l 1,26,-1
 449 2662 l 1,27,-1
 449 2392 l 2,28,29
 449 2327 449 2327 461.5 2276 c 128,-1,30
 474 2225 474 2225 488 2190 c 0,31,32
 503 2152 503 2152 557 2092 c 128,-1,33
 611 2032 611 2032 692 1946 c 1,34,-1
 918 1719 l 1,35,36
 1002 1631 1002 1631 1045 1567 c 128,-1,37
 1088 1503 1088 1503 1088 1466 c 128,-1,38
 1088 1429 1088 1429 1049 1369.5 c 128,-1,39
 1010 1310 1010 1310 932 1230 c 2,40,-1
 672 965 l 2,41,42
 597 888 597 888 550.5 830 c 128,-1,43
 504 772 504 772 486 735 c 0,44,45
 468 696 468 696 458.5 639.5 c 128,-1,46
 449 583 449 583 449 506 c 2,47,-1
 449 362 l 2,48,49
 449 331 449 331 449 301.5 c 128,-1,50
 449 272 449 272 449 249.5 c 128,-1,51
 449 227 449 227 449 212 c 0,52,53
 449 199 449 199 449 198 c 1,54,-1
 2019 198 l 2,0,1
2111 198 m 1,55,-1
 2154 198 l 2,56,57
 2175 198 2175 198 2193 190.5 c 128,-1,58
 2211 183 2211 183 2224.5 169.5 c 128,-1,59
 2238 156 2238 156 2246 137.5 c 128,-1,60
 2254 119 2254 119 2254 99 c 2,61,-1
 2254 98 l 2,62,63
 2254 78 2254 78 2246 59.5 c 128,-1,64
 2238 41 2238 41 2224.5 27.5 c 128,-1,65
 2211 14 2211 14 2193 7 c 128,-1,66
 2175 0 2175 0 2154 0 c 2,67,-1
 306 0 l 2,68,69
 285 0 285 0 267 7 c 128,-1,70
 249 14 249 14 235.5 27.5 c 128,-1,71
 222 41 222 41 214 59.5 c 128,-1,72
 206 78 206 78 206 98 c 2,73,-1
 206 99 l 2,74,75
 206 119 206 119 214 137.5 c 128,-1,76
 222 156 222 156 235.5 169.5 c 128,-1,77
 249 183 249 183 267 190.5 c 128,-1,78
 285 198 285 198 306 198 c 2,79,-1
 349 198 l 1,80,-1
 349 467 l 2,81,82
 349 561 349 561 362.5 637.5 c 128,-1,83
 376 714 376 714 400 770 c 0,84,85
 424 827 424 827 475 897 c 128,-1,86
 526 967 526 967 602 1047 c 2,87,-1
 866 1325 l 2,88,89
 929 1391 929 1391 960.5 1435.5 c 128,-1,90
 992 1480 992 1480 992 1500 c 128,-1,91
 992 1520 992 1520 953.5 1570.5 c 128,-1,92
 915 1621 915 1621 838 1697 c 1,93,-1
 574 1969 l 2,94,95
 508 2037 508 2037 462.5 2101 c 128,-1,96
 417 2165 417 2165 396 2222 c 0,97,98
 386 2250 386 2250 377 2303 c 128,-1,99
 368 2356 368 2356 361.5 2419 c 128,-1,100
 355 2482 355 2482 352 2546.5 c 128,-1,101
 349 2611 349 2611 349 2662 c 1,102,-1
 306 2662 l 2,103,104
 286 2662 286 2662 267.5 2670 c 128,-1,105
 249 2678 249 2678 235.5 2691.5 c 128,-1,106
 222 2705 222 2705 214 2723 c 128,-1,107
 206 2741 206 2741 206 2762 c 128,-1,108
 206 2783 206 2783 214 2801 c 128,-1,109
 222 2819 222 2819 235.5 2832.5 c 128,-1,110
 249 2846 249 2846 267 2854 c 128,-1,111
 285 2862 285 2862 306 2862 c 2,112,-1
 2154 2862 l 2,113,114
 2175 2862 2175 2862 2193 2854 c 128,-1,115
 2211 2846 2211 2846 2224.5 2832.5 c 128,-1,116
 2238 2819 2238 2819 2246 2801 c 128,-1,117
 2254 2783 2254 2783 2254 2762 c 128,-1,118
 2254 2741 2254 2741 2246 2723 c 128,-1,119
 2238 2705 2238 2705 2224.5 2691.5 c 128,-1,120
 2211 2678 2211 2678 2193 2670 c 128,-1,121
 2175 2662 2175 2662 2154 2662 c 2,122,-1
 2111 2662 l 1,123,124
 2111 2611 2111 2611 2108.5 2546.5 c 128,-1,125
 2106 2482 2106 2482 2100.5 2419 c 128,-1,126
 2095 2356 2095 2356 2087 2303 c 128,-1,127
 2079 2250 2079 2250 2068 2222 c 0,128,129
 2046 2165 2046 2165 2000 2101 c 128,-1,130
 1954 2037 1954 2037 1888 1969 c 2,131,-1
 1624 1697 l 2,132,133
 1549 1621 1549 1621 1510.5 1570.5 c 128,-1,134
 1472 1520 1472 1520 1472 1500 c 128,-1,135
 1472 1480 1472 1480 1503.5 1435.5 c 128,-1,136
 1535 1391 1535 1391 1596 1325 c 1,137,-1
 1860 1047 l 2,138,139
 1937 967 1937 967 1988 897 c 128,-1,140
 2039 827 2039 827 2062 772 c 0,141,142
 2087 715 2087 715 2099 637.5 c 128,-1,143
 2111 560 2111 560 2111 464 c 2,144,-1
 2111 198 l 1,55,-1
532 428 m 1,145,146
 547 487 547 487 608 543.5 c 128,-1,147
 669 600 669 600 774 655 c 1,148,-1
 954 744 l 2,149,150
 1038 786 1038 786 1088.5 815.5 c 128,-1,151
 1139 845 1139 845 1154 859 c 0,152,153
 1171 874 1171 874 1191 908 c 128,-1,154
 1211 942 1211 942 1232 992 c 1,155,156
 1253 942 1253 942 1272 908 c 128,-1,157
 1291 874 1291 874 1306 861 c 1,158,159
 1321 845 1321 845 1371 815.5 c 128,-1,160
 1421 786 1421 786 1502 744 c 2,161,-1
 1678 655 l 1,162,163
 1780 600 1780 600 1839.5 543.5 c 128,-1,164
 1899 487 1899 487 1914 428 c 1,165,166
 1788 359 1788 359 1615 323.5 c 128,-1,167
 1442 288 1442 288 1224 288 c 0,168,169
 1005 288 1005 288 831.5 323.5 c 128,-1,170
 658 359 658 359 532 428 c 1,145,146
648 2286 m 1,171,172
 795 2191 795 2191 939 2142 c 128,-1,173
 1083 2093 1083 2093 1224 2093 c 128,-1,174
 1365 2093 1365 2093 1510.5 2142 c 128,-1,175
 1656 2191 1656 2191 1804 2286 c 1,176,177
 1781 2247 1781 2247 1725.5 2181 c 128,-1,178
 1670 2115 1670 2115 1586 2025 c 1,179,-1
 1422 1844 l 2,180,181
 1368 1785 1368 1785 1334 1743 c 128,-1,182
 1300 1701 1300 1701 1288 1679 c 0,183,184
 1276 1655 1276 1655 1266 1610.5 c 128,-1,185
 1256 1566 1256 1566 1250 1501 c 0,186,187
 1248 1482 1248 1482 1243 1451 c 128,-1,188
 1238 1420 1238 1420 1232 1382 c 1,189,190
 1226 1420 1226 1420 1221 1451 c 128,-1,191
 1216 1482 1216 1482 1214 1501 c 0,192,193
 1205 1566 1205 1566 1194.5 1610 c 128,-1,194
 1184 1654 1184 1654 1172 1677 c 0,195,196
 1160 1701 1160 1701 1126 1743 c 128,-1,197
 1092 1785 1092 1785 1036 1844 c 1,198,-1
 868 2025 l 1,199,200
 783 2115 783 2115 728 2181 c 128,-1,201
 673 2247 673 2247 648 2286 c 1,171,172
EndSplineSet
EndChar
StartChar: logicalnot
Encoding: 172 172 74
Width: 2961
GlyphClass: 2
Flags: W
Fore
2190 3276 m 1,0,-1
 2460 3276 l 2,1,2
 2487 3276 2487 3276 2511.5 3265 c 128,-1,3
 2536 3254 2536 3254 2554.5 3235.5 c 128,-1,4
 2573 3217 2573 3217 2584 3192.5 c 128,-1,5
 2595 3168 2595 3168 2595 3140 c 2,6,-1
 2595 2558 l 2,7,8
 2595 2531 2595 2531 2584.5 2506 c 128,-1,9
 2574 2481 2574 2481 2555.5 2462.5 c 128,-1,10
 2537 2444 2537 2444 2512.5 2433.5 c 128,-1,11
 2488 2423 2488 2423 2460 2423 c 2,12,-1
 2254 2423 l 1,13,14
 2252 2231 2252 2231 2273 2059.5 c 128,-1,15
 2294 1888 2294 1888 2337 1726.5 c 128,-1,16
 2380 1565 2380 1565 2445 1409 c 128,-1,17
 2510 1253 2510 1253 2595 1091 c 1,18,-1
 2595 413 l 1,19,-1
 1365 413 l 1,20,-1
 136 413 l 1,21,-1
 136 1091 l 1,22,23
 221 1253 221 1253 285.5 1409 c 128,-1,24
 350 1565 350 1565 393.5 1726.5 c 128,-1,25
 437 1888 437 1888 458 2059.5 c 128,-1,26
 479 2231 479 2231 477 2423 c 1,27,-1
 274 2423 l 2,28,29
 247 2423 247 2423 221.5 2433.5 c 128,-1,30
 196 2444 196 2444 177 2462.5 c 128,-1,31
 158 2481 158 2481 147 2506 c 128,-1,32
 136 2531 136 2531 136 2558 c 2,33,-1
 136 3141 l 2,34,35
 136 3169 136 3169 146.5 3193.5 c 128,-1,36
 157 3218 157 3218 175.5 3236.5 c 128,-1,37
 194 3255 194 3255 218.5 3265.5 c 128,-1,38
 243 3276 243 3276 271 3276 c 2,39,-1
 555 3276 l 1,40,-1
 754 3276 l 1,41,-1
 754 3076 l 1,42,-1
 1159 3076 l 1,43,-1
 1159 3276 l 1,44,-1
 1572 3276 l 1,45,-1
 1572 3076 l 1,46,-1
 1977 3076 l 1,47,-1
 1977 3276 l 1,48,-1
 2190 3276 l 1,0,-1
136 277 m 1,49,-1
 2595 277 l 1,50,-1
 2595 0 l 1,51,-1
 136 0 l 1,52,-1
 136 277 l 1,49,-1
1708 620 m 1,53,-1
 2389 620 l 1,54,-1
 2389 1063 l 1,55,56
 2304 1228 2304 1228 2238.5 1388 c 128,-1,57
 2173 1548 2173 1548 2129.5 1712.5 c 128,-1,58
 2086 1877 2086 1877 2065 2052 c 128,-1,59
 2044 2227 2044 2227 2048 2423 c 1,60,-1
 2048 2626 l 1,61,-1
 2389 2626 l 1,62,-1
 2389 3076 l 1,63,-1
 2183 3076 l 1,64,-1
 2183 2869 l 1,65,-1
 548 2869 l 1,66,-1
 548 3076 l 1,67,-1
 342 3076 l 1,68,-1
 342 2626 l 1,69,-1
 683 2626 l 1,70,-1
 683 2423 l 1,71,72
 686 2227 686 2227 665 2052 c 128,-1,73
 644 1877 644 1877 600.5 1712.5 c 128,-1,74
 557 1548 557 1548 492 1388 c 128,-1,75
 427 1228 427 1228 342 1063 c 1,76,-1
 342 620 l 1,77,-1
 1024 620 l 1,78,-1
 1024 1363 l 2,79,80
 1024 1433 1024 1433 1051 1495 c 128,-1,81
 1078 1557 1078 1557 1124.5 1603.5 c 128,-1,82
 1171 1650 1171 1650 1233 1677 c 128,-1,83
 1295 1704 1295 1704 1365 1704 c 0,84,85
 1436 1704 1436 1704 1498 1677 c 128,-1,86
 1560 1650 1560 1650 1606.5 1603.5 c 128,-1,87
 1653 1557 1653 1557 1679.5 1495 c 128,-1,88
 1706 1433 1706 1433 1706 1363 c 1,89,-1
 1708 620 l 1,53,-1
EndSplineSet
EndChar
StartChar: registered
Encoding: 174 174 75
Width: 3183
GlyphClass: 2
Flags: W
Fore
1024 1912 m 1,0,-1
 1024 2798 l 1,1,-1
 2936 2798 l 1,2,-1
 2936 884 l 1,3,-1
 2048 884 l 1,4,-1
 2048 0 l 1,5,-1
 136 0 l 1,6,-1
 136 1912 l 1,7,-1
 1024 1912 l 1,0,-1
EndSplineSet
EndChar
StartChar: plusminus
Encoding: 177 177 76
Width: 2392
GlyphClass: 2
Flags: W
Fore
171 1904 m 1,0,-1
 2218 1904 l 1,1,-1
 2218 1633 l 1,2,-1
 171 1633 l 1,3,-1
 171 1904 l 1,0,-1
171 2590 m 1,4,-1
 2218 2590 l 1,5,-1
 2218 2319 l 1,6,-1
 171 2319 l 1,7,-1
 171 2590 l 1,4,-1
654 62 m 0,8,9
 587 62 587 62 523 77 c 128,-1,10
 459 92 459 92 397 122 c 0,11,12
 274 183 274 183 194 314 c 0,13,14
 114 446 114 446 114 641 c 0,15,16
 114 850 114 850 206 978 c 0,17,18
 298 1107 298 1107 430 1159 c 0,19,20
 561 1211 561 1211 686 1211 c 0,21,22
 985 1211 985 1211 1093 971 c 1,23,24
 1241 1274 1241 1274 1606 1274 c 0,25,26
 1671 1274 1671 1274 1735.5 1265.5 c 128,-1,27
 1800 1257 1800 1257 1864 1241 c 0,28,29
 1927 1226 1927 1226 1986.5 1188 c 128,-1,30
 2046 1150 2046 1150 2100 1090 c 1,31,32
 2139 1041 2139 1041 2169.5 985.5 c 128,-1,33
 2200 930 2200 930 2220 870 c 1,34,35
 2263 750 2263 750 2263 631 c 0,36,37
 2263 501 2263 501 2213 387 c 0,38,39
 2165 274 2165 274 2073 185 c 0,40,41
 2028 142 2028 142 1974.5 107 c 128,-1,42
 1921 72 1921 72 1860 48 c 0,43,44
 1739 0 1739 0 1596 0 c 0,45,46
 1450 0 1450 0 1309 68 c 1,47,48
 1170 139 1170 139 1093 306 c 1,49,50
 1045 231 1045 231 1005 184 c 0,51,52
 967 140 967 140 878 101 c 0,53,54
 835 81 835 81 778.5 71.5 c 128,-1,55
 722 62 722 62 654 62 c 0,8,9
1244 635 m 0,56,57
 1244 476 1244 476 1343 372 c 1,58,59
 1443 270 1443 270 1632 270 c 0,60,61
 2012 270 2012 270 2012 625 c 0,62,63
 2012 768 2012 768 1950 852 c 0,64,65
 1888 937 1888 937 1799 970 c 0,66,67
 1709 1004 1709 1004 1615 1004 c 128,-1,68
 1521 1004 1521 1004 1435 962 c 0,69,70
 1350 922 1350 922 1296 837 c 0,71,72
 1244 754 1244 754 1244 635 c 0,56,57
976 650 m 0,73,74
 976 778 976 778 891 872 c 0,75,76
 807 965 807 965 671 965 c 0,77,78
 551 965 551 965 456 894 c 1,79,80
 361 826 361 826 361 662 c 0,81,82
 361 483 361 483 449 407 c 0,83,84
 539 330 539 330 654 330 c 0,85,86
 795 330 795 330 886 417 c 0,87,88
 976 505 976 505 976 650 c 0,73,74
EndSplineSet
EndChar
StartChar: acute
Encoding: 180 180 77
Width: 2392
GlyphClass: 2
Flags: W
Fore
171 2120 m 1,0,-1
 2218 2120 l 1,1,-1
 2218 1849 l 1,2,-1
 171 1849 l 1,3,-1
 171 2120 l 1,0,-1
171 2805 m 1,4,-1
 2218 2805 l 1,5,-1
 2218 2534 l 1,6,-1
 171 2534 l 1,7,-1
 171 2805 l 1,4,-1
1060 685 m 1,8,-1
 171 685 l 1,9,-1
 171 956 l 1,10,-1
 1060 956 l 1,11,-1
 1060 1642 l 1,12,-1
 1330 1642 l 1,13,-1
 1330 956 l 1,14,-1
 2218 956 l 1,15,-1
 2218 685 l 1,16,-1
 1330 685 l 1,17,-1
 1330 0 l 1,18,-1
 1060 0 l 1,19,-1
 1060 685 l 1,8,-1
EndSplineSet
EndChar
StartChar: mu
Encoding: 181 181 78
Width: 3641
GlyphClass: 2
Flags: W
Fore
1384 2826 m 1,0,1
 1366 2838 1366 2838 1352.5 2846.5 c 128,-1,2
 1339 2855 1339 2855 1327.5 2861.5 c 128,-1,3
 1316 2868 1316 2868 1305.5 2875 c 128,-1,4
 1295 2882 1295 2882 1282 2890 c 0,5,6
 1257 2907 1257 2907 1236 2924.5 c 128,-1,7
 1215 2942 1215 2942 1186 2969 c 1,8,9
 1154 2993 1154 2993 1146 2989.5 c 128,-1,10
 1138 2986 1138 2986 1143 2951 c 1,11,12
 1155 2907 1155 2907 1160.5 2874.5 c 128,-1,13
 1166 2842 1166 2842 1166.5 2818.5 c 128,-1,14
 1167 2795 1167 2795 1164 2778 c 128,-1,15
 1161 2761 1161 2761 1158 2747 c 1,16,17
 1147 2726 1147 2726 1138.5 2708 c 128,-1,18
 1130 2690 1130 2690 1119.5 2670.5 c 128,-1,19
 1109 2651 1109 2651 1092 2626.5 c 128,-1,20
 1075 2602 1075 2602 1047 2569 c 0,21,22
 1038 2558 1038 2558 1023.5 2543.5 c 128,-1,23
 1009 2529 1009 2529 993 2511.5 c 128,-1,24
 977 2494 977 2494 961 2473 c 128,-1,25
 945 2452 945 2452 932 2427 c 1,26,27
 894 2383 894 2383 865 2339.5 c 128,-1,28
 836 2296 836 2296 816 2255 c 0,29,30
 807 2235 807 2235 796.5 2216 c 128,-1,31
 786 2197 786 2197 775 2173 c 128,-1,32
 764 2149 764 2149 753 2117.5 c 128,-1,33
 742 2086 742 2086 731 2041 c 0,34,35
 729 2032 729 2032 717.5 2013 c 128,-1,36
 706 1994 706 1994 687 1969 c 128,-1,37
 668 1944 668 1944 643 1914.5 c 128,-1,38
 618 1885 618 1885 589 1855 c 1,39,40
 564 1831 564 1831 535.5 1802.5 c 128,-1,41
 507 1774 507 1774 477.5 1741.5 c 128,-1,42
 448 1709 448 1709 420 1671.5 c 128,-1,43
 392 1634 392 1634 369 1591 c 0,44,45
 356 1567 356 1567 346.5 1550.5 c 128,-1,46
 337 1534 337 1534 332 1520 c 128,-1,47
 327 1506 327 1506 327.5 1491 c 128,-1,48
 328 1476 328 1476 335 1455 c 0,49,50
 348 1415 348 1415 358.5 1393.5 c 128,-1,51
 369 1372 369 1372 383.5 1356.5 c 128,-1,52
 398 1341 398 1341 418 1326 c 128,-1,53
 438 1311 438 1311 470 1284 c 1,54,55
 491 1276 491 1276 510 1257 c 128,-1,56
 529 1238 529 1238 547.5 1219 c 128,-1,57
 566 1200 566 1200 585.5 1185 c 128,-1,58
 605 1170 605 1170 626 1170 c 0,59,60
 661 1170 661 1170 681.5 1170.5 c 128,-1,61
 702 1171 702 1171 716 1173.5 c 128,-1,62
 730 1176 730 1176 742.5 1181.5 c 128,-1,63
 755 1187 755 1187 774 1198 c 0,64,65
 814 1221 814 1221 845.5 1253 c 128,-1,66
 877 1285 877 1285 903 1323.5 c 128,-1,67
 929 1362 929 1362 951 1406 c 128,-1,68
 973 1450 973 1450 994 1498 c 1,69,70
 1013 1522 1013 1522 1030 1545 c 128,-1,71
 1047 1568 1047 1568 1070 1582.5 c 128,-1,72
 1093 1597 1093 1597 1125.5 1599 c 128,-1,73
 1158 1601 1158 1601 1207 1584 c 0,74,75
 1248 1568 1248 1568 1288 1565.5 c 128,-1,76
 1328 1563 1328 1563 1369 1563 c 0,77,78
 1453 1563 1453 1563 1526.5 1595 c 128,-1,79
 1600 1627 1600 1627 1654.5 1679.5 c 128,-1,80
 1709 1732 1709 1732 1740 1800.5 c 128,-1,81
 1771 1869 1771 1869 1768 1944 c 1,82,-1
 1762 2031 l 1,83,84
 1762 2052 1762 2052 1770 2071 c 128,-1,85
 1778 2090 1778 2090 1792 2104 c 128,-1,86
 1806 2118 1806 2118 1824.5 2126 c 128,-1,87
 1843 2134 1843 2134 1864 2134 c 2,88,-1
 1865 2134 l 2,89,90
 1886 2134 1886 2134 1905 2126 c 128,-1,91
 1924 2118 1924 2118 1938 2104 c 128,-1,92
 1952 2090 1952 2090 1960 2071 c 128,-1,93
 1968 2052 1968 2052 1968 2031 c 1,94,-1
 1974 1947 l 1,95,96
 1976 1837 1976 1837 1936 1735.5 c 128,-1,97
 1896 1634 1896 1634 1831 1555 c 1,98,99
 1847 1467 1847 1467 1846.5 1408.5 c 128,-1,100
 1846 1350 1846 1350 1831.5 1305.5 c 128,-1,101
 1817 1261 1817 1261 1790 1220.5 c 128,-1,102
 1763 1180 1763 1180 1726 1127 c 0,103,104
 1686 1067 1686 1067 1635 1011.5 c 128,-1,105
 1584 956 1584 956 1517.5 896.5 c 128,-1,106
 1451 837 1451 837 1367 769.5 c 128,-1,107
 1283 702 1283 702 1175 620 c 1,108,-1
 3059 620 l 1,109,110
 3062 671 3062 671 3064.5 728.5 c 128,-1,111
 3067 786 3067 786 3065 852 c 0,112,113
 3061 1022 3061 1022 3041.5 1170.5 c 128,-1,114
 3022 1319 3022 1319 2993 1443 c 0,115,116
 2963 1568 2963 1568 2936.5 1663 c 128,-1,117
 2910 1758 2910 1758 2888 1818 c 1,118,119
 2867 1881 2867 1881 2837.5 1943.5 c 128,-1,120
 2808 2006 2808 2006 2775 2064 c 0,121,122
 2740 2126 2740 2126 2707 2183 c 128,-1,123
 2674 2240 2674 2240 2646 2290 c 1,124,125
 2614 2337 2614 2337 2579.5 2368.5 c 128,-1,126
 2545 2400 2545 2400 2518 2425 c 0,127,128
 2483 2458 2483 2458 2445.5 2492.5 c 128,-1,129
 2408 2527 2408 2527 2378 2551 c 0,130,131
 2359 2567 2359 2567 2344.5 2577.5 c 128,-1,132
 2330 2588 2330 2588 2316.5 2595.5 c 128,-1,133
 2303 2603 2303 2603 2290 2609.5 c 128,-1,134
 2277 2616 2277 2616 2261 2623 c 0,135,136
 2250 2628 2250 2628 2231 2631 c 128,-1,137
 2212 2634 2212 2634 2192 2636 c 128,-1,138
 2172 2638 2172 2638 2153 2639.5 c 128,-1,139
 2134 2641 2134 2641 2121 2642 c 1,140,141
 2096 2641 2096 2641 2073 2642.5 c 128,-1,142
 2050 2644 2050 2644 2018 2647 c 0,143,144
 2007 2648 2007 2648 1986 2649.5 c 128,-1,145
 1965 2651 1965 2651 1941 2657 c 0,146,147
 1921 2663 1921 2663 1902 2670.5 c 128,-1,148
 1883 2678 1883 2678 1875 2679 c 0,149,150
 1864 2680 1864 2680 1847.5 2696 c 128,-1,151
 1831 2712 1831 2712 1817 2725 c 0,152,153
 1803 2737 1803 2737 1793 2754 c 128,-1,154
 1783 2771 1783 2771 1774 2789 c 0,155,156
 1763 2811 1763 2811 1755 2832 c 128,-1,157
 1747 2853 1747 2853 1733 2876 c 0,158,159
 1717 2902 1717 2902 1706 2918 c 128,-1,160
 1695 2934 1695 2934 1676 2947 c 0,161,162
 1672 2950 1672 2950 1664.5 2946.5 c 128,-1,163
 1657 2943 1657 2943 1647.5 2935.5 c 128,-1,164
 1638 2928 1638 2928 1628 2917.5 c 128,-1,165
 1618 2907 1618 2907 1609 2896 c 0,166,167
 1595 2880 1595 2880 1586.5 2870.5 c 128,-1,168
 1578 2861 1578 2861 1570 2854.5 c 128,-1,169
 1562 2848 1562 2848 1552.5 2843 c 128,-1,170
 1543 2838 1543 2838 1527 2830 c 0,171,172
 1510 2821 1510 2821 1495.5 2817.5 c 128,-1,173
 1481 2814 1481 2814 1465.5 2814 c 128,-1,174
 1450 2814 1450 2814 1430.5 2817.5 c 128,-1,175
 1411 2821 1411 2821 1384 2826 c 1,0,1
3263 413 m 1,176,-1
 896 413 l 1,177,178
 893 519 893 519 932 610.5 c 128,-1,179
 971 702 971 702 1055 772 c 1,180,181
 1354 1013 1354 1013 1499.5 1171 c 128,-1,182
 1645 1329 1645 1329 1639 1404 c 1,183,184
 1566 1380 1566 1380 1503.5 1368.5 c 128,-1,185
 1441 1357 1441 1357 1382 1356 c 128,-1,186
 1323 1355 1323 1355 1264 1363.5 c 128,-1,187
 1205 1372 1205 1372 1140 1389 c 1,188,189
 1091 1290 1091 1290 1045.5 1219 c 128,-1,190
 1000 1148 1000 1148 953 1100 c 128,-1,191
 906 1052 906 1052 854 1024.5 c 128,-1,192
 802 997 802 997 738 984 c 0,193,194
 717 980 717 980 704 978 c 128,-1,195
 691 976 691 976 678.5 976 c 128,-1,196
 666 976 666 976 651 976.5 c 128,-1,197
 636 977 636 977 612 977 c 1,198,199
 593 974 593 974 572 981 c 128,-1,200
 551 988 551 988 528.5 999 c 128,-1,201
 506 1010 506 1010 484 1021.5 c 128,-1,202
 462 1033 462 1033 441 1041 c 128,-1,203
 420 1049 420 1049 408.5 1060.5 c 128,-1,204
 397 1072 397 1072 387.5 1086.5 c 128,-1,205
 378 1101 378 1101 367 1118 c 128,-1,206
 356 1135 356 1135 335 1155 c 0,207,208
 313 1177 313 1177 289.5 1197 c 128,-1,209
 266 1217 266 1217 245 1235 c 128,-1,210
 224 1253 224 1253 206.5 1269 c 128,-1,211
 189 1285 189 1285 178 1298 c 0,212,213
 174 1303 174 1303 167 1326.5 c 128,-1,214
 160 1350 160 1350 153 1378 c 128,-1,215
 146 1406 146 1406 141 1430.5 c 128,-1,216
 136 1455 136 1455 136 1462 c 0,217,218
 138 1510 138 1510 149 1547.5 c 128,-1,219
 160 1585 160 1585 182 1623.5 c 128,-1,220
 204 1662 204 1662 238 1707.5 c 128,-1,221
 272 1753 272 1753 322 1818 c 0,222,223
 374 1885 374 1885 414 1937 c 128,-1,224
 454 1989 454 1989 485.5 2032 c 128,-1,225
 517 2075 517 2075 540.5 2114 c 128,-1,226
 564 2153 564 2153 583 2195 c 0,227,228
 595 2222 595 2222 601 2245.5 c 128,-1,229
 607 2269 607 2269 610 2288 c 128,-1,230
 613 2307 613 2307 614.5 2321 c 128,-1,231
 616 2335 616 2335 620 2342 c 0,232,233
 637 2375 637 2375 673 2420 c 128,-1,234
 709 2465 709 2465 767 2529 c 1,235,236
 790 2567 790 2567 819.5 2602.5 c 128,-1,237
 849 2638 849 2638 866 2662 c 0,238,239
 885 2688 885 2688 899.5 2706 c 128,-1,240
 914 2724 914 2724 925 2735.5 c 128,-1,241
 936 2747 936 2747 943.5 2754.5 c 128,-1,242
 951 2762 951 2762 955 2769 c 0,243,244
 964 2783 964 2783 975 2806.5 c 128,-1,245
 986 2830 986 2830 990 2855 c 0,246,247
 995 2876 995 2876 993.5 2893.5 c 128,-1,248
 992 2911 992 2911 987.5 2926.5 c 128,-1,249
 983 2942 983 2942 976 2957.5 c 128,-1,250
 969 2973 969 2973 962 2990 c 0,251,252
 946 3025 946 3025 937.5 3053 c 128,-1,253
 929 3081 929 3081 920 3101 c 0,254,255
 911 3120 911 3120 904 3149.5 c 128,-1,256
 897 3179 897 3179 891 3204 c 1,257,258
 882 3230 882 3230 879 3254 c 128,-1,259
 876 3278 876 3278 880 3286 c 0,260,261
 889 3303 889 3303 901.5 3313 c 128,-1,262
 914 3323 914 3323 931 3328 c 0,263,264
 948 3332 948 3332 967 3329.5 c 128,-1,265
 986 3327 986 3327 1007 3314 c 1,266,267
 1023 3302 1023 3302 1047.5 3293.5 c 128,-1,268
 1072 3285 1072 3285 1090 3276 c 1,269,270
 1108 3263 1108 3263 1138 3241.5 c 128,-1,271
 1168 3220 1168 3220 1204 3186 c 1,272,273
 1239 3150 1239 3150 1256.5 3129.5 c 128,-1,274
 1274 3109 1274 3109 1289 3097 c 0,275,276
 1305 3085 1305 3085 1323 3074 c 128,-1,277
 1341 3063 1341 3063 1357 3051 c 0,278,279
 1366 3043 1366 3043 1380 3038.5 c 128,-1,280
 1394 3034 1394 3034 1409 3032 c 128,-1,281
 1424 3030 1424 3030 1438.5 3030.5 c 128,-1,282
 1453 3031 1453 3031 1463 3033 c 0,283,284
 1486 3037 1486 3037 1503 3053 c 128,-1,285
 1520 3069 1520 3069 1531 3090 c 0,286,287
 1540 3108 1540 3108 1543.5 3118.5 c 128,-1,288
 1547 3129 1547 3129 1547.5 3135 c 128,-1,289
 1548 3141 1548 3141 1547.5 3145 c 128,-1,290
 1547 3149 1547 3149 1548 3154 c 0,291,292
 1554 3181 1554 3181 1557.5 3201.5 c 128,-1,293
 1561 3222 1561 3222 1566 3254 c 0,294,295
 1572 3287 1572 3287 1587 3301.5 c 128,-1,296
 1602 3316 1602 3316 1614 3326 c 128,-1,297
 1626 3336 1626 3336 1639.5 3342.5 c 128,-1,298
 1653 3349 1653 3349 1664 3348 c 0,299,300
 1686 3346 1686 3346 1710 3312 c 128,-1,301
 1734 3278 1734 3278 1758 3215 c 1,302,303
 1772 3183 1772 3183 1782 3160 c 128,-1,304
 1792 3137 1792 3137 1799 3119 c 128,-1,305
 1806 3101 1806 3101 1812.5 3087.5 c 128,-1,306
 1819 3074 1819 3074 1825 3061 c 0,307,308
 1831 3049 1831 3049 1836.5 3040 c 128,-1,309
 1842 3031 1842 3031 1847.5 3022.5 c 128,-1,310
 1853 3014 1853 3014 1859.5 3004 c 128,-1,311
 1866 2994 1866 2994 1873 2980 c 0,312,313
 1889 2951 1889 2951 1905.5 2928.5 c 128,-1,314
 1922 2906 1922 2906 1935 2897 c 1,315,316
 1948 2885 1948 2885 1963 2876.5 c 128,-1,317
 1978 2868 1978 2868 1995 2866 c 1,318,319
 2011 2862 2011 2862 2028 2858.5 c 128,-1,320
 2045 2855 2045 2855 2056 2854 c 0,321,322
 2092 2851 2092 2851 2121.5 2849 c 128,-1,323
 2151 2847 2151 2847 2170 2845 c 0,324,325
 2178 2845 2178 2845 2196.5 2843.5 c 128,-1,326
 2215 2842 2215 2842 2240 2840 c 1,327,328
 2293 2822 2293 2822 2338 2800.5 c 128,-1,329
 2383 2779 2383 2779 2417 2760 c 0,330,331
 2454 2740 2454 2740 2498 2707 c 128,-1,332
 2542 2674 2542 2674 2593 2631 c 128,-1,333
 2644 2588 2644 2588 2688 2544 c 128,-1,334
 2732 2500 2732 2500 2761 2458 c 1,335,336
 2793 2417 2793 2417 2831 2357 c 128,-1,337
 2869 2297 2869 2297 2912 2221 c 0,338,339
 2954 2145 2954 2145 2988.5 2078.5 c 128,-1,340
 3023 2012 3023 2012 3045 1955 c 0,341,342
 3067 1897 3067 1897 3092.5 1815 c 128,-1,343
 3118 1733 3118 1733 3147 1628 c 0,344,345
 3176 1520 3176 1520 3194.5 1429.5 c 128,-1,346
 3213 1339 3213 1339 3223 1266 c 128,-1,347
 3233 1193 3233 1193 3241 1112.5 c 128,-1,348
 3249 1032 3249 1032 3251 945 c 0,349,350
 3254 859 3254 859 3258 790 c 128,-1,351
 3262 721 3262 721 3262 677 c 0,352,353
 3262 656 3262 656 3262 621.5 c 128,-1,354
 3262 587 3262 587 3262.5 549 c 128,-1,355
 3263 511 3263 511 3263 474.5 c 128,-1,356
 3263 438 3263 438 3263 413 c 1,176,-1
1162 2341 m 0,357,358
 1198 2341 1198 2341 1229 2329.5 c 128,-1,359
 1260 2318 1260 2318 1283 2299 c 128,-1,360
 1306 2280 1306 2280 1319.5 2253.5 c 128,-1,361
 1333 2227 1333 2227 1333 2198 c 0,362,363
 1333 2168 1333 2168 1319.5 2142 c 128,-1,364
 1306 2116 1306 2116 1283 2096.5 c 128,-1,365
 1260 2077 1260 2077 1229 2066 c 128,-1,366
 1198 2055 1198 2055 1162 2055 c 0,367,368
 1127 2055 1127 2055 1096 2066 c 128,-1,369
 1065 2077 1065 2077 1042 2096.5 c 128,-1,370
 1019 2116 1019 2116 1005.5 2142 c 128,-1,371
 992 2168 992 2168 992 2198 c 0,372,373
 992 2227 992 2227 1005.5 2253.5 c 128,-1,374
 1019 2280 1019 2280 1042 2299 c 128,-1,375
 1065 2318 1065 2318 1096 2329.5 c 128,-1,376
 1127 2341 1127 2341 1162 2341 c 0,357,358
895 277 m 1,377,-1
 3262 277 l 1,378,-1
 3262 0 l 1,379,-1
 895 0 l 1,380,-1
 895 277 l 1,377,-1
EndSplineSet
EndChar
StartChar: paragraph
Encoding: 182 182 79
Width: 3641
GlyphClass: 2
Flags: W
Fore
2662 1711 m 0,0,1
 2746 1711 2746 1711 2820.5 1743 c 128,-1,2
 2895 1775 2895 1775 2950 1830.5 c 128,-1,3
 3005 1886 3005 1886 3037 1960 c 128,-1,4
 3069 2034 3069 2034 3069 2118 c 128,-1,5
 3069 2202 3069 2202 3037 2275.5 c 128,-1,6
 3005 2349 3005 2349 2950 2404.5 c 128,-1,7
 2895 2460 2895 2460 2820.5 2492 c 128,-1,8
 2746 2524 2746 2524 2662 2524 c 128,-1,9
 2578 2524 2578 2524 2504 2492 c 128,-1,10
 2430 2460 2430 2460 2375 2404.5 c 128,-1,11
 2320 2349 2320 2349 2288 2275.5 c 128,-1,12
 2256 2202 2256 2202 2256 2118 c 128,-1,13
 2256 2034 2256 2034 2288 1960 c 128,-1,14
 2320 1886 2320 1886 2375 1830.5 c 128,-1,15
 2430 1775 2430 1775 2504 1743 c 128,-1,16
 2578 1711 2578 1711 2662 1711 c 0,0,1
1843 892 m 0,17,18
 1927 892 1927 892 2001 924 c 128,-1,19
 2075 956 2075 956 2130.5 1011.5 c 128,-1,20
 2186 1067 2186 1067 2218 1140.5 c 128,-1,21
 2250 1214 2250 1214 2250 1298 c 128,-1,22
 2250 1382 2250 1382 2218 1456 c 128,-1,23
 2186 1530 2186 1530 2130.5 1585.5 c 128,-1,24
 2075 1641 2075 1641 2001 1673 c 128,-1,25
 1927 1705 1927 1705 1843 1705 c 128,-1,26
 1759 1705 1759 1705 1685 1673 c 128,-1,27
 1611 1641 1611 1641 1555.5 1585.5 c 128,-1,28
 1500 1530 1500 1530 1468 1456 c 128,-1,29
 1436 1382 1436 1382 1436 1298 c 128,-1,30
 1436 1214 1436 1214 1468 1140.5 c 128,-1,31
 1500 1067 1500 1067 1555.5 1011.5 c 128,-1,32
 1611 956 1611 956 1685 924 c 128,-1,33
 1759 892 1759 892 1843 892 c 0,17,18
1685 639 m 1,34,35
 1693 600 1693 600 1697.5 560 c 128,-1,36
 1702 520 1702 520 1702 479 c 0,37,38
 1702 339 1702 339 1648.5 215.5 c 128,-1,39
 1595 92 1595 92 1503 0.5 c 128,-1,40
 1411 -91 1411 -91 1287.5 -144.5 c 128,-1,41
 1164 -198 1164 -198 1024 -198 c 128,-1,42
 884 -198 884 -198 760.5 -144.5 c 128,-1,43
 637 -91 637 -91 545 0.5 c 128,-1,44
 453 92 453 92 399.5 215.5 c 128,-1,45
 346 339 346 339 346 479 c 128,-1,46
 346 619 346 619 399.5 742.5 c 128,-1,47
 453 866 453 866 545 958.5 c 128,-1,48
 637 1051 637 1051 760.5 1104.5 c 128,-1,49
 884 1158 884 1158 1024 1158 c 0,50,51
 1065 1158 1065 1158 1105.5 1152 c 128,-1,52
 1146 1146 1146 1146 1186 1134 c 1,53,54
 1176 1171 1176 1171 1170.5 1213 c 128,-1,55
 1165 1255 1165 1255 1165 1298 c 0,56,57
 1165 1439 1165 1439 1218.5 1562.5 c 128,-1,58
 1272 1686 1272 1686 1364 1778 c 128,-1,59
 1456 1870 1456 1870 1579.5 1923.5 c 128,-1,60
 1703 1977 1703 1977 1843 1977 c 0,61,62
 1887 1977 1887 1977 1929 1971 c 128,-1,63
 1971 1965 1971 1965 2009 1952 c 1,64,65
 1996 1990 1996 1990 1990 2032 c 128,-1,66
 1984 2074 1984 2074 1984 2118 c 0,67,68
 1984 2258 1984 2258 2037.5 2381.5 c 128,-1,69
 2091 2505 2091 2505 2183 2597 c 128,-1,70
 2275 2689 2275 2689 2398.5 2742.5 c 128,-1,71
 2522 2796 2522 2796 2662 2796 c 128,-1,72
 2802 2796 2802 2796 2925.5 2742.5 c 128,-1,73
 3049 2689 3049 2689 3141.5 2597 c 128,-1,74
 3234 2505 3234 2505 3287.5 2381.5 c 128,-1,75
 3341 2258 3341 2258 3341 2118 c 128,-1,76
 3341 1978 3341 1978 3287.5 1854.5 c 128,-1,77
 3234 1731 3234 1731 3141.5 1638.5 c 128,-1,78
 3049 1546 3049 1546 2925.5 1492.5 c 128,-1,79
 2802 1439 2802 1439 2662 1439 c 0,80,81
 2622 1439 2622 1439 2582.5 1444 c 128,-1,82
 2543 1449 2543 1449 2504 1457 c 1,83,84
 2512 1418 2512 1418 2516.5 1378.5 c 128,-1,85
 2521 1339 2521 1339 2521 1298 c 0,86,87
 2521 1158 2521 1158 2468 1034.5 c 128,-1,88
 2415 911 2415 911 2322.5 819 c 128,-1,89
 2230 727 2230 727 2106.5 673.5 c 128,-1,90
 1983 620 1983 620 1843 620 c 0,91,92
 1803 620 1803 620 1763.5 625 c 128,-1,93
 1724 630 1724 630 1685 639 c 1,34,35
1024 72 m 0,94,95
 1108 72 1108 72 1182 104.5 c 128,-1,96
 1256 137 1256 137 1311.5 192 c 128,-1,97
 1367 247 1367 247 1399 321 c 128,-1,98
 1431 395 1431 395 1431 479 c 128,-1,99
 1431 563 1431 563 1399 637 c 128,-1,100
 1367 711 1367 711 1311.5 766.5 c 128,-1,101
 1256 822 1256 822 1182 854 c 128,-1,102
 1108 886 1108 886 1024 886 c 128,-1,103
 940 886 940 886 866 854 c 128,-1,104
 792 822 792 822 736.5 766.5 c 128,-1,105
 681 711 681 711 649 637 c 128,-1,106
 617 563 617 563 617 479 c 128,-1,107
 617 395 617 395 649 321 c 128,-1,108
 681 247 681 247 736.5 192 c 128,-1,109
 792 137 792 137 866 104.5 c 128,-1,110
 940 72 940 72 1024 72 c 0,94,95
EndSplineSet
EndChar
StartChar: periodcentered
Encoding: 183 183 80
Width: 3183
GlyphClass: 2
Flags: W
Fore
136 2798 m 1,0,-1
 2936 2798 l 1,1,-1
 2936 0 l 1,2,-1
 136 0 l 1,3,-1
 136 2798 l 1,0,-1
406 2526 m 1,4,-1
 406 270 l 1,5,-1
 2659 270 l 1,6,-1
 2659 2526 l 1,7,-1
 406 2526 l 1,4,-1
2031 2348 m 1,8,-1
 2147 1764 l 1,9,-1
 2124 1758 l 1,10,11
 2102 1813 2102 1813 2073 1862.5 c 128,-1,12
 2044 1912 2044 1912 2007 1953 c 1,13,14
 1934 2038 1934 2038 1845 2089 c 0,15,16
 1801 2115 1801 2115 1754.5 2134.5 c 128,-1,17
 1708 2154 1708 2154 1658 2166 c 0,18,19
 1560 2192 1560 2192 1466 2192 c 0,20,21
 1397 2192 1397 2192 1336.5 2177 c 128,-1,22
 1276 2162 1276 2162 1225 2133 c 0,23,24
 1122 2074 1122 2074 1106 1951 c 1,25,26
 1108 1901 1108 1901 1145 1865 c 0,27,28
 1164 1848 1164 1848 1190.5 1831 c 128,-1,29
 1217 1814 1217 1814 1251 1799 c 128,-1,30
 1285 1784 1285 1784 1325.5 1770 c 128,-1,31
 1366 1756 1366 1756 1411 1743 c 0,32,33
 1457 1730 1457 1730 1499.5 1718 c 128,-1,34
 1542 1706 1542 1706 1579 1695 c 0,35,36
 1618 1683 1618 1683 1666 1669.5 c 128,-1,37
 1714 1656 1714 1656 1771 1640 c 0,38,39
 1827 1624 1827 1624 1874 1609 c 128,-1,40
 1921 1594 1921 1594 1956 1582 c 0,41,42
 1992 1569 1992 1569 2021.5 1557 c 128,-1,43
 2051 1545 2051 1545 2073 1535 c 1,44,45
 2141 1500 2141 1500 2194 1451 c 128,-1,46
 2247 1402 2247 1402 2285 1339 c 0,47,48
 2361 1214 2361 1214 2361 1067 c 0,49,50
 2361 866 2361 866 2235 711 c 0,51,52
 2110 557 2110 557 1914 475 c 0,53,54
 1717 392 1717 392 1517 392 c 0,55,56
 1417 392 1417 392 1319 408.5 c 128,-1,57
 1221 425 1221 425 1126 457 c 0,58,59
 1092 468 1092 468 1064 473.5 c 128,-1,60
 1036 479 1036 479 1017 479 c 0,61,62
 925 479 925 479 890 430 c 1,63,-1
 714 1141 l 1,64,-1
 743 1147 l 1,65,66
 760 1079 760 1079 794.5 1010.5 c 128,-1,67
 829 942 829 942 879 874 c 0,68,69
 980 735 980 735 1137 643 c 0,70,71
 1216 597 1216 597 1302.5 572.5 c 128,-1,72
 1389 548 1389 548 1483 547 c 1,73,74
 1552 551 1552 551 1619 563 c 128,-1,75
 1686 575 1686 575 1749 594 c 0,76,77
 1878 635 1878 635 1964 721 c 1,78,79
 2053 806 2053 806 2058 940 c 1,80,81
 2058 1035 2058 1035 2027 1094 c 0,82,83
 2012 1124 2012 1124 1988 1148.5 c 128,-1,84
 1964 1173 1964 1173 1932 1193 c 128,-1,85
 1900 1213 1900 1213 1853 1235 c 128,-1,86
 1806 1257 1806 1257 1745 1281 c 0,87,88
 1704 1298 1704 1298 1651.5 1315.5 c 128,-1,89
 1599 1333 1599 1333 1536 1351 c 0,90,91
 1473 1368 1473 1368 1417.5 1384 c 128,-1,92
 1362 1400 1362 1400 1314 1412 c 0,93,94
 1267 1425 1267 1425 1222 1439.5 c 128,-1,95
 1177 1454 1177 1454 1135 1470 c 0,96,97
 1094 1486 1094 1486 1057.5 1505 c 128,-1,98
 1021 1524 1021 1524 990 1545 c 0,99,100
 901 1607 901 1607 854 1687 c 128,-1,101
 807 1767 807 1767 803 1863 c 1,102,103
 809 1905 809 1905 813 1934 c 128,-1,104
 817 1963 817 1963 818 1980 c 1,105,106
 860 2154 860 2154 1046 2251 c 0,107,108
 1231 2348 1231 2348 1474 2348 c 0,109,110
 1541 2348 1541 2348 1608 2337 c 0,111,112
 1642 2332 1642 2332 1685 2323.5 c 128,-1,113
 1728 2315 1728 2315 1779 2304 c 0,114,115
 1832 2293 1832 2293 1865 2286 c 128,-1,116
 1898 2279 1898 2279 1912 2277 c 1,117,118
 1955 2282 1955 2282 1985 2300 c 128,-1,119
 2015 2318 2015 2318 2031 2348 c 1,8,-1
EndSplineSet
EndChar
StartChar: cedilla
Encoding: 184 184 81
Width: 2736
GlyphClass: 2
Flags: W
Fore
2460 0 m 1,0,-1
 136 0 l 1,1,-1
 136 270 l 1,2,-1
 2191 270 l 1,3,-1
 2191 2798 l 1,4,-1
 2460 2798 l 1,5,-1
 2460 0 l 1,0,-1
EndSplineSet
EndChar
StartChar: ordmasculine
Encoding: 186 186 82
Width: 3600
GlyphClass: 2
Flags: W
Fore
2765 607 m 1,0,-1
 2765 1382 l 1,1,-1
 2757 1382 l 1,2,-1
 2162 607 l 1,3,-1
 2765 607 l 1,0,-1
1904 383 m 1,4,-1
 1904 629 l 1,5,-1
 2765 1728 l 1,6,-1
 3021 1728 l 1,7,-1
 3021 607 l 1,8,-1
 3296 607 l 1,9,-1
 3296 383 l 1,10,-1
 3021 383 l 1,11,-1
 3021 0 l 1,12,-1
 2765 0 l 1,13,-1
 2765 383 l 1,14,-1
 1904 383 l 1,4,-1
184 1690 m 1,15,-1
 465 1690 l 1,16,17
 469 1615 469 1615 489 1552 c 128,-1,18
 509 1489 509 1489 543 1441 c 0,19,20
 612 1343 612 1343 820 1343 c 0,21,22
 1002 1343 1002 1343 1109 1416 c 1,23,24
 1216 1492 1216 1492 1216 1640 c 0,25,26
 1216 1838 1216 1838 1093 1894 c 0,27,28
 1032 1922 1032 1922 954.5 1936.5 c 128,-1,29
 877 1951 877 1951 784 1951 c 2,30,-1
 689 1951 l 1,31,-1
 689 2143 l 1,32,-1
 804 2143 l 2,33,34
 1152 2143 1152 2143 1152 2419 c 0,35,36
 1152 2510 1152 2510 1081 2583 c 0,37,38
 1010 2655 1010 2655 818 2655 c 0,39,40
 502 2655 502 2655 484 2320 c 1,41,-1
 225 2320 l 1,42,43
 225 2391 225 2391 239.5 2458.5 c 128,-1,44
 254 2526 254 2526 282 2587 c 0,45,46
 340 2714 340 2714 479 2796 c 0,47,48
 621 2879 621 2879 856 2879 c 0,49,50
 990 2879 990 2879 1096.5 2847.5 c 128,-1,51
 1203 2816 1203 2816 1282 2755 c 0,52,53
 1361 2693 1361 2693 1400.5 2612 c 128,-1,54
 1440 2531 1440 2531 1440 2431 c 0,55,56
 1440 2358 1440 2358 1422.5 2299 c 128,-1,57
 1405 2240 1405 2240 1368 2197 c 0,58,59
 1332 2153 1332 2153 1290 2122.5 c 128,-1,60
 1248 2092 1248 2092 1200 2077 c 1,61,-1
 1200 2070 l 1,62,63
 1504 1987 1504 1987 1504 1676 c 0,64,65
 1504 1601 1504 1601 1485.5 1531.5 c 128,-1,66
 1467 1462 1467 1462 1431 1398 c 0,67,68
 1395 1335 1395 1335 1337.5 1284 c 128,-1,69
 1280 1233 1280 1233 1201 1196 c 1,70,71
 1045 1119 1045 1119 811 1119 c 0,72,73
 711 1119 711 1119 624 1137 c 128,-1,74
 537 1155 537 1155 465 1192 c 1,75,76
 216 1310 216 1310 184 1690 c 1,15,-1
2920 2879 m 1,77,-1
 1648 770 l 1,78,-1
 1121 -96 l 1,79,-1
 889 -96 l 1,80,-1
 2155 2009 l 1,81,-1
 2679 2879 l 1,82,-1
 2920 2879 l 1,77,-1
EndSplineSet
EndChar
StartChar: questiondown
Encoding: 191 191 83
Width: 2503
GlyphClass: 2
Flags: W
Fore
1276 1884 m 1,0,-1
 1276 1673 l 1,1,2
 1133 1673 1133 1673 1001.5 1635 c 128,-1,3
 870 1597 870 1597 757 1527 c 128,-1,4
 644 1457 644 1457 552.5 1360 c 128,-1,5
 461 1263 461 1263 397 1145 c 1,6,-1
 111 1145 l 1,7,-1
 1284 2830 l 1,8,-1
 2460 1145 l 1,9,-1
 2171 1145 l 1,10,11
 2107 1263 2107 1263 2014.5 1360 c 128,-1,12
 1922 1457 1922 1457 1808.5 1527 c 128,-1,13
 1695 1597 1695 1597 1563 1635 c 128,-1,14
 1431 1673 1431 1673 1287 1673 c 1,15,-1
 1287 1884 l 1,16,17
 1364 1884 1364 1884 1425 1877.5 c 128,-1,18
 1486 1871 1486 1871 1541.5 1857.5 c 128,-1,19
 1597 1844 1597 1844 1653.5 1822 c 128,-1,20
 1710 1800 1710 1800 1778 1769 c 1,21,-1
 1280 2491 l 1,22,-1
 779 1769 l 1,23,24
 845 1806 845 1806 901.5 1828.5 c 128,-1,25
 958 1851 958 1851 1014.5 1864 c 128,-1,26
 1071 1877 1071 1877 1133.5 1881 c 128,-1,27
 1196 1885 1196 1885 1276 1884 c 1,0,-1
1283 -79 m 0,28,29
 1205 -79 1205 -79 1131 -63.5 c 128,-1,30
 1057 -48 1057 -48 989 -19.5 c 128,-1,31
 921 9 921 9 860.5 50 c 128,-1,32
 800 91 800 91 748.5 142.5 c 128,-1,33
 697 194 697 194 656 254.5 c 128,-1,34
 615 315 615 315 586 383 c 128,-1,35
 557 451 557 451 541.5 525 c 128,-1,36
 526 599 526 599 526 677 c 128,-1,37
 526 755 526 755 541.5 829 c 128,-1,38
 557 903 557 903 586 971 c 128,-1,39
 615 1039 615 1039 656 1099.5 c 128,-1,40
 697 1160 697 1160 748.5 1211.5 c 128,-1,41
 800 1263 800 1263 860.5 1304.5 c 128,-1,42
 921 1346 921 1346 989 1374.5 c 128,-1,43
 1057 1403 1057 1403 1131 1418.5 c 128,-1,44
 1205 1434 1205 1434 1283 1434 c 0,45,46
 1362 1434 1362 1434 1435.5 1418.5 c 128,-1,47
 1509 1403 1509 1403 1577 1374.5 c 128,-1,48
 1645 1346 1645 1346 1706 1304.5 c 128,-1,49
 1767 1263 1767 1263 1818 1211.5 c 128,-1,50
 1869 1160 1869 1160 1910.5 1099.5 c 128,-1,51
 1952 1039 1952 1039 1980.5 971 c 128,-1,52
 2009 903 2009 903 2024.5 829 c 128,-1,53
 2040 755 2040 755 2040 677 c 128,-1,54
 2040 599 2040 599 2024.5 525 c 128,-1,55
 2009 451 2009 451 1980.5 383 c 128,-1,56
 1952 315 1952 315 1910.5 254.5 c 128,-1,57
 1869 194 1869 194 1818 142.5 c 128,-1,58
 1767 91 1767 91 1706 50 c 128,-1,59
 1645 9 1645 9 1577 -19.5 c 128,-1,60
 1509 -48 1509 -48 1435.5 -63.5 c 128,-1,61
 1362 -79 1362 -79 1283 -79 c 0,28,29
1287 1153 m 0,62,63
 1189 1153 1189 1153 1102 1115.5 c 128,-1,64
 1015 1078 1015 1078 950.5 1013.5 c 128,-1,65
 886 949 886 949 848.5 862 c 128,-1,66
 811 775 811 775 811 677 c 128,-1,67
 811 579 811 579 848.5 492 c 128,-1,68
 886 405 886 405 950.5 340.5 c 128,-1,69
 1015 276 1015 276 1102 238.5 c 128,-1,70
 1189 201 1189 201 1287 201 c 128,-1,71
 1385 201 1385 201 1472 238.5 c 128,-1,72
 1559 276 1559 276 1623.5 340.5 c 128,-1,73
 1688 405 1688 405 1725.5 492 c 128,-1,74
 1763 579 1763 579 1763 677 c 128,-1,75
 1763 775 1763 775 1725.5 862 c 128,-1,76
 1688 949 1688 949 1623.5 1013.5 c 128,-1,77
 1559 1078 1559 1078 1472 1115.5 c 128,-1,78
 1385 1153 1385 1153 1287 1153 c 0,62,63
EndSplineSet
EndChar
StartChar: Aacute
Encoding: 193 193 84
Width: 4096
GlyphClass: 2
Flags: W
Fore
3882 2605 m 1,0,-1
 213 2605 l 1,1,-1
 1436 1577 l 1,2,-1
 2673 1577 l 1,3,-1
 3882 2605 l 1,0,-1
0 2734 m 1,4,-1
 4095 2734 l 1,5,-1
 4095 6 l 1,6,-1
 0 6 l 1,7,-1
 0 2734 l 1,4,-1
143 206 m 1,8,-1
 1294 1434 l 1,9,-1
 1365 1370 l 1,10,-1
 213 148 l 1,11,-1
 3882 148 l 1,12,-1
 2730 1370 l 1,13,-1
 2801 1434 l 1,14,-1
 3953 206 l 1,15,-1
 3953 2505 l 1,16,-1
 2673 1434 l 1,17,-1
 1436 1434 l 1,18,-1
 143 2505 l 1,19,-1
 143 206 l 1,8,-1
EndSplineSet
EndChar
StartChar: Acircumflex
Encoding: 194 194 85
Width: 2392
GlyphClass: 2
Flags: W
Fore
1994 1572 m 1,0,-1
 2150 1342 l 1,1,2
 1921 1013 1921 1013 1622 1013 c 0,3,4
 1564 1013 1564 1013 1511 1020 c 128,-1,5
 1458 1027 1458 1027 1410 1042 c 0,6,7
 1362 1058 1362 1058 1301.5 1082 c 128,-1,8
 1241 1106 1241 1106 1170 1138 c 0,9,10
 1099 1171 1099 1171 1037.5 1196 c 128,-1,11
 976 1221 976 1221 925 1236 c 0,12,13
 875 1252 875 1252 819 1260.5 c 128,-1,14
 763 1269 763 1269 702 1269 c 0,15,16
 642 1269 642 1269 590.5 1250 c 128,-1,17
 539 1231 539 1231 498 1194 c 0,18,19
 458 1157 458 1157 419.5 1107 c 128,-1,20
 381 1057 381 1057 348 995 c 1,21,-1
 201 1226 l 1,22,23
 385 1556 385 1556 728 1556 c 0,24,25
 793 1556 793 1556 865.5 1540 c 128,-1,26
 938 1524 938 1524 1017 1492 c 0,27,28
 1096 1461 1096 1461 1175.5 1428.5 c 128,-1,29
 1255 1396 1255 1396 1334 1364 c 0,30,31
 1413 1333 1413 1333 1485 1316.5 c 128,-1,32
 1557 1300 1557 1300 1622 1300 c 0,33,34
 1735 1300 1735 1300 1816 1371 c 0,35,36
 1856 1406 1856 1406 1901 1456.5 c 128,-1,37
 1946 1507 1946 1507 1994 1572 c 1,0,-1
1994 1040 m 1,38,-1
 2150 810 l 1,39,40
 1921 480 1921 480 1622 480 c 0,41,42
 1564 480 1564 480 1511 487.5 c 128,-1,43
 1458 495 1458 495 1410 510 c 128,-1,44
 1362 525 1362 525 1301.5 549 c 128,-1,45
 1241 573 1241 573 1170 606 c 128,-1,46
 1099 639 1099 639 1037.5 663.5 c 128,-1,47
 976 688 976 688 925 704 c 0,48,49
 875 720 875 720 819 728 c 128,-1,50
 763 736 763 736 702 736 c 0,51,52
 642 736 642 736 590.5 717 c 128,-1,53
 539 698 539 698 498 662 c 0,54,55
 458 625 458 625 419.5 574.5 c 128,-1,56
 381 524 381 524 348 463 c 1,57,-1
 201 694 l 1,58,59
 385 1024 385 1024 728 1024 c 0,60,61
 793 1024 793 1024 865.5 1007.5 c 128,-1,62
 938 991 938 991 1017 960 c 128,-1,63
 1096 929 1096 929 1175.5 896 c 128,-1,64
 1255 863 1255 863 1334 832 c 0,65,66
 1413 800 1413 800 1485 784 c 128,-1,67
 1557 768 1557 768 1622 768 c 0,68,69
 1735 768 1735 768 1816 838 c 0,70,71
 1856 873 1856 873 1901 923.5 c 128,-1,72
 1946 974 1946 974 1994 1040 c 1,38,-1
EndSplineSet
EndChar
StartChar: Adieresis
Encoding: 196 196 86
Width: 2503
GlyphClass: 2
Flags: W
Fore
2176 434 m 1,0,-1
 2176 1320 l 1,1,-1
 157 1320 l 1,2,-1
 160 1599 l 1,3,-1
 2460 1598 l 1,4,-1
 2460 434 l 1,5,-1
 2176 434 l 1,0,-1
EndSplineSet
EndChar
StartChar: AE
Encoding: 198 198 87
Width: 2961
GlyphClass: 2
Flags: W
Fore
2506 186 m 1,0,1
 2454 186 2454 186 2418.5 189.5 c 128,-1,2
 2383 193 2383 193 2356.5 203 c 128,-1,3
 2330 213 2330 213 2307 231 c 128,-1,4
 2284 249 2284 249 2256 277 c 1,5,6
 2246 251 2246 251 2247.5 225 c 128,-1,7
 2249 199 2249 199 2260 175.5 c 128,-1,8
 2271 152 2271 152 2290 134 c 128,-1,9
 2309 116 2309 116 2335 107 c 0,10,11
 2361 97 2361 97 2387 99 c 128,-1,12
 2413 101 2413 101 2436.5 111.5 c 128,-1,13
 2460 122 2460 122 2478 141.5 c 128,-1,14
 2496 161 2496 161 2506 186 c 1,0,1
1946 609 m 1,15,16
 1989 596 1989 596 2020 582 c 128,-1,17
 2051 568 2051 568 2075.5 552 c 128,-1,18
 2100 536 2100 536 2120 519.5 c 128,-1,19
 2140 503 2140 503 2161 485 c 0,20,21
 2193 457 2193 457 2202 434 c 128,-1,22
 2211 411 2211 411 2213 392.5 c 128,-1,23
 2215 374 2215 374 2219.5 361.5 c 128,-1,24
 2224 349 2224 349 2247 341 c 1,25,26
 2245 381 2245 381 2249.5 401.5 c 128,-1,27
 2254 422 2254 422 2264.5 432 c 128,-1,28
 2275 442 2275 442 2290 445.5 c 128,-1,29
 2305 449 2305 449 2323 453 c 0,30,31
 2349 458 2349 458 2363 456 c 128,-1,32
 2377 454 2377 454 2390.5 448.5 c 128,-1,33
 2404 443 2404 443 2421 436 c 128,-1,34
 2438 429 2438 429 2471 426 c 1,35,36
 2451 456 2451 456 2431 475.5 c 128,-1,37
 2411 495 2411 495 2390.5 508 c 128,-1,38
 2370 521 2370 521 2350 528 c 128,-1,39
 2330 535 2330 535 2310 539.5 c 128,-1,40
 2290 544 2290 544 2271 547.5 c 128,-1,41
 2252 551 2252 551 2234.5 555.5 c 128,-1,42
 2217 560 2217 560 2201 568 c 128,-1,43
 2185 576 2185 576 2172 589 c 0,44,45
 2158 603 2158 603 2144.5 628.5 c 128,-1,46
 2131 654 2131 654 2117 680.5 c 128,-1,47
 2103 707 2103 707 2088 729.5 c 128,-1,48
 2073 752 2073 752 2057 759 c 1,49,-1
 1946 609 l 1,15,16
1913 865 m 1,50,51
 1848 913 1848 913 1799 948 c 128,-1,52
 1750 983 1750 983 1705.5 1018 c 128,-1,53
 1661 1053 1661 1053 1614.5 1094 c 128,-1,54
 1568 1135 1568 1135 1506 1193 c 1,55,56
 1556 1125 1556 1125 1600.5 1065 c 128,-1,57
 1645 1005 1645 1005 1681.5 946.5 c 128,-1,58
 1718 888 1718 888 1746.5 828 c 128,-1,59
 1775 768 1775 768 1794 702 c 1,60,61
 1824 743 1824 743 1853.5 784 c 128,-1,62
 1883 825 1883 825 1913 865 c 1,50,51
249 186 m 1,63,64
 258 161 258 161 276.5 141.5 c 128,-1,65
 295 122 295 122 318 111.5 c 128,-1,66
 341 101 341 101 367.5 99 c 128,-1,67
 394 97 394 97 419 107 c 0,68,69
 445 116 445 116 464.5 134 c 128,-1,70
 484 152 484 152 494.5 175.5 c 128,-1,71
 505 199 505 199 506.5 225 c 128,-1,72
 508 251 508 251 499 277 c 1,73,74
 470 249 470 249 447 231 c 128,-1,75
 424 213 424 213 397.5 203 c 128,-1,76
 371 193 371 193 336 189.5 c 128,-1,77
 301 186 301 186 249 186 c 1,63,64
807 609 m 1,78,-1
 697 759 l 1,79,80
 681 752 681 752 666 730 c 128,-1,81
 651 708 651 708 637 681 c 128,-1,82
 623 654 623 654 609.5 628.5 c 128,-1,83
 596 603 596 603 583 589 c 1,84,85
 569 576 569 576 553 568 c 128,-1,86
 537 560 537 560 520 555.5 c 128,-1,87
 503 551 503 551 483.5 548 c 128,-1,88
 464 545 464 545 444.5 540.5 c 128,-1,89
 425 536 425 536 404.5 528.5 c 128,-1,90
 384 521 384 521 363.5 508.5 c 128,-1,91
 343 496 343 496 323 476 c 128,-1,92
 303 456 303 456 283 426 c 1,93,94
 316 430 316 430 333.5 436.5 c 128,-1,95
 351 443 351 443 364 448.5 c 128,-1,96
 377 454 377 454 391 456.5 c 128,-1,97
 405 459 405 459 431 453 c 0,98,99
 449 449 449 449 464 446 c 128,-1,100
 479 443 479 443 489.5 433 c 128,-1,101
 500 423 500 423 505 402 c 128,-1,102
 510 381 510 381 507 342 c 1,103,104
 531 349 531 349 535 362 c 128,-1,105
 539 375 539 375 541.5 393 c 128,-1,106
 544 411 544 411 552.5 434.5 c 128,-1,107
 561 458 561 458 594 485 c 1,108,109
 614 503 614 503 634.5 520 c 128,-1,110
 655 537 655 537 679 552.5 c 128,-1,111
 703 568 703 568 734 582 c 128,-1,112
 765 596 765 596 807 609 c 1,78,-1
841 865 m 1,113,114
 871 825 871 825 901 784 c 128,-1,115
 931 743 931 743 960 702 c 1,116,117
 979 769 979 769 1008 828.5 c 128,-1,118
 1037 888 1037 888 1074.5 946.5 c 128,-1,119
 1112 1005 1112 1005 1156.5 1065 c 128,-1,120
 1201 1125 1201 1125 1251 1192 c 1,121,122
 1190 1135 1190 1135 1142.5 1094 c 128,-1,123
 1095 1053 1095 1053 1050 1018 c 128,-1,124
 1005 983 1005 983 955.5 948 c 128,-1,125
 906 913 906 913 841 865 c 1,113,114
1532 1267 m 1,126,127
 1626 1173 1626 1173 1731 1082.5 c 128,-1,128
 1836 992 1836 992 1951 908 c 1,129,-1
 2066 1058 l 1,130,131
 2075 1071 2075 1071 2090.5 1073.5 c 128,-1,132
 2106 1076 2106 1076 2119 1067 c 2,133,-1
 2187 1015 l 2,134,135
 2200 1006 2200 1006 2202 990.5 c 128,-1,136
 2204 975 2204 975 2195 963 c 2,137,-1
 2083 812 l 1,138,139
 2116 789 2116 789 2149 767.5 c 128,-1,140
 2182 746 2182 746 2216 726 c 1,141,142
 2307 679 2307 679 2380.5 620 c 128,-1,143
 2454 561 2454 561 2504.5 498.5 c 128,-1,144
 2555 436 2555 436 2581.5 373 c 128,-1,145
 2608 310 2608 310 2605 254 c 0,146,147
 2604 208 2604 208 2587 166 c 0,148,149
 2568 123 2568 123 2536 92.5 c 128,-1,150
 2504 62 2504 62 2464 46 c 128,-1,151
 2424 30 2424 30 2380 29.5 c 128,-1,152
 2336 29 2336 29 2293 48 c 0,153,154
 2261 61 2261 61 2236 82.5 c 128,-1,155
 2211 104 2211 104 2193 131 c 128,-1,156
 2175 158 2175 158 2165 189.5 c 128,-1,157
 2155 221 2155 221 2154 254 c 1,158,159
 2166 278 2166 278 2152.5 314.5 c 128,-1,160
 2139 351 2139 351 2103.5 392.5 c 128,-1,161
 2068 434 2068 434 2014 478 c 128,-1,162
 1960 522 1960 522 1893 560 c 1,163,-1
 1779 411 l 2,164,165
 1770 399 1770 399 1754.5 396.5 c 128,-1,166
 1739 394 1739 394 1726 403 c 2,167,-1
 1658 454 l 2,168,169
 1646 464 1646 464 1644 479.5 c 128,-1,170
 1642 495 1642 495 1651 507 c 2,171,-1
 1767 660 l 1,172,173
 1734 690 1734 690 1701 721 c 128,-1,174
 1668 752 1668 752 1636 784 c 0,175,176
 1568 852 1568 852 1503 922.5 c 128,-1,177
 1438 993 1438 993 1377 1065 c 1,178,179
 1316 993 1316 993 1251.5 922.5 c 128,-1,180
 1187 852 1187 852 1118 784 c 0,181,182
 1086 752 1086 752 1053 721 c 128,-1,183
 1020 690 1020 690 987 661 c 1,184,-1
 1103 507 l 2,185,186
 1112 495 1112 495 1110 479.5 c 128,-1,187
 1108 464 1108 464 1096 455 c 2,188,-1
 1028 403 l 2,189,190
 1015 394 1015 394 999.5 396.5 c 128,-1,191
 984 399 984 399 974 411 c 1,192,-1
 861 560 l 1,193,194
 793 522 793 522 739.5 478.5 c 128,-1,195
 686 435 686 435 651 393 c 128,-1,196
 616 351 616 351 602 314.5 c 128,-1,197
 588 278 588 278 600 254 c 1,198,199
 599 221 599 221 589 190 c 128,-1,200
 579 159 579 159 561.5 131.5 c 128,-1,201
 544 104 544 104 518.5 82.5 c 128,-1,202
 493 61 493 61 461 48 c 0,203,204
 419 29 419 29 374.5 29.5 c 128,-1,205
 330 30 330 30 290 46 c 128,-1,206
 250 62 250 62 218 93 c 128,-1,207
 186 124 186 124 168 166 c 0,208,209
 159 187 159 187 154.5 209 c 128,-1,210
 150 231 150 231 149 254 c 0,211,212
 146 310 146 310 172.5 373 c 128,-1,213
 199 436 199 436 250 499 c 128,-1,214
 301 562 301 562 374 620.5 c 128,-1,215
 447 679 447 679 539 726 c 1,216,217
 573 746 573 746 605.5 767.5 c 128,-1,218
 638 789 638 789 671 812 c 1,219,-1
 559 963 l 2,220,221
 550 975 550 975 552 990.5 c 128,-1,222
 554 1006 554 1006 567 1016 c 2,223,-1
 634 1067 l 2,224,225
 647 1076 647 1076 662.5 1074 c 128,-1,226
 678 1072 678 1072 687 1059 c 1,227,-1
 802 908 l 1,228,229
 918 992 918 992 1023 1082.5 c 128,-1,230
 1128 1173 1128 1173 1222 1266 c 1,231,232
 1074 1468 1074 1468 962 1677 c 128,-1,233
 850 1886 850 1886 777.5 2097.5 c 128,-1,234
 705 2309 705 2309 673.5 2519 c 128,-1,235
 642 2729 642 2729 655 2932 c 1,236,237
 690 2736 690 2736 751.5 2540.5 c 128,-1,238
 813 2345 813 2345 902.5 2156 c 128,-1,239
 992 1967 992 1967 1110.5 1785 c 128,-1,240
 1229 1603 1229 1603 1377 1433 c 1,241,242
 1526 1604 1526 1604 1644 1786 c 128,-1,243
 1762 1968 1762 1968 1851.5 2157.5 c 128,-1,244
 1941 2347 1941 2347 2002.5 2541.5 c 128,-1,245
 2064 2736 2064 2736 2098 2933 c 1,246,247
 2111 2730 2111 2730 2079.5 2520 c 128,-1,248
 2048 2310 2048 2310 1975.5 2099 c 128,-1,249
 1903 1888 1903 1888 1791.5 1679 c 128,-1,250
 1680 1470 1680 1470 1532 1267 c 1,126,127
EndSplineSet
EndChar
StartChar: Egrave
Encoding: 200 200 88
Width: 2503
GlyphClass: 2
Flags: W
Fore
1283 -79 m 0,0,1
 1205 -79 1205 -79 1131 -63.5 c 128,-1,2
 1057 -48 1057 -48 989 -19.5 c 128,-1,3
 921 9 921 9 860.5 50 c 128,-1,4
 800 91 800 91 748.5 142.5 c 128,-1,5
 697 194 697 194 656 254.5 c 128,-1,6
 615 315 615 315 586 383 c 128,-1,7
 557 451 557 451 541.5 525 c 128,-1,8
 526 599 526 599 526 677 c 128,-1,9
 526 755 526 755 541.5 829 c 128,-1,10
 557 903 557 903 586 971 c 128,-1,11
 615 1039 615 1039 656 1099.5 c 128,-1,12
 697 1160 697 1160 748.5 1211.5 c 128,-1,13
 800 1263 800 1263 860.5 1304.5 c 128,-1,14
 921 1346 921 1346 989 1374.5 c 128,-1,15
 1057 1403 1057 1403 1131 1418.5 c 128,-1,16
 1205 1434 1205 1434 1283 1434 c 0,17,18
 1362 1434 1362 1434 1435.5 1418.5 c 128,-1,19
 1509 1403 1509 1403 1577 1374.5 c 128,-1,20
 1645 1346 1645 1346 1706 1304.5 c 128,-1,21
 1767 1263 1767 1263 1818 1211.5 c 128,-1,22
 1869 1160 1869 1160 1910.5 1099.5 c 128,-1,23
 1952 1039 1952 1039 1980.5 971 c 128,-1,24
 2009 903 2009 903 2024.5 829 c 128,-1,25
 2040 755 2040 755 2040 677 c 128,-1,26
 2040 599 2040 599 2024.5 525 c 128,-1,27
 2009 451 2009 451 1980.5 383 c 128,-1,28
 1952 315 1952 315 1910.5 254.5 c 128,-1,29
 1869 194 1869 194 1818 142.5 c 128,-1,30
 1767 91 1767 91 1706 50 c 128,-1,31
 1645 9 1645 9 1577 -19.5 c 128,-1,32
 1509 -48 1509 -48 1435.5 -63.5 c 128,-1,33
 1362 -79 1362 -79 1283 -79 c 0,0,1
2171 1145 m 1,34,35
 2107 1263 2107 1263 2014 1361 c 128,-1,36
 1921 1459 1921 1459 1806.5 1529 c 128,-1,37
 1692 1599 1692 1599 1559.5 1638 c 128,-1,38
 1427 1677 1427 1677 1283 1677 c 0,39,40
 1140 1677 1140 1677 1007 1638 c 128,-1,41
 874 1599 874 1599 760 1529 c 128,-1,42
 646 1459 646 1459 553.5 1361 c 128,-1,43
 461 1263 461 1263 397 1145 c 1,44,-1
 107 1145 l 1,45,-1
 1284 2819 l 1,46,-1
 2456 1145 l 1,47,-1
 2171 1145 l 1,34,35
EndSplineSet
EndChar
StartChar: Ecircumflex
Encoding: 202 202 89
Width: 2961
GlyphClass: 2
Flags: W
Fore
2017 1947 m 1,0,1
 2076 2018 2076 2018 2160 2086 c 128,-1,2
 2244 2154 2244 2154 2341 2217 c 1,3,4
 2402 2273 2402 2273 2445 2332.5 c 128,-1,5
 2488 2392 2488 2392 2515.5 2451.5 c 128,-1,6
 2543 2511 2543 2511 2555 2569 c 128,-1,7
 2567 2627 2567 2627 2567 2679 c 128,-1,8
 2567 2731 2567 2731 2555.5 2776 c 128,-1,9
 2544 2821 2544 2821 2523.5 2854 c 128,-1,10
 2503 2887 2503 2887 2474.5 2907.5 c 128,-1,11
 2446 2928 2446 2928 2412 2932 c 0,12,13
 2365 2936 2365 2936 2324.5 2906 c 128,-1,14
 2284 2876 2284 2876 2250 2810 c 1,15,-1
 2300 2810 l 2,16,17
 2329 2811 2329 2811 2350 2797 c 128,-1,18
 2371 2783 2371 2783 2371 2764 c 128,-1,19
 2371 2745 2371 2745 2350 2731 c 128,-1,20
 2329 2717 2329 2717 2300 2717 c 2,21,-1
 2250 2716 l 1,22,23
 2240 2571 2240 2571 2194 2401.5 c 128,-1,24
 2148 2232 2148 2232 2068 2058 c 0,25,26
 2054 2029 2054 2029 2040.5 2000.5 c 128,-1,27
 2027 1972 2027 1972 2017 1947 c 1,0,1
1958 1842 m 1,28,29
 1927 1796 1927 1796 1894.5 1747.5 c 128,-1,30
 1862 1699 1862 1699 1829 1652 c 1,31,32
 1783 1590 1783 1590 1749 1532 c 128,-1,33
 1715 1474 1715 1474 1691.5 1418 c 128,-1,34
 1668 1362 1668 1362 1653 1306.5 c 128,-1,35
 1638 1251 1638 1251 1629.5 1195.5 c 128,-1,36
 1621 1140 1621 1140 1617.5 1082 c 128,-1,37
 1614 1024 1614 1024 1613.5 963 c 128,-1,38
 1613 902 1613 902 1614 835.5 c 128,-1,39
 1615 769 1615 769 1615 697 c 1,40,-1
 1496 697 l 1,41,-1
 1496 2810 l 1,42,-1
 2193 2811 l 1,43,44
 2227 2886 2227 2886 2279 2938 c 128,-1,45
 2331 2990 2331 2990 2405 3001 c 0,46,47
 2446 3006 2446 3006 2486 2991 c 128,-1,48
 2526 2976 2526 2976 2560 2944 c 128,-1,49
 2594 2912 2594 2912 2620.5 2865 c 128,-1,50
 2647 2818 2647 2818 2660 2760.5 c 128,-1,51
 2673 2703 2673 2703 2670.5 2636 c 128,-1,52
 2668 2569 2668 2569 2645 2498 c 128,-1,53
 2622 2427 2622 2427 2576.5 2352.5 c 128,-1,54
 2531 2278 2531 2278 2457 2205 c 1,55,56
 2347 2128 2347 2128 2260.5 2063 c 128,-1,57
 2174 1998 2174 1998 2120.5 1940 c 128,-1,58
 2067 1882 2067 1882 2051.5 1829 c 128,-1,59
 2036 1776 2036 1776 2069 1722 c 0,60,61
 2080 1706 2080 1706 2102 1679.5 c 128,-1,62
 2124 1653 2124 1653 2150.5 1626 c 128,-1,63
 2177 1599 2177 1599 2205.5 1577.5 c 128,-1,64
 2234 1556 2234 1556 2258 1548 c 1,65,66
 2187 1525 2187 1525 2134 1536 c 128,-1,67
 2081 1547 2081 1547 2044 1580 c 128,-1,68
 2007 1613 2007 1613 1985 1659.5 c 128,-1,69
 1963 1706 1963 1706 1953 1751 c 0,70,71
 1949 1772 1949 1772 1950.5 1794 c 128,-1,72
 1952 1816 1952 1816 1958 1842 c 1,28,29
975 1947 m 1,73,74
 965 1972 965 1972 951.5 2000.5 c 128,-1,75
 938 2029 938 2029 924 2058 c 0,76,77
 844 2232 844 2232 798 2401.5 c 128,-1,78
 752 2571 752 2571 741 2716 c 1,79,-1
 692 2717 l 2,80,81
 662 2717 662 2717 641.5 2731 c 128,-1,82
 621 2745 621 2745 621 2764 c 128,-1,83
 621 2783 621 2783 642 2797 c 128,-1,84
 663 2811 663 2811 692 2810 c 2,85,-1
 743 2810 l 1,86,87
 708 2876 708 2876 668 2906 c 128,-1,88
 628 2936 628 2936 580 2932 c 0,89,90
 546 2928 546 2928 517.5 2907.5 c 128,-1,91
 489 2887 489 2887 468.5 2854 c 128,-1,92
 448 2821 448 2821 436 2776 c 128,-1,93
 424 2731 424 2731 424 2679 c 128,-1,94
 424 2627 424 2627 436.5 2569 c 128,-1,95
 449 2511 449 2511 476 2451.5 c 128,-1,96
 503 2392 503 2392 546 2332.5 c 128,-1,97
 589 2273 589 2273 651 2217 c 1,98,99
 748 2154 748 2154 832 2086 c 128,-1,100
 916 2018 916 2018 975 1947 c 1,73,74
1034 1842 m 1,101,102
 1040 1816 1040 1816 1041.5 1794 c 128,-1,103
 1043 1772 1043 1772 1039 1751 c 0,104,105
 1029 1706 1029 1706 1007 1659.5 c 128,-1,106
 985 1613 985 1613 948 1580 c 128,-1,107
 911 1547 911 1547 858 1536 c 128,-1,108
 805 1525 805 1525 734 1548 c 1,109,110
 758 1556 758 1556 786.5 1577.5 c 128,-1,111
 815 1599 815 1599 841.5 1626 c 128,-1,112
 868 1653 868 1653 890 1679.5 c 128,-1,113
 912 1706 912 1706 922 1722 c 0,114,115
 956 1776 956 1776 940.5 1829 c 128,-1,116
 925 1882 925 1882 871.5 1940 c 128,-1,117
 818 1998 818 1998 731.5 2063 c 128,-1,118
 645 2128 645 2128 535 2205 c 1,119,120
 462 2278 462 2278 416 2352.5 c 128,-1,121
 370 2427 370 2427 347 2498 c 128,-1,122
 324 2569 324 2569 321.5 2636 c 128,-1,123
 319 2703 319 2703 332 2760.5 c 128,-1,124
 345 2818 345 2818 371 2865 c 128,-1,125
 397 2912 397 2912 431.5 2944 c 128,-1,126
 466 2976 466 2976 506 2991 c 128,-1,127
 546 3006 546 3006 587 3001 c 0,128,129
 661 2990 661 2990 713.5 2938 c 128,-1,130
 766 2886 766 2886 799 2811 c 1,131,-1
 1496 2810 l 1,132,-1
 1496 697 l 1,133,-1
 1377 697 l 1,134,135
 1377 769 1377 769 1378 835.5 c 128,-1,136
 1379 902 1379 902 1378.5 963 c 128,-1,137
 1378 1024 1378 1024 1374.5 1082 c 128,-1,138
 1371 1140 1371 1140 1362.5 1195.5 c 128,-1,139
 1354 1251 1354 1251 1339 1306.5 c 128,-1,140
 1324 1362 1324 1362 1300.5 1418 c 128,-1,141
 1277 1474 1277 1474 1243 1532 c 128,-1,142
 1209 1590 1209 1590 1163 1652 c 1,143,144
 1130 1699 1130 1699 1098 1747.5 c 128,-1,145
 1066 1796 1066 1796 1034 1842 c 1,101,102
1122 697 m 2,146,-1
 1870 697 l 2,147,148
 1889 697 1889 697 1906 689.5 c 128,-1,149
 1923 682 1923 682 1935.5 669.5 c 128,-1,150
 1948 657 1948 657 1955.5 640 c 128,-1,151
 1963 623 1963 623 1963 604 c 0,152,153
 1963 584 1963 584 1955.5 567.5 c 128,-1,154
 1948 551 1948 551 1935.5 538.5 c 128,-1,155
 1923 526 1923 526 1906 518.5 c 128,-1,156
 1889 511 1889 511 1870 511 c 2,157,-1
 1122 511 l 2,158,159
 1103 511 1103 511 1086 518.5 c 128,-1,160
 1069 526 1069 526 1056.5 538.5 c 128,-1,161
 1044 551 1044 551 1036.5 567.5 c 128,-1,162
 1029 584 1029 584 1029 604 c 0,163,164
 1029 623 1029 623 1036.5 640 c 128,-1,165
 1044 657 1044 657 1056.5 669.5 c 128,-1,166
 1069 682 1069 682 1086 689.5 c 128,-1,167
 1103 697 1103 697 1122 697 c 2,146,-1
1122 511 m 2,168,169
 1084 511 1084 511 1056.5 484 c 128,-1,170
 1029 457 1029 457 1029 418 c 0,171,172
 1029 399 1029 399 1036.5 382 c 128,-1,173
 1044 365 1044 365 1056.5 352.5 c 128,-1,174
 1069 340 1069 340 1086 332.5 c 128,-1,175
 1103 325 1103 325 1122 325 c 2,176,-1
 1870 325 l 2,177,178
 1889 325 1889 325 1906 332.5 c 128,-1,179
 1923 340 1923 340 1935.5 352.5 c 128,-1,180
 1948 365 1948 365 1955.5 382 c 128,-1,181
 1963 399 1963 399 1963 418 c 128,-1,182
 1963 437 1963 437 1955.5 454 c 128,-1,183
 1948 471 1948 471 1935.5 484 c 128,-1,184
 1923 497 1923 497 1906 504 c 128,-1,185
 1889 511 1889 511 1870 511 c 2,186,-1
 1122 511 l 2,168,169
2521 -1 m 1,187,-1
 470 -1 l 1,188,189
 470 66 470 66 496 125.5 c 128,-1,190
 522 185 522 185 566.5 229.5 c 128,-1,191
 611 274 611 274 670.5 299.5 c 128,-1,192
 730 325 730 325 797 325 c 2,193,-1
 2194 325 l 2,194,195
 2262 325 2262 325 2321.5 299.5 c 128,-1,196
 2381 274 2381 274 2425.5 229.5 c 128,-1,197
 2470 185 2470 185 2495.5 125.5 c 128,-1,198
 2521 66 2521 66 2521 -1 c 1,187,-1
EndSplineSet
EndChar
StartChar: Edieresis
Encoding: 203 203 90
Width: 4096
GlyphClass: 2
Flags: W
Fore
2864 -31 m 1,0,-1
 2863 684 l 1,1,-1
 219 684 l 1,2,-1
 219 1370 l 1,3,-1
 2863 1370 l 1,4,-1
 2862 2092 l 1,5,-1
 3925 1029 l 1,6,-1
 2864 -31 l 1,0,-1
EndSplineSet
EndChar
StartChar: Igrave
Encoding: 204 204 91
Width: 2310
GlyphClass: 2
Flags: W
Fore
1230 1304 m 1,0,-1
 1230 -136 l 1,1,-1
 953 -136 l 1,2,-1
 952 1305 l 1,3,4
 778 1332 778 1332 629 1416.5 c 128,-1,5
 480 1501 480 1501 370.5 1627.5 c 128,-1,6
 261 1754 261 1754 198.5 1915 c 128,-1,7
 136 2076 136 2076 136 2255 c 2,8,-1
 136 2791 l 1,9,-1
 406 2791 l 1,10,-1
 406 2255 l 2,11,12
 406 2131 406 2131 447.5 2018.5 c 128,-1,13
 489 1906 489 1906 562.5 1816 c 128,-1,14
 636 1726 636 1726 736 1664 c 128,-1,15
 836 1602 836 1602 953 1577 c 1,16,-1
 953 2591 l 1,17,-1
 1230 2591 l 1,18,-1
 1230 1581 l 1,19,20
 1348 1605 1348 1605 1449 1667 c 128,-1,21
 1550 1729 1550 1729 1623.5 1818 c 128,-1,22
 1697 1907 1697 1907 1738 2019 c 128,-1,23
 1779 2131 1779 2131 1778 2255 c 1,24,-1
 1778 2791 l 1,25,-1
 2048 2791 l 1,26,-1
 2048 2255 l 2,27,28
 2048 2165 2048 2165 2032.5 2078.5 c 128,-1,29
 2017 1992 2017 1992 1987 1912 c 128,-1,30
 1957 1832 1957 1832 1913 1759.5 c 128,-1,31
 1869 1687 1869 1687 1814 1623.5 c 128,-1,32
 1759 1560 1759 1560 1693.5 1507 c 128,-1,33
 1628 1454 1628 1454 1554 1413 c 128,-1,34
 1480 1372 1480 1372 1398.5 1344 c 128,-1,35
 1317 1316 1317 1316 1230 1304 c 1,0,-1
EndSplineSet
EndChar
StartChar: Iacute
Encoding: 205 205 92
Width: 2048
GlyphClass: 2
Flags: W
Fore
1319 2824 m 1,0,-1
 1319 2648 l 1,1,-1
 1199 2581 l 1,2,-1
 1199 1887 l 2,3,4
 1199 1821 1199 1821 1222 1765 c 128,-1,5
 1245 1709 1245 1709 1280 1668 c 1,6,7
 1302 1646 1302 1646 1344 1615 c 128,-1,8
 1386 1584 1386 1584 1450 1554 c 1,9,-1
 1536 1555 l 1,10,-1
 1536 1346 l 1,11,-1
 1092 1346 l 1,12,-1
 993 -69 l 1,13,-1
 965 -69 l 1,14,-1
 853 1346 l 1,15,-1
 409 1346 l 1,16,-1
 409 1555 l 1,17,-1
 497 1554 l 1,18,19
 557 1584 557 1584 602 1615.5 c 128,-1,20
 647 1647 647 1647 672 1673 c 0,21,22
 711 1714 711 1714 731 1771.5 c 128,-1,23
 751 1829 751 1829 751 1887 c 2,24,-1
 751 2581 l 1,25,-1
 634 2648 l 1,26,-1
 634 2824 l 1,27,-1
 1319 2824 l 1,0,-1
EndSplineSet
EndChar
StartChar: Icircumflex
Encoding: 206 206 93
Width: 3183
GlyphClass: 2
Flags: W
Fore
1429 1570 m 1,0,1
 1450 1615 1450 1615 1487.5 1651 c 128,-1,2
 1525 1687 1525 1687 1572 1709 c 1,3,-1
 1573 2170 l 1,4,5
 1459 2150 1459 2150 1358 2096.5 c 128,-1,6
 1257 2043 1257 2043 1178 1964 c 128,-1,7
 1099 1885 1099 1885 1045.5 1784 c 128,-1,8
 992 1683 992 1683 972 1569 c 1,9,-1
 1429 1570 l 1,0,1
1433 1298 m 1,10,-1
 972 1299 l 1,11,12
 992 1185 992 1185 1045.5 1084 c 128,-1,13
 1099 983 1099 983 1178 904 c 128,-1,14
 1257 825 1257 825 1358 770.5 c 128,-1,15
 1459 716 1459 716 1573 696 c 1,16,-1
 1572 1158 l 1,17,18
 1530 1178 1530 1178 1493 1215.5 c 128,-1,19
 1456 1253 1456 1253 1433 1298 c 1,10,-1
2442 1298 m 1,20,-1
 1984 1298 l 1,21,22
 1960 1253 1960 1253 1923.5 1215.5 c 128,-1,23
 1887 1178 1887 1178 1842 1156 c 1,24,-1
 1842 699 l 1,25,26
 1955 718 1955 718 2054.5 771.5 c 128,-1,27
 2154 825 2154 825 2232.5 904 c 128,-1,28
 2311 983 2311 983 2365.5 1083.5 c 128,-1,29
 2420 1184 2420 1184 2442 1298 c 1,20,-1
2445 1568 m 1,30,31
 2424 1681 2424 1681 2370 1781.5 c 128,-1,32
 2316 1882 2316 1882 2236.5 1961 c 128,-1,33
 2157 2040 2157 2040 2056.5 2094 c 128,-1,34
 1956 2148 1956 2148 1842 2169 c 1,35,-1
 1842 1706 l 1,36,37
 1889 1683 1889 1683 1928 1648 c 128,-1,38
 1967 1613 1967 1613 1987 1570 c 1,39,-1
 2445 1568 l 1,30,31
2719 1298 m 1,40,41
 2696 1129 2696 1129 2619 979.5 c 128,-1,42
 2542 830 2542 830 2426 714 c 128,-1,43
 2310 598 2310 598 2161 521.5 c 128,-1,44
 2012 445 2012 445 1842 421 c 1,45,-1
 1842 0 l 1,46,-1
 1572 0 l 1,47,-1
 1572 417 l 1,48,49
 1402 439 1402 439 1252 515 c 128,-1,50
 1102 591 1102 591 985.5 708 c 128,-1,51
 869 825 869 825 792.5 976 c 128,-1,52
 716 1127 716 1127 693 1298 c 1,53,-1
 278 1298 l 1,54,-1
 278 1570 l 1,55,-1
 693 1570 l 1,56,57
 715 1740 715 1740 791 1890.5 c 128,-1,58
 867 2041 867 2041 983 2157 c 128,-1,59
 1099 2273 1099 2273 1249.5 2348 c 128,-1,60
 1400 2423 1400 2423 1572 2444 c 1,61,-1
 1572 2869 l 1,62,-1
 1842 2869 l 1,63,-1
 1842 2444 l 1,64,65
 2013 2421 2013 2421 2163.5 2345 c 128,-1,66
 2314 2269 2314 2269 2430.5 2153 c 128,-1,67
 2547 2037 2547 2037 2623.5 1888 c 128,-1,68
 2700 1739 2700 1739 2723 1570 c 1,69,-1
 3142 1570 l 1,70,-1
 3142 1298 l 1,71,-1
 2719 1298 l 1,40,41
EndSplineSet
EndChar
StartChar: Idieresis
Encoding: 207 207 94
Width: 3183
GlyphClass: 2
Flags: W
Fore
2119 121 m 1,0,-1
 2119 506 l 1,1,-1
 2499 884 l 1,2,-1
 136 884 l 1,3,-1
 136 1163 l 1,4,-1
 2499 1163 l 1,5,-1
 2119 1545 l 1,6,-1
 2120 1932 l 1,7,-1
 3024 1029 l 1,8,-1
 2119 121 l 1,0,-1
EndSplineSet
EndChar
